{
.formatVersion = 3;
DisplayStrings = (
D,
AGMPUWbvwx,
ABCDEFGHIJKLMNOPQRSTUVWXYZ.abcdefghijklmnopqrstuvwxyz,
YZabd,
defuvwx,
yzghb
);
familyName = "Selfie Neue Rnd Joy";
customParameters = (
{
name = glyphOrder;
value = (
.notdef,
NULL,
CR,
space,
A,
B,
C,
D,
E,
F,
G,
H,
I,
J,
U,
V,
W,
X,
Y,
Z,
a,
b,
c,
d,
e,
f,
u,
v,
w,
x,
y,
z,
g,
h,
i,
j,
K,
L,
M,
N,
O,
P,
Q,
R,
S,
T,
k,
l,
m,
n,
o,
p,
q,
r,
s,
t,
period
);
}
);
fontMaster = (
{
customParameters = (
{
name = typoAscender;
value = 750;
},
{
name = typoDescender;
value = -250;
},
{
name = typoLineGap;
value = 100;
},
{
name = winAscent;
value = 750;
},
{
name = winDescent;
value = 250;
},
{
name = underlineThickness;
value = 50;
},
{
name = underlinePosition;
value = -100;
},
{
name = strikeoutPosition;
value = 300;
},
{
name = strikeoutSize;
value = 50;
},
{
name = subscriptXOffset;
value = 0;
},
{
name = subscriptXSize;
value = 650;
},
{
name = subscriptYOffset;
value = 75;
},
{
name = subscriptYSize;
value = 600;
},
{
name = superscriptXOffset;
value = 0;
},
{
name = superscriptXSize;
value = 650;
},
{
name = superscriptYOffset;
value = 350;
},
{
name = superscriptYSize;
value = 600;
},
{
name = hheaAscender;
value = 750;
},
{
name = hheaDescender;
value = -250;
},
{
name = hheaLineGap;
value = 100;
}
);
guides = (
{
position = "{0, 250}";
}
);
id = "3D7C3D5E-7EBF-4B0D-83EE-E00796F45C97";
metricValues = (
{
pos = 750;
},
{
pos = 700;
},
{
pos = -250;
},
{
pos = 0;
},
{
pos = 560;
}
);
}
);
glyphs = (
{
glyphname = A;
layers = (
{
layerId = "3D7C3D5E-7EBF-4B0D-83EE-E00796F45C97";
shapes = (
{
closed = 1;
nodes = (
(175,560,o),
(50,435,o),
(50,280,cs),
(50,125,o),
(175,0,o),
(330,0,cs),
(485,0,o),
(610,125,o),
(610,280,cs),
(610,435,o),
(485,560,o),
(330,560,cs)
);
},
{
closed = 1;
nodes = (
(525,159,o),
(406,142,o),
(329,262,c),
(330,266,o),
(332,270,o),
(334,273,c),
(373,219,o),
(436,183,o),
(503,183,cs),
(525,183,o),
(547,187,o),
(571,194,c),
(568,184,o),
(564,175,o),
(560,167,c)
);
},
{
closed = 1;
nodes = (
(354,74,o),
(273,150,o),
(258,216,c),
(273,219,ls),
(275,220,o),
(277,220,o),
(278,221,c),
(326,145,o),
(385,95,o),
(473,68,c),
(452,53,o),
(428,42,o),
(403,34,c)
);
},
{
closed = 1;
nodes = (
(181,270,o),
(175,272,o),
(168,271,cs),
(132,267,o),
(97,288,o),
(87,320,cs),
(81,338,o),
(84,357,o),
(94,372,c),
(103,388,o),
(117,400,o),
(135,405,cs),
(154,410,o),
(174,406,o),
(190,396,c),
(194,393,o),
(199,393,o),
(203,395,cs),
(207,397,o),
(209,402,o),
(209,406,c),
(213,433,o),
(232,457,o),
(259,464,cs),
(290,473,o),
(323,458,o),
(338,429,c),
(340,424,o),
(346,422,o),
(352,423,c),
(353,424,l),
(371,428,o),
(389,426,o),
(405,417,cs),
(421,408,o),
(433,393,o),
(437,375,c),
(442,358,o),
(440,339,o),
(431,323,c),
(421,307,o),
(407,296,o),
(389,291,cs),
(369,286,o),
(354,295,o),
(340,309,c),
(334,317,o),
(321,314,o),
(319,304,cs),
(314,280,o),
(297,251,o),
(267,242,cs),
(241,235,o),
(216,243,o),
(186,266,cs)
);
},
{
closed = 1;
nodes = (
(126,146,o),
(134,221,o),
(138,247,c),
(143,246,o),
(148,246,o),
(153,246,cs),
(158,246,o),
(162,246,o),
(167,247,c),
(176,176,o),
(208,92,o),
(252,36,c),
(219,47,o),
(189,63,o),
(164,85,c)
);
},
{
closed = 1;
nodes = (
(471,536,o),
(586,421,o),
(586,280,cs),
(586,260,o),
(584,240,o),
(579,222,c),
(512,198,o),
(452,204,o),
(401,240,cs),
(389,248,o),
(379,257,o),
(371,266,c),
(378,265,o),
(387,266,o),
(395,268,cs),
(419,275,o),
(439,290,o),
(451,311,cs),
(464,333,o),
(467,358,o),
(460,382,cs),
(454,406,o),
(439,425,o),
(417,438,cs),
(398,449,o),
(376,453,o),
(354,449,c),
(345,463,o),
(331,475,o),
(315,482,cs),
(295,491,o),
(273,492,o),
(253,487,cs),
(221,478,o),
(197,455,o),
(188,424,c),
(169,432,o),
(149,433,o),
(129,428,cs),
(125,427,o),
(122,426,o),
(119,424,c),
(165,492,o),
(242,536,o),
(330,536,cs)
);
},
{
closed = 1;
nodes = (
(74,290,l),
(84,274,o),
(98,261,o),
(115,254,c),
(113,243,o),
(110,223,o),
(110,198,cs),
(110,177,o),
(113,157,o),
(117,138,c),
(90,179,o),
(74,227,o),
(74,280,cs)
);
},
{
closed = 1;
nodes = (
(238,81,o),
(210,157,o),
(194,230,c),
(206,223,o),
(219,219,o),
(233,217,c),
(238,191,o),
(261,122,o),
(373,28,c),
(359,25,o),
(345,24,o),
(330,24,cs),
(317,24,o),
(304,25,o),
(292,27,c)
);
},
{
closed = 1;
nodes = (
(419,106,o),
(337,158,o),
(300,232,c),
(304,235,o),
(309,239,o),
(313,243,c),
(372,155,o),
(452,137,o),
(508,137,cs),
(522,137,o),
(534,138,o),
(544,140,c),
(531,120,o),
(515,102,o),
(497,86,c)
);
}
);
width = 660;
}
);
unicode = 65;
},
{
glyphname = B;
layers = (
{
layerId = "3D7C3D5E-7EBF-4B0D-83EE-E00796F45C97";
shapes = (
{
closed = 1;
nodes = (
(361,116,o),
(351,111,o),
(344,104,c),
(336,111,o),
(326,116,o),
(314,116,cs),
(292,116,o),
(273,97,o),
(273,75,cs),
(273,22,o),
(341,0,o),
(344,0,c),
(347,0,o),
(414,22,o),
(414,75,cs),
(414,97,o),
(396,116,o),
(373,116,cs)
);
},
{
closed = 1;
nodes = (
(333,29,o),
(297,45,o),
(297,75,cs),
(297,84,o),
(305,92,o),
(314,92,cs),
(324,92,o),
(332,84,o),
(332,75,cs),
(332,68,o),
(337,63,o),
(344,63,cs),
(350,63,o),
(356,68,o),
(356,75,cs),
(356,84,o),
(363,92,o),
(373,92,cs),
(382,92,o),
(390,84,o),
(390,75,cs),
(390,45,o),
(356,29,o),
(344,25,c)
);
},
{
closed = 1;
nodes = (
(635,401,o),
(599,407,o),
(554,404,c),
(554,406,o),
(553,409,o),
(553,411,c),
(549,453,o),
(538,483,o),
(538,485,c),
(536,490,o),
(530,494,o),
(524,492,c),
(522,492,o),
(472,482,o),
(422,451,c),
(412,468,o),
(362,537,o),
(353,537,c),
(348,541,o),
(342,541,o),
(337,537,c),
(336,537,o),
(312,516,o),
(288,481,cs),
(281,472,o),
(274,462,o),
(269,452,c),
(219,483,o),
(170,493,o),
(168,494,cs),
(162,495,o),
(156,492,o),
(154,486,c),
(154,485,o),
(143,455,o),
(138,413,c),
(138,410,l),
(95,414,o),
(62,408,o),
(60,408,c),
(54,407,o),
(50,402,o),
(50,396,c),
(50,244,o),
(147,145,o),
(301,145,cs),
(323,145,o),
(339,147,o),
(345,147,c),
(351,146,o),
(372,143,o),
(399,143,cs),
(405,143,o),
(411,144,o),
(417,144,c),
(473,147,o),
(521,163,o),
(556,190,cs),
(608,232,o),
(646,321,o),
(646,388,c),
(646,394,o),
(642,399,o),
(636,400,c)
);
},
{
closed = 1;
nodes = (
(527,436,o),
(547,347,o),
(508,279,cs),
(479,228,o),
(424,199,o),
(385,185,c),
(423,223,o),
(452,291,o),
(452,344,cs),
(452,372,o),
(445,400,o),
(432,429,c),
(466,450,o),
(501,462,o),
(518,466,c)
);
},
{
closed = 1;
nodes = (
(367,490,o),
(428,422,o),
(428,344,cs),
(428,266,o),
(367,198,o),
(345,176,c),
(323,198,o),
(262,266,o),
(262,344,cs),
(262,422,o),
(323,490,o),
(345,512,c)
);
},
{
closed = 1;
nodes = (
(190,463,o),
(224,452,o),
(258,431,c),
(245,401,o),
(238,372,o),
(238,344,cs),
(238,300,o),
(255,252,o),
(288,207,cs),
(293,199,o),
(299,191,o),
(304,185,c),
(266,200,o),
(211,230,o),
(183,280,cs),
(144,349,o),
(165,438,o),
(174,468,c)
);
},
{
closed = 1;
nodes = (
(87,387,o),
(110,388,o),
(136,386,c),
(135,341,o),
(144,301,o),
(162,269,cs),
(188,222,o),
(232,192,o),
(279,169,c),
(150,179,o),
(83,256,o),
(75,386,c)
);
},
{
closed = 1;
nodes = (
(411,169,o),
(414,171,o),
(418,172,c),
(509,215,o),
(555,279,o),
(555,380,c),
(583,382,o),
(608,380,o),
(621,378,c),
(608,248,o),
(538,171,o),
(407,168,c)
);
}
);
width = 696;
}
);
unicode = 66;
},
{
glyphname = C;
layers = (
{
layerId = "3D7C3D5E-7EBF-4B0D-83EE-E00796F45C97";
shapes = (
{
closed = 1;
nodes = (
(381,31,o),
(493,106,o),
(515,203,cs),
(534,283,o),
(491,360,o),
(489,363,cs),
(488,366,o),
(485,368,o),
(482,369,cs),
(479,370,o),
(475,369,o),
(472,367,c),
(471,367,o),
(464,362,o),
(452,352,c),
(453,356,o),
(454,360,o),
(455,365,cs),
(462,420,o),
(441,476,o),
(411,521,cs),
(409,524,o),
(406,526,o),
(403,526,cs),
(400,526,o),
(396,526,o),
(394,523,c),
(393,522,o),
(375,507,o),
(356,482,c),
(356,486,l),
(349,560,o),
(296,618,o),
(294,620,cs),
(292,622,o),
(289,624,o),
(285,624,c),
(282,624,o),
(279,622,o),
(276,620,c),
(244,572,o),
(219,544,o),
(214,483,c),
(196,508,o),
(178,523,o),
(177,524,c),
(174,526,o),
(171,527,o),
(167,526,c),
(164,526,o),
(161,524,o),
(159,522,cs),
(129,478,o),
(109,419,o),
(116,365,c),
(116,361,o),
(117,357,o),
(118,352,c),
(107,362,o),
(99,367,o),
(98,368,c),
(95,370,o),
(92,370,o),
(89,369,c),
(86,369,o),
(83,367,o),
(81,364,cs),
(56,315,o),
(42,258,o),
(55,203,cs),
(80,102,o),
(182,31,o),
(285,31,cs)
);
},
{
closed = 1;
nodes = (
(66,262,o),
(85,316,o),
(96,339,c),
(107,330,o),
(126,313,o),
(143,290,cs),
(146,285,o),
(153,284,o),
(159,287,c),
(164,291,o),
(166,298,o),
(163,303,cs),
(150,325,o),
(142,347,o),
(140,368,c),
(133,422,o),
(158,474,o),
(171,496,c),
(184,483,o),
(205,460,o),
(219,428,c),
(222,423,o),
(228,420,o),
(234,422,cs),
(240,424,o),
(243,430,o),
(242,436,cs),
(239,448,o),
(238,459,o),
(238,470,cs),
(238,525,o),
(269,573,o),
(285,593,c),
(300,574,o),
(328,533,o),
(332,483,c),
(332,466,o),
(332,453,o),
(329,436,c),
(327,430,o),
(331,424,o),
(336,422,cs),
(342,420,o),
(349,423,o),
(351,428,cs),
(366,459,o),
(387,483,o),
(399,496,c),
(412,473,o),
(438,422,o),
(431,368,cs),
(428,347,o),
(420,325,o),
(408,303,cs),
(405,298,o),
(406,290,o),
(412,287,cs),
(417,284,o),
(424,285,o),
(428,290,cs),
(444,313,o),
(463,330,o),
(475,339,c),
(485,316,o),
(505,262,o),
(492,209,cs),
(467,119,o),
(378,55,o),
(285,55,cs),
(197,55,o),
(100,121,o),
(78,209,cs)
);
},
{
closed = 1;
nodes = (
(189,134,l),
(380,139,l),
(384,139,o),
(388,141,o),
(390,145,cs),
(392,148,o),
(392,152,o),
(391,156,c),
(296,352,ls),
(294,356,o),
(290,359,o),
(285,359,cs),
(281,359,o),
(276,356,o),
(274,352,cs),
(177,151,ls),
(176,148,o),
(176,143,o),
(178,140,cs),
(180,136,o),
(184,134,o),
(188,134,c)
);
},
{
closed = 1;
nodes = (
(285,319,l),
(361,162,l),
(208,159,l)
);
}
);
width = 570;
}
);
unicode = 67;
},
{
glyphname = D;
layers = (
{
layerId = "3D7C3D5E-7EBF-4B0D-83EE-E00796F45C97";
shapes = (
{
closed = 1;
nodes = (
(471,153,o),
(549,231,o),
(549,327,cs),
(549,424,o),
(471,502,o),
(375,502,cs),
(278,502,o),
(200,424,o),
(200,327,cs),
(200,231,o),
(278,153,o),
(375,153,cs)
);
},
{
closed = 1;
nodes = (
(458,478,o),
(525,410,o),
(525,327,cs),
(525,244,o),
(458,177,o),
(375,177,cs),
(292,177,o),
(224,244,o),
(224,327,cs),
(224,410,o),
(292,478,o),
(375,478,cs)
);
},
{
closed = 1;
nodes = (
(332,312,o),
(361,343,o),
(361,370,cs),
(361,388,o),
(346,403,o),
(328,403,cs),
(320,403,o),
(312,400,o),
(306,395,c),
(301,400,o),
(293,403,o),
(285,403,cs),
(267,403,o),
(252,388,o),
(252,370,cs),
(252,341,o),
(279,312,o),
(307,312,cs)
);
},
{
closed = 1;
nodes = (
(290,379,o),
(294,375,o),
(294,370,cs),
(294,363,o),
(300,358,o),
(306,358,cs),
(313,358,o),
(318,363,o),
(318,370,cs),
(318,375,o),
(323,379,o),
(328,379,cs),
(333,379,o),
(337,375,o),
(337,370,cs),
(337,351,o),
(316,340,o),
(307,337,c),
(298,340,o),
(276,351,o),
(276,370,cs),
(276,375,o),
(280,379,o),
(285,379,cs)
);
},
{
closed = 1;
nodes = (
(450,312,o),
(498,329,o),
(498,370,cs),
(498,388,o),
(483,403,o),
(464,403,cs),
(456,403,o),
(449,400,o),
(443,395,c),
(437,400,o),
(430,403,o),
(422,403,cs),
(403,403,o),
(388,388,o),
(388,370,cs),
(388,329,o),
(437,312,o),
(443,312,cs)
);
},
{
closed = 1;
nodes = (
(427,379,o),
(431,375,o),
(431,370,cs),
(431,363,o),
(436,358,o),
(443,358,cs),
(450,358,o),
(455,363,o),
(455,370,cs),
(455,375,o),
(459,379,o),
(464,379,cs),
(470,379,o),
(474,375,o),
(474,370,cs),
(474,351,o),
(452,340,o),
(443,337,c),
(434,340,o),
(412,351,o),
(412,370,cs),
(412,375,o),
(416,379,o),
(422,379,cs)
);
},
{
closed = 1;
nodes = (
(381,544,o),
(386,550,o),
(386,556,cs),
(386,620,ls),
(386,626,o),
(381,632,o),
(374,632,cs),
(368,632,o),
(362,626,o),
(362,620,cs),
(362,556,ls),
(362,550,o),
(368,544,o),
(374,544,cs)
);
},
{
closed = 1;
nodes = (
(381,25,o),
(386,31,o),
(386,37,cs),
(386,101,ls),
(386,107,o),
(381,112,o),
(374,112,cs),
(368,112,o),
(362,107,o),
(362,101,cs),
(362,37,ls),
(362,31,o),
(368,25,o),
(374,25,cs)
);
},
{
closed = 1;
nodes = (
(665,317,ls),
(672,317,o),
(677,322,o),
(677,328,cs),
(677,335,o),
(672,340,o),
(665,340,cs),
(602,340,ls),
(596,340,o),
(590,335,o),
(590,328,cs),
(590,322,o),
(596,317,o),
(602,317,cs)
);
},
{
closed = 1;
nodes = (
(146,317,ls),
(153,317,o),
(158,322,o),
(158,328,cs),
(158,335,o),
(153,340,o),
(146,340,cs),
(83,340,ls),
(76,340,o),
(71,335,o),
(71,328,cs),
(71,322,o),
(76,317,o),
(83,317,cs)
);
},
{
closed = 1;
nodes = (
(583,111,o),
(586,112,o),
(589,114,c),
(593,119,o),
(593,126,o),
(589,131,c),
(544,176,l),
(539,180,o),
(532,180,o),
(527,176,cs),
(522,171,o),
(522,163,o),
(527,159,c),
(572,114,ls),
(574,112,o),
(577,111,o),
(580,111,cs)
);
},
{
closed = 1;
nodes = (
(216,478,o),
(219,479,o),
(221,481,cs),
(226,486,o),
(226,493,o),
(221,498,cs),
(177,543,ls),
(172,548,o),
(164,548,o),
(160,543,cs),
(155,538,o),
(155,531,o),
(160,526,cs),
(205,481,ls),
(207,479,o),
(210,478,o),
(213,478,cs)
);
},
{
closed = 1;
nodes = (
(171,111,o),
(174,112,o),
(177,114,c),
(221,159,l),
(226,163,o),
(226,171,o),
(221,176,cs),
(217,180,o),
(209,180,o),
(205,176,cs),
(160,131,ls),
(155,126,o),
(155,119,o),
(160,114,cs),
(162,112,o),
(165,111,o),
(168,111,cs)
);
},
{
closed = 1;
nodes = (
(538,478,o),
(542,479,o),
(544,481,cs),
(589,526,l),
(593,531,o),
(593,538,o),
(589,543,cs),
(584,548,o),
(576,548,o),
(572,543,c),
(527,498,ls),
(522,493,o),
(522,486,o),
(527,481,cs),
(529,479,o),
(532,478,o),
(535,478,cs)
);
},
{
closed = 1;
nodes = (
(467,527,o),
(471,530,o),
(473,535,cs),
(512,627,ls),
(514,633,o),
(511,640,o),
(505,643,cs),
(499,645,o),
(492,643,o),
(490,636,c),
(451,544,ls),
(449,538,o),
(452,531,o),
(458,528,c),
(459,528,o),
(461,527,o),
(462,527,c)
);
},
{
closed = 1;
nodes = (
(693,448,ls),
(699,450,o),
(702,457,o),
(699,463,cs),
(697,469,o),
(690,472,o),
(684,470,cs),
(591,432,ls),
(585,429,o),
(582,422,o),
(585,416,cs),
(588,409,o),
(593,409,o),
(600,409,c)
);
},
{
closed = 1;
nodes = (
(506,0,o),
(508,0,o),
(509,1,c),
(516,3,o),
(518,10,o),
(516,17,c),
(478,109,ls),
(475,115,o),
(468,118,o),
(462,116,cs),
(456,113,o),
(453,106,o),
(456,100,cs),
(494,7,ls),
(496,3,o),
(500,0,o),
(505,0,c)
);
},
{
closed = 1;
nodes = (
(255,11,o),
(260,13,o),
(262,18,cs),
(300,110,l),
(302,117,o),
(300,124,o),
(293,126,c),
(287,129,o),
(280,126,o),
(278,120,cs),
(239,27,ls),
(237,21,o),
(240,14,o),
(246,12,c),
(247,11,o),
(249,11,o),
(250,11,c)
);
},
{
closed = 1;
nodes = (
(64,184,o),
(66,184,o),
(67,185,c),
(160,223,ls),
(166,225,o),
(169,232,o),
(167,239,c),
(164,245,o),
(157,248,o),
(151,245,cs),
(58,207,ls),
(52,204,o),
(49,197,o),
(52,191,cs),
(54,187,o),
(58,184,o),
(63,184,c)
);
},
{
closed = 1;
nodes = (
(179,418,o),
(176,425,o),
(170,428,cs),
(78,466,ls),
(72,469,o),
(65,466,o),
(62,460,c),
(60,453,o),
(63,446,o),
(69,444,cs),
(161,405,l),
(167,405,o),
(174,405,o),
(177,412,cs)
);
},
{
closed = 1;
nodes = (
(286,538,o),
(288,538,o),
(289,539,c),
(295,541,o),
(298,548,o),
(296,555,c),
(257,647,ls),
(255,653,o),
(248,656,o),
(242,654,cs),
(236,651,o),
(233,644,o),
(235,638,cs),
(273,545,ls),
(275,541,o),
(280,538,o),
(285,538,c)
);
},
{
closed = 1;
nodes = (
(395,222,o),
(412,239,o),
(412,260,cs),
(412,281,o),
(395,298,o),
(374,298,cs),
(353,298,o),
(336,281,o),
(336,260,cs),
(336,239,o),
(353,222,o),
(374,222,cs)
);
},
{
closed = 1;
nodes = (
(382,274,o),
(388,268,o),
(388,260,cs),
(388,252,o),
(382,246,o),
(374,246,cs),
(366,246,o),
(360,252,o),
(360,260,cs),
(360,268,o),
(366,274,o),
(374,274,cs)
);
},
{
closed = 1;
nodes = (
(682,184,o),
(686,187,o),
(688,191,cs),
(691,197,o),
(688,204,o),
(682,207,cs),
(589,245,ls),
(583,248,o),
(576,245,o),
(573,239,c),
(571,232,o),
(574,225,o),
(580,223,cs),
(673,185,l),
(674,184,o),
(676,184,o),
(677,184,c)
);
}
);
width = 751;
}
);
unicode = 68;
},
{
glyphname = E;
layers = (
{
background = {
shapes = (
{
closed = 0;
nodes = (
(61,307,l),
(70,283,o),
(103,246,o),
(150,246,cs),
(197,246,o),
(210,307,o),
(266,307,cs),
(326,307,o),
(361,246,o),
(408,246,cs),
(453,246,o),
(484,303,o),
(548,303,cs),
(570,303,o),
(588,298,o),
(615,292,cs)
);
}
);
};
layerId = "FEF9FEFC-DD57-4356-917A-09E39F233F4B";
associatedMasterId = "3D7C3D5E-7EBF-4B0D-83EE-E00796F45C97";
name = 1;
shapes = (
{
closed = 1;
nodes = (
(618,264,o),
(623,269,o),
(623,276,cs),
(623,449,o),
(518,594,o),
(336,594,cs),
(178,594,o),
(50,465,o),
(50,307,cs),
(50,300,o),
(55,295,o),
(62,295,cs),
(69,295,o),
(74,300,o),
(74,307,cs),
(74,452,o),
(192,570,o),
(336,570,cs),
(481,570,o),
(599,438,o),
(599,276,cs),
(599,269,o),
(604,264,o),
(611,264,cs)
);
},
{
closed = 1;
nodes = (
(346,0,o),
(351,5,o),
(351,12,cs),
(351,279,ls),
(351,286,o),
(346,291,o),
(339,291,cs),
(333,291,o),
(327,286,o),
(327,279,cs),
(327,12,ls),
(327,5,o),
(333,0,o),
(339,0,cs)
);
},
{
closed = 1;
nodes = (
(157,235,o),
(163,240,o),
(163,247,cs),
(163,341,o),
(193,424,o),
(252,494,cs),
(296,546,o),
(341,570,o),
(342,571,c),
(348,574,o),
(350,581,o),
(347,587,cs),
(344,593,o),
(337,595,o),
(331,592,cs),
(329,591,o),
(282,565,o),
(235,510,cs),
(172,437,o),
(139,343,o),
(139,247,cs),
(139,240,o),
(144,235,o),
(151,235,cs)
);
},
{
closed = 1;
nodes = (
(525,293,l),
(531,294,o),
(536,300,o),
(535,306,cs),
(523,413,o),
(441,544,o),
(346,592,cs),
(340,595,o),
(333,593,o),
(330,587,cs),
(327,581,o),
(329,574,o),
(335,571,cs),
(427,525,o),
(500,402,o),
(512,304,c),
(512,298,o),
(518,293,o),
(524,293,c)
);
},
{
closed = 1;
nodes = (
(407,235,l),
(413,235,o),
(419,240,o),
(419,246,cs),
(419,364,o),
(399,480,o),
(347,587,cs),
(344,593,o),
(337,595,o),
(331,592,cs),
(325,589,o),
(323,582,o),
(326,576,cs),
(376,473,o),
(395,362,o),
(395,248,cs),
(395,241,o),
(400,235,o),
(406,235,c)
);
},
{
closed = 1;
nodes = (
(265,293,l),
(271,293,o),
(277,298,o),
(277,305,c),
(281,372,o),
(296,474,o),
(346,576,cs),
(349,582,o),
(346,589,o),
(340,592,cs),
(334,595,o),
(327,593,o),
(324,587,cs),
(273,481,o),
(257,376,o),
(253,306,c),
(253,299,o),
(258,294,o),
(264,293,c)
);
},
{
closed = 1;
nodes = (
(55,319,o),
(49,314,o),
(49,308,cs),
(49,269,o),
(117,234,o),
(150,234,cs),
(207,234,o),
(223,291,o),
(276,291,cs),
(355,291,o),
(340,234,o),
(408,234,cs),
(452,234,o),
(477,292,o),
(528,292,cs),
(557,292,o),
(585,276,o),
(607,265,cs),
(613,262,o),
(621,270,o),
(621,276,cs),
(621,283,o),
(620,285,o),
(612,290,cs),
(590,306,o),
(550,316,o),
(528,316,cs),
(472,316,o),
(440,258,o),
(408,258,cs),
(350,258,o),
(363,315,o),
(276,315,cs),
(212,315,o),
(192,258,o),
(150,258,cs),
(95,258,o),
(70,319,o),
(61,319,cs)
);
}
);
width = 673;
},
{
layerId = "3D7C3D5E-7EBF-4B0D-83EE-E00796F45C97";
shapes = (
{
closed = 1;
nodes = (
(618,264,o),
(623,269,o),
(623,276,cs),
(623,449,o),
(518,594,o),
(336,594,cs),
(180,594,o),
(53,468,o),
(50,312,c),
(49,311,o),
(49,310,o),
(49,308,c),
(49,269,o),
(117,234,o),
(150,234,cs),
(207,234,o),
(223,291,o),
(276,291,cs),
(300,291,o),
(315,285,o),
(327,278,c),
(327,12,ls),
(327,5,o),
(333,0,o),
(339,0,cs),
(346,0,o),
(351,5,o),
(351,12,cs),
(351,258,l),
(364,245,o),
(378,234,o),
(408,234,cs),
(452,234,o),
(477,292,o),
(528,292,cs),
(555,292,o),
(582,278,o),
(603,267,c),
(605,265,o),
(608,264,o),
(611,264,cs)
);
},
{
closed = 1;
nodes = (
(74,438,o),
(170,547,o),
(294,567,c),
(199,495,o),
(143,378,o),
(139,259,c),
(107,264,o),
(87,290,o),
(74,307,c)
);
},
{
closed = 1;
nodes = (
(521,404,o),
(462,506,o),
(389,564,c),
(502,538,o),
(589,430,o),
(598,298,c),
(578,308,o),
(552,315,o),
(534,316,c)
);
},
{
closed = 1;
nodes = (
(418,362,o),
(401,461,o),
(361,555,c),
(437,503,o),
(497,400,o),
(511,314,c),
(471,305,o),
(444,269,o),
(419,260,c)
);
},
{
closed = 1;
nodes = (
(283,377,o),
(296,464,o),
(336,554,c),
(377,461,o),
(394,361,o),
(395,259,c),
(352,267,o),
(356,314,o),
(278,315,c)
);
},
{
closed = 1;
nodes = (
(167,369,o),
(218,480,o),
(306,546,c),
(270,458,o),
(257,373,o),
(253,312,c),
(212,302,o),
(192,269,o),
(163,260,c)
);
}
);
width = 673;
}
);
unicode = 69;
},
{
glyphname = F;
layers = (
{
layerId = "3D7C3D5E-7EBF-4B0D-83EE-E00796F45C97";
shapes = (
{
closed = 1;
nodes = (
(333,338,o),
(299,338,o),
(270,331,c),
(272,333,o),
(273,336,o),
(275,339,cs),
(304,396,o),
(319,438,o),
(319,503,cs),
(319,577,o),
(261,649,o),
(184,649,cs),
(110,649,o),
(50,588,o),
(50,513,cs),
(50,469,o),
(78,411,o),
(130,411,c),
(134,411,o),
(138,413,o),
(140,416,cs),
(143,419,o),
(143,423,o),
(142,427,cs),
(136,446,o),
(123,500,o),
(139,526,cs),
(144,534,o),
(152,538,o),
(162,540,cs),
(176,542,o),
(186,536,o),
(191,530,c),
(203,519,o),
(210,501,o),
(209,482,cs),
(205,432,o),
(187,404,o),
(159,364,cs),
(128,322,o),
(93,273,o),
(93,170,cs),
(93,50,o),
(259,0,o),
(355,0,cs),
(452,0,o),
(618,48,o),
(618,169,cs),
(618,302,o),
(460,338,o),
(355,338,cs)
);
},
{
closed = 1;
nodes = (
(274,24,o),
(117,67,o),
(117,172,cs),
(117,266,o),
(148,309,o),
(178,350,cs),
(203,384,o),
(228,419,o),
(233,480,c),
(234,506,o),
(225,532,o),
(208,548,cs),
(194,561,o),
(177,566,o),
(158,564,c),
(132,559,o),
(116,540,o),
(110,516,c),
(74,523,l),
(79,580,o),
(127,625,o),
(184,625,cs),
(243,625,o),
(295,568,o),
(295,503,cs),
(295,431,o),
(274,390,o),
(253,350,cs),
(229,302,o),
(214,265,o),
(214,211,c),
(214,171,o),
(319,167,o),
(345,167,cs),
(371,167,o),
(476,172,o),
(476,211,cs),
(476,252,o),
(372,256,o),
(345,256,cs),
(312,256,o),
(281,252,o),
(257,246,cs),
(239,240,l),
(242,263,o),
(248,282,o),
(256,300,c),
(257,300,l),
(284,314,o),
(329,314,o),
(355,314,cs),
(444,314,o),
(594,285,o),
(594,169,cs),
(594,64,o),
(437,24,o),
(355,24,cs)
);
},
{
closed = 1;
nodes = (
(255,228,o),
(322,232,o),
(345,232,cs),
(363,232,o),
(440,227,o),
(451,211,c),
(435,195,o),
(366,191,o),
(345,191,cs),
(316,191,o),
(263,195,o),
(238,211,c)
);
},
{
closed = 1;
nodes = (
(158,605,o),
(152,599,o),
(152,591,cs),
(152,584,o),
(158,577,o),
(166,577,cs),
(174,577,o),
(180,584,o),
(180,591,cs),
(180,599,o),
(174,605,o),
(166,605,cs)
);
}
);
width = 668;
}
);
unicode = 70;
},
{
glyphname = G;
layers = (
{
layerId = "3D7C3D5E-7EBF-4B0D-83EE-E00796F45C97";
shapes = (
{
closed = 1;
nodes = (
(175,560,o),
(50,435,o),
(50,280,cs),
(50,125,o),
(175,0,o),
(330,0,cs),
(485,0,o),
(610,125,o),
(610,280,cs),
(610,435,o),
(485,560,o),
(330,560,cs)
);
},
{
closed = 1;
nodes = (
(499,333,l),
(499,424,ls),
(499,449,o),
(479,468,o),
(455,468,cs),
(361,468,ls),
(337,468,o),
(318,449,o),
(318,424,cs),
(318,419,l),
(172,481,l),
(216,516,o),
(270,536,o),
(330,536,cs),
(466,536,o),
(577,430,o),
(585,296,c)
);
},
{
closed = 1;
nodes = (
(189,24,o),
(74,139,o),
(74,280,cs),
(74,352,o),
(104,417,o),
(152,464,c),
(153,464,o),
(153,463,o),
(154,463,c),
(318,393,l),
(318,333,ls),
(318,307,o),
(338,287,o),
(364,287,cs),
(453,287,ls),
(470,287,o),
(485,296,o),
(493,310,c),
(586,270,l),
(581,134,o),
(468,24,o),
(330,24,cs)
);
},
{
closed = 1;
nodes = (
(179,245,ls),
(173,245,o),
(167,240,o),
(167,233,cs),
(167,144,o),
(240,71,o),
(330,71,cs),
(420,71,o),
(493,144,o),
(493,233,cs),
(493,240,o),
(487,245,o),
(481,245,cs)
);
},
{
closed = 1;
nodes = (
(258,95,o),
(198,151,o),
(192,221,c),
(468,221,l),
(462,151,o),
(402,95,o),
(330,95,cs)
);
},
{
closed = 1;
nodes = (
(277,353,ls),
(284,353,o),
(289,358,o),
(289,365,cs),
(289,371,o),
(284,377,o),
(277,377,cs),
(179,377,ls),
(173,377,o),
(167,371,o),
(167,365,cs),
(167,358,o),
(173,353,o),
(179,353,cs)
);
}
);
width = 660;
}
);
unicode = 71;
},
{
glyphname = H;
layers = (
{
layerId = "3D7C3D5E-7EBF-4B0D-83EE-E00796F45C97";
shapes = (
{
closed = 1;
nodes = (
(288,403,o),
(295,428,o),
(303,451,cs),
(310,469,o),
(317,488,o),
(317,515,cs),
(317,581,o),
(264,630,o),
(195,630,cs),
(81,630,o),
(50,501,o),
(50,410,cs),
(50,389,ls),
(50,300,o),
(98,129,o),
(211,129,cs),
(272,129,o),
(322,178,o),
(322,239,cs),
(322,258,o),
(315,276,o),
(308,293,cs),
(295,323,o),
(288,346,o),
(288,379,cs)
);
},
{
closed = 1;
nodes = (
(251,606,o),
(293,567,o),
(293,515,cs),
(293,494,o),
(288,479,o),
(281,460,cs),
(278,452,o),
(275,445,o),
(273,436,c),
(248,454,o),
(199,495,o),
(199,544,cs),
(199,551,o),
(193,556,o),
(187,556,cs),
(180,556,o),
(175,551,o),
(175,544,cs),
(175,509,o),
(105,428,o),
(74,407,c),
(74,410,l),
(74,486,o),
(97,606,o),
(195,606,cs)
);
},
{
closed = 1;
nodes = (
(117,153,o),
(80,310,o),
(75,381,c),
(111,397,o),
(166,464,o),
(184,500,c),
(204,455,o),
(249,423,o),
(267,411,c),
(265,402,o),
(264,391,o),
(264,379,cs),
(264,343,o),
(271,317,o),
(285,284,cs),
(295,260,o),
(298,251,o),
(298,239,cs),
(298,192,o),
(259,153,o),
(211,153,cs)
);
},
{
closed = 1;
nodes = (
(653,281,ls),
(653,372,o),
(622,501,o),
(508,501,cs),
(439,501,o),
(386,452,o),
(386,386,cs),
(386,359,o),
(393,340,o),
(400,322,cs),
(410,302,o),
(415,274,o),
(415,251,cs),
(415,209,o),
(405,185,o),
(396,164,cs),
(388,147,o),
(382,131,o),
(382,110,cs),
(382,49,o),
(431,0,o),
(492,0,cs),
(605,0,o),
(653,168,o),
(653,256,cs)
);
},
{
closed = 1;
nodes = (
(606,477,o),
(629,358,o),
(629,281,c),
(629,279,l),
(598,300,o),
(529,379,o),
(529,415,cs),
(529,422,o),
(523,427,o),
(517,427,cs),
(510,427,o),
(505,422,o),
(505,415,cs),
(505,366,o),
(455,325,o),
(431,307,c),
(428,316,o),
(425,323,o),
(423,331,c),
(416,348,o),
(410,363,o),
(410,386,cs),
(410,438,o),
(452,477,o),
(508,477,cs)
);
},
{
closed = 1;
nodes = (
(444,24,o),
(406,63,o),
(406,110,cs),
(406,126,o),
(411,139,o),
(418,155,cs),
(432,189,o),
(439,214,o),
(439,251,cs),
(439,262,o),
(438,273,o),
(436,282,c),
(454,294,o),
(499,326,o),
(519,371,c),
(538,334,o),
(592,268,o),
(628,252,c),
(624,180,o),
(587,24,o),
(492,24,cs)
);
}
);
width = 703;
}
);
unicode = 72;
},
{
glyphname = I;
layers = (
{
layerId = "3D7C3D5E-7EBF-4B0D-83EE-E00796F45C97";
shapes = (
{
closed = 1;
nodes = (
(506,409,o),
(502,409,o),
(497,408,c),
(514,437,o),
(555,468,o),
(572,479,c),
(577,481,o),
(579,486,o),
(578,491,cs),
(577,496,o),
(573,500,o),
(568,501,cs),
(505,512,o),
(452,501,o),
(410,467,cs),
(401,460,o),
(393,452,o),
(385,443,c),
(379,534,o),
(344,593,o),
(342,596,cs),
(340,600,o),
(336,602,o),
(331,602,cs),
(327,602,o),
(323,600,o),
(321,596,cs),
(319,593,o),
(284,534,o),
(277,443,c),
(270,452,o),
(261,460,o),
(253,467,cs),
(211,501,o),
(158,512,o),
(95,501,cs),
(90,500,o),
(86,496,o),
(85,491,cs),
(84,486,o),
(86,481,o),
(90,479,cs),
(107,468,o),
(149,437,o),
(166,408,c),
(161,409,o),
(156,409,o),
(152,409,cs),
(109,409,o),
(84,391,o),
(70,377,c),
(56,361,o),
(51,345,o),
(51,343,c),
(50,340,o),
(51,336,o),
(53,333,cs),
(55,330,o),
(59,328,o),
(63,328,cs),
(135,328,o),
(200,289,o),
(217,252,c),
(104,252,ls),
(98,252,o),
(92,247,o),
(92,240,cs),
(92,107,o),
(199,0,o),
(332,0,cs),
(465,0,o),
(572,107,o),
(572,240,cs),
(572,247,o),
(567,252,o),
(560,252,cs),
(446,252,l),
(463,289,o),
(528,328,o),
(600,328,cs),
(604,328,o),
(607,330,o),
(610,333,cs),
(612,336,o),
(613,340,o),
(612,343,cs),
(590,387,o),
(565,409,o),
(511,409,cs)
);
},
{
closed = 1;
nodes = (
(454,472,o),
(491,483,o),
(534,481,c),
(511,463,o),
(479,433,o),
(469,404,c),
(420,391,o),
(377,358,o),
(352,313,c),
(361,356,o),
(381,413,o),
(425,449,cs)
);
},
{
closed = 1;
nodes = (
(344,537,o),
(363,482,o),
(362,410,c),
(350,389,o),
(340,364,o),
(333,337,cs),
(332,335,o),
(332,333,o),
(331,331,c),
(331,333,o),
(330,335,o),
(330,337,c),
(322,364,o),
(312,389,o),
(300,410,c),
(299,481,o),
(319,537,o),
(331,564,c)
);
},
{
closed = 1;
nodes = (
(172,483,o),
(208,472,o),
(237,449,cs),
(281,414,o),
(301,356,o),
(311,314,c),
(283,358,o),
(245,390,o),
(194,404,c),
(184,433,o),
(152,463,o),
(129,481,c)
);
},
{
closed = 1;
nodes = (
(90,365,o),
(110,385,o),
(152,385,cs),
(253,385,o),
(298,296,o),
(314,252,c),
(242,252,l),
(224,314,o),
(139,346,o),
(81,351,c)
);
},
{
closed = 1;
nodes = (
(217,24,o),
(123,114,o),
(117,228,c),
(548,228,l),
(542,114,o),
(447,24,o),
(332,24,cs)
);
},
{
closed = 1;
nodes = (
(348,252,l),
(364,296,o),
(410,385,o),
(511,385,cs),
(552,385,o),
(573,365,o),
(582,351,c),
(522,346,o),
(441,314,o),
(420,252,c)
);
}
);
width = 663;
}
);
unicode = 73;
},
{
glyphname = J;
layers = (
{
layerId = "3D7C3D5E-7EBF-4B0D-83EE-E00796F45C97";
shapes = (
{
closed = 1;
nodes = (
(313,268,o),
(245,417,o),
(245,496,c),
(245,497,l),
(245,503,o),
(240,509,o),
(233,509,cs),
(227,509,o),
(221,503,o),
(221,497,cs),
(221,418,o),
(155,269,o),
(62,269,cs),
(55,269,o),
(50,264,o),
(50,257,c),
(50,256,l),
(50,250,o),
(55,244,o),
(62,244,cs),
(148,244,o),
(221,102,o),
(221,13,c),
(221,12,l),
(221,5,o),
(227,0,o),
(233,0,cs),
(240,0,o),
(245,5,o),
(245,12,cs),
(245,101,o),
(318,244,o),
(405,244,cs),
(411,244,o),
(417,249,o),
(417,256,c),
(417,263,o),
(411,268,o),
(405,268,cs)
);
},
{
closed = 1;
nodes = (
(215,151,o),
(172,226,o),
(111,257,c),
(172,285,o),
(214,360,o),
(233,422,c),
(252,359,o),
(294,285,o),
(355,256,c),
(295,227,o),
(251,149,o),
(233,87,c)
);
},
{
closed = 1;
nodes = (
(452,539,o),
(428,611,o),
(428,673,c),
(428,674,l),
(428,681,o),
(422,686,o),
(416,686,cs),
(409,686,o),
(404,681,o),
(404,674,cs),
(404,611,o),
(378,540,o),
(305,540,cs),
(298,540,o),
(293,534,o),
(293,528,c),
(293,527,l),
(293,521,o),
(298,515,o),
(305,515,cs),
(391,515,o),
(404,441,o),
(404,397,c),
(404,390,o),
(409,385,o),
(416,385,cs),
(422,385,o),
(428,390,o),
(428,397,cs),
(428,441,o),
(440,515,o),
(526,515,cs),
(533,515,o),
(538,520,o),
(538,527,c),
(538,534,o),
(533,539,o),
(526,539,cs)
);
},
{
closed = 1;
nodes = (
(404,495,o),
(386,517,o),
(359,529,c),
(375,537,o),
(388,549,o),
(399,566,c),
(406,575,o),
(411,587,o),
(416,599,c),
(420,587,o),
(426,575,o),
(432,565,cs),
(443,549,o),
(457,537,o),
(472,528,c),
(446,516,o),
(426,495,o),
(416,468,c)
);
}
);
width = 588;
}
);
unicode = 74;
},
{
glyphname = U;
layers = (
{
layerId = "3D7C3D5E-7EBF-4B0D-83EE-E00796F45C97";
shapes = (
{
closed = 1;
nodes = (
(175,560,o),
(50,435,o),
(50,280,cs),
(50,125,o),
(175,0,o),
(330,0,cs),
(485,0,o),
(610,125,o),
(610,280,cs),
(610,435,o),
(485,560,o),
(330,560,cs)
);
},
{
closed = 1;
nodes = (
(189,24,o),
(74,139,o),
(74,280,cs),
(74,421,o),
(189,536,o),
(330,536,cs),
(471,536,o),
(586,421,o),
(586,280,cs),
(586,139,o),
(471,24,o),
(330,24,cs)
);
},
{
closed = 1;
nodes = (
(462,316,o),
(488,342,o),
(488,375,cs),
(488,407,o),
(462,433,o),
(430,433,cs),
(397,433,o),
(371,407,o),
(371,375,cs),
(371,342,o),
(397,316,o),
(430,316,cs)
);
},
{
closed = 1;
nodes = (
(449,409,o),
(464,394,o),
(464,375,cs),
(464,356,o),
(449,340,o),
(430,340,cs),
(411,340,o),
(395,356,o),
(395,375,cs),
(395,394,o),
(411,409,o),
(430,409,cs)
);
},
{
closed = 1;
nodes = (
(281,363,ls),
(288,363,o),
(293,368,o),
(293,375,cs),
(293,381,o),
(288,387,o),
(281,387,cs),
(184,387,ls),
(177,387,o),
(172,381,o),
(172,375,cs),
(172,368,o),
(177,363,o),
(184,363,cs)
);
},
{
closed = 1;
nodes = (
(179,246,ls),
(173,246,o),
(167,240,o),
(167,234,cs),
(167,144,o),
(240,71,o),
(330,71,cs),
(420,71,o),
(493,144,o),
(493,234,cs),
(493,240,o),
(487,246,o),
(481,246,cs)
);
},
{
closed = 1;
nodes = (
(258,95,o),
(198,151,o),
(192,222,c),
(468,222,l),
(462,151,o),
(402,95,o),
(330,95,cs)
);
}
);
width = 660;
}
);
unicode = 85;
},
{
glyphname = V;
layers = (
{
layerId = "3D7C3D5E-7EBF-4B0D-83EE-E00796F45C97";
shapes = (
{
closed = 1;
nodes = (
(349,325,o),
(334,317,o),
(324,304,c),
(314,317,o),
(299,325,o),
(281,325,cs),
(251,325,o),
(227,300,o),
(227,270,cs),
(227,198,o),
(317,168,o),
(321,167,c),
(329,167,l),
(332,168,o),
(421,198,o),
(421,270,cs),
(421,300,o),
(397,325,o),
(367,325,cs)
);
},
{
closed = 1;
nodes = (
(310,197,o),
(251,222,o),
(251,270,cs),
(251,287,o),
(265,301,o),
(281,301,cs),
(298,301,o),
(312,287,o),
(312,270,cs),
(312,263,o),
(317,258,o),
(324,258,c),
(331,258,o),
(336,263,o),
(336,270,cs),
(336,287,o),
(350,301,o),
(367,301,cs),
(384,301,o),
(397,287,o),
(397,270,cs),
(397,222,o),
(340,197,o),
(325,191,c)
);
},
{
closed = 1;
nodes = (
(619,422,o),
(612,422,o),
(607,416,cs),
(549,346,l),
(548,346,l),
(532,360,o),
(514,372,o),
(496,382,c),
(548,482,ls),
(551,488,o),
(549,495,o),
(543,499,cs),
(537,502,o),
(530,499,o),
(527,493,cs),
(475,394,l),
(469,397,o),
(462,400,o),
(456,402,cs),
(445,407,o),
(433,411,o),
(421,414,c),
(453,534,l),
(454,541,o),
(451,547,o),
(444,549,cs),
(438,551,o),
(431,547,o),
(430,540,c),
(398,420,l),
(378,424,o),
(358,427,o),
(337,428,c),
(337,557,ls),
(337,563,o),
(332,569,o),
(325,569,cs),
(318,569,o),
(313,563,o),
(313,557,cs),
(313,428,l),
(292,427,o),
(271,424,o),
(251,420,c),
(251,422,l),
(219,542,ls),
(217,549,o),
(211,553,o),
(204,551,cs),
(198,549,o),
(194,543,o),
(196,536,cs),
(228,416,l),
(228,414,l),
(216,411,o),
(204,407,o),
(192,402,cs),
(186,399,o),
(180,397,o),
(174,394,c),
(122,496,l),
(118,501,o),
(111,504,o),
(105,501,cs),
(99,498,o),
(97,490,o),
(100,485,cs),
(153,383,l),
(135,372,o),
(117,360,o),
(101,347,c),
(41,419,ls),
(37,424,o),
(30,424,o),
(24,420,cs),
(19,416,o),
(19,408,o),
(23,403,cs),
(83,331,l),
(49,300,o),
(30,272,o),
(25,264,cs),
(23,262,o),
(22,259,o),
(22,256,c),
(22,253,o),
(23,251,o),
(25,249,c),
(83,144,o),
(201,63,o),
(324,63,cs),
(445,63,o),
(567,145,o),
(620,252,c),
(621,253,o),
(622,256,o),
(622,258,c),
(622,259,l),
(622,262,o),
(621,264,o),
(619,266,c),
(615,274,o),
(597,300,o),
(567,329,c),
(626,401,ls),
(630,406,o),
(629,414,o),
(624,418,cs)
);
},
{
closed = 1;
nodes = (
(229,86,o),
(166,163,o),
(166,246,cs),
(166,332,o),
(236,403,o),
(323,404,c),
(324,404,l),
(411,404,o),
(482,333,o),
(482,246,cs),
(482,143,o),
(408,86,o),
(310,86,cs)
);
},
{
closed = 1;
nodes = (
(89,311,o),
(136,352,o),
(200,379,c),
(164,346,o),
(142,298,o),
(142,246,cs),
(142,195,o),
(163,149,o),
(196,116,c),
(139,144,o),
(79,201,o),
(48,256,c)
);
},
{
closed = 1;
nodes = (
(566,206,o),
(512,149,o),
(457,122,c),
(488,154,o),
(506,198,o),
(506,246,cs),
(506,299,o),
(483,347,o),
(446,380,c),
(506,357,o),
(560,312,o),
(596,258,c)
);
},
{
closed = 1;
nodes = (
(364,282,o),
(360,277,o),
(360,271,c),
(360,266,o),
(365,261,o),
(370,261,c),
(376,261,o),
(381,265,o),
(381,271,c),
(381,277,o),
(376,282,o),
(370,282,c)
);
}
);
width = 700;
}
);
unicode = 86;
},
{
glyphname = W;
layers = (
{
guides = (
{
angle = 90;
position = "{406, 0}";
}
);
layerId = "3D7C3D5E-7EBF-4B0D-83EE-E00796F45C97";
shapes = (
{
closed = 1;
nodes = (
(486,320,l),
(489,324,o),
(490,329,o),
(488,333,c),
(487,338,o),
(482,341,o),
(477,341,cs),
(336,341,ls),
(331,341,o),
(327,338,o),
(325,333,cs),
(323,329,o),
(324,323,o),
(328,320,cs),
(396,255,l),
(394,224,o),
(368,199,o),
(336,199,cs),
(303,199,o),
(276,226,o),
(276,259,cs),
(276,266,o),
(271,271,o),
(264,271,cs),
(257,271,o),
(252,266,o),
(252,259,cs),
(252,213,o),
(290,175,o),
(336,175,cs),
(366,175,o),
(393,192,o),
(408,216,c),
(423,192,o),
(449,175,o),
(480,175,cs),
(526,175,o),
(564,213,o),
(564,259,cs),
(564,266,o),
(559,271,o),
(552,271,cs),
(545,271,o),
(540,266,o),
(540,259,cs),
(540,226,o),
(513,199,o),
(480,199,cs),
(448,199,o),
(422,225,o),
(420,256,c)
);
},
{
closed = 1;
nodes = (
(448,317,l),
(408,277,l),
(366,317,l)
);
},
{
closed = 1;
nodes = (
(757,335,o),
(751,341,o),
(745,341,cs),
(680,341,l),
(673,373,o),
(660,403,o),
(642,431,c),
(682,465,ls),
(687,470,o),
(688,477,o),
(684,482,cs),
(679,487,o),
(672,488,o),
(667,484,cs),
(628,451,l),
(616,466,l),
(616,620,ls),
(616,625,o),
(613,629,o),
(609,631,cs),
(606,633,o),
(601,633,o),
(597,630,cs),
(473,552,l),
(451,557,o),
(429,560,o),
(406,560,cs),
(385,560,o),
(364,558,o),
(343,553,c),
(220,630,ls),
(216,633,o),
(212,633,o),
(208,631,cs),
(204,629,o),
(202,625,o),
(202,620,cs),
(202,471,l),
(195,463,o),
(188,456,o),
(182,448,c),
(141,484,ls),
(136,488,o),
(128,487,o),
(124,482,cs),
(120,477,o),
(120,470,o),
(125,465,cs),
(169,428,l),
(152,401,o),
(140,372,o),
(133,341,c),
(63,341,ls),
(56,341,o),
(51,335,o),
(51,329,cs),
(51,322,o),
(56,317,o),
(63,317,cs),
(129,317,l),
(127,305,o),
(126,292,o),
(126,280,cs),
(126,270,o),
(127,259,o),
(128,249,c),
(66,221,ls),
(60,218,o),
(57,211,o),
(60,205,cs),
(62,201,o),
(66,198,o),
(71,198,c),
(73,198,o),
(74,198,o),
(76,199,cs),
(132,225,l),
(159,94,o),
(272,0,o),
(406,0,cs),
(538,0,o),
(653,93,o),
(680,222,c),
(732,199,l),
(733,198,o),
(735,198,o),
(737,198,c),
(741,198,o),
(745,201,o),
(747,205,cs),
(750,211,o),
(748,218,o),
(741,221,cs),
(684,247,l),
(686,258,o),
(686,269,o),
(686,280,cs),
(686,292,o),
(686,305,o),
(684,317,c),
(745,317,ls),
(751,317,o),
(757,322,o),
(757,329,cs)
);
},
{
closed = 1;
nodes = (
(537,341,l),
(624,415,l),
(638,393,o),
(649,367,o),
(655,341,c)
);
},
{
closed = 1;
nodes = (
(592,599,l),
(592,490,l),
(565,513,o),
(535,531,o),
(503,543,c)
);
},
{
closed = 1;
nodes = (
(313,544,l),
(281,533,o),
(252,516,o),
(226,494,c),
(226,599,l)
);
},
{
closed = 1;
nodes = (
(270,342,l),
(271,341,o),
(272,341,o),
(273,341,c),
(158,341,l),
(164,366,o),
(174,390,o),
(187,412,c)
);
},
{
closed = 1;
nodes = (
(662,272,o),
(662,265,o),
(661,257,c),
(534,315,ls),
(528,318,o),
(521,315,o),
(519,309,cs),
(516,303,o),
(518,296,o),
(524,293,cs),
(658,233,l),
(636,114,o),
(531,24,o),
(406,24,cs),
(281,24,o),
(176,115,o),
(154,235,c),
(283,293,ls),
(289,296,o),
(292,303,o),
(289,309,cs),
(286,315,o),
(279,318,o),
(273,315,cs),
(151,260,l),
(151,266,o),
(150,273,o),
(150,280,cs),
(150,292,o),
(151,305,o),
(153,317,c),
(278,317,ls),
(285,317,o),
(290,322,o),
(290,329,cs),
(290,334,o),
(287,338,o),
(282,340,c),
(284,341,o),
(286,342,o),
(287,344,cs),
(291,349,o),
(291,356,o),
(286,360,cs),
(201,432,l),
(248,495,o),
(322,536,o),
(406,536,cs),
(489,536,o),
(563,496,o),
(610,435,c),
(522,360,ls),
(517,356,o),
(516,349,o),
(520,344,cs),
(522,342,o),
(524,341,o),
(526,340,c),
(521,338,o),
(517,334,o),
(517,329,cs),
(517,322,o),
(523,317,o),
(529,317,cs),
(660,317,l),
(662,305,o),
(662,292,o),
(662,280,cs)
);
},
{
closed = 1;
nodes = (
(347,389,o),
(375,406,o),
(379,432,cs),
(380,438,o),
(377,445,o),
(371,446,cs),
(364,448,o),
(358,444,o),
(356,438,c),
(355,435,o),
(343,413,o),
(319,413,cs),
(295,413,o),
(283,435,o),
(282,438,c),
(280,444,o),
(274,448,o),
(267,446,cs),
(261,445,o),
(258,438,o),
(259,432,cs),
(263,406,o),
(291,389,o),
(319,389,cs)
);
},
{
closed = 1;
nodes = (
(519,389,o),
(547,406,o),
(551,432,cs),
(552,438,o),
(549,445,o),
(543,446,cs),
(536,448,o),
(530,444,o),
(528,438,c),
(527,435,o),
(515,413,o),
(491,413,cs),
(467,413,o),
(455,435,o),
(454,438,c),
(452,444,o),
(446,448,o),
(439,446,cs),
(433,445,o),
(430,438,o),
(431,432,cs),
(435,406,o),
(463,389,o),
(491,389,cs)
);
}
);
width = 1030;
}
);
unicode = 87;
},
{
glyphname = X;
layers = (
{
layerId = "3D7C3D5E-7EBF-4B0D-83EE-E00796F45C97";
shapes = (
{
closed = 1;
nodes = (
(521,383,o),
(518,383,o),
(515,382,c),
(287,318,l),
(405,520,l),
(406,523,o),
(407,526,o),
(406,529,cs),
(405,532,o),
(403,535,o),
(400,536,c),
(380,548,o),
(354,544,o),
(325,525,cs),
(271,489,o),
(226,414,o),
(222,349,cs),
(221,331,o),
(223,315,o),
(229,302,c),
(133,276,l),
(141,294,o),
(140,316,o),
(130,336,c),
(121,351,o),
(106,363,o),
(89,368,cs),
(71,373,o),
(53,371,o),
(37,362,cs),
(21,353,o),
(10,338,o),
(5,321,cs),
(0,304,o),
(2,285,o),
(11,269,cs),
(23,249,o),
(46,234,o),
(70,234,cs),
(81,234,o),
(92,237,o),
(102,242,c),
(236,279,l),
(165,156,l),
(153,143,o),
(147,126,o),
(147,109,cs),
(147,72,o),
(179,42,o),
(215,42,c),
(216,42,l),
(254,44,o),
(283,72,o),
(283,111,cs),
(283,149,o),
(251,178,o),
(214,178,cs),
(211,178,o),
(208,178,o),
(205,177,c),
(258,269,l),
(279,250,o),
(310,245,o),
(338,245,cs),
(392,245,o),
(461,268,o),
(500,304,cs),
(525,327,o),
(535,351,o),
(530,374,cs),
(529,377,o),
(527,379,o),
(524,381,cs)
);
},
{
closed = 1;
nodes = (
(251,409,o),
(309,512,o),
(374,519,c),
(253,309,l),
(252,309,l),
(247,318,o),
(245,331,o),
(246,348,cs)
);
},
{
closed = 1;
nodes = (
(47,263,o),
(38,271,o),
(32,281,cs),
(20,302,o),
(28,329,o),
(49,341,cs),
(56,345,o),
(63,346,o),
(70,346,cs),
(86,346,o),
(101,338,o),
(109,324,cs),
(121,303,o),
(113,276,o),
(92,264,c),
(82,258,o),
(70,257,o),
(58,260,cs)
);
},
{
closed = 1;
nodes = (
(226,154,o),
(237,150,o),
(246,142,cs),
(254,134,o),
(259,123,o),
(259,111,cs),
(259,99,o),
(255,88,o),
(247,80,cs),
(239,71,o),
(228,66,o),
(216,66,cs),
(192,66,o),
(171,85,o),
(171,109,cs),
(171,121,o),
(175,132,o),
(183,141,cs),
(191,149,o),
(202,154,o),
(214,154,cs)
);
},
{
closed = 1;
nodes = (
(368,269,o),
(335,267,o),
(308,272,cs),
(291,275,o),
(279,281,o),
(271,289,c),
(506,353,l),
(495,315,o),
(435,288,o),
(401,279,cs)
);
}
);
width = 686;
}
);
unicode = 88;
},
{
glyphname = Y;
layers = (
{
layerId = "3D7C3D5E-7EBF-4B0D-83EE-E00796F45C97";
shapes = (
{
closed = 1;
nodes = (
(422,407,l),
(415,419,o),
(399,432,o),
(390,437,c),
(380,445,o),
(352,462,o),
(325,462,cs),
(275,462,o),
(229,413,o),
(194,370,cs),
(192,368,o),
(192,365,o),
(192,363,c),
(192,137,ls),
(192,130,o),
(197,123,o),
(203,123,c),
(429,123,l),
(454,123,o),
(474,143,o),
(474,167,cs),
(474,176,o),
(472,183,o),
(468,190,c),
(486,195,o),
(500,212,o),
(500,233,cs),
(500,241,o),
(497,249,o),
(493,255,c),
(511,261,o),
(524,278,o),
(524,298,cs),
(524,305,o),
(522,312,o),
(519,318,c),
(597,318,ls),
(621,318,o),
(641,338,o),
(641,363,cs),
(641,387,o),
(621,407,o),
(597,407,cs)
);
},
{
closed = 1;
nodes = (
(411,342,ls),
(404,342,o),
(399,337,o),
(399,330,cs),
(399,323,o),
(404,318,o),
(411,318,cs),
(480,318,ls),
(491,318,o),
(500,309,o),
(500,298,cs),
(500,286,o),
(491,277,o),
(480,277,cs),
(414,277,ls),
(408,277,o),
(402,272,o),
(402,265,cs),
(402,258,o),
(408,253,o),
(414,253,cs),
(455,253,ls),
(467,253,o),
(476,244,o),
(476,233,cs),
(476,221,o),
(467,212,o),
(455,212,cs),
(418,212,ls),
(412,212,o),
(406,207,o),
(406,200,cs),
(406,193,o),
(412,188,o),
(418,188,cs),
(429,188,ls),
(441,188,o),
(450,179,o),
(450,167,cs),
(450,156,o),
(441,147,o),
(429,147,c),
(215,147,l),
(215,358,l),
(236,383,o),
(282,438,o),
(325,438,cs),
(344,438,o),
(376,421,o),
(390,407,c),
(356,407,ls),
(350,407,o),
(344,402,o),
(344,395,cs),
(344,388,o),
(350,383,o),
(356,383,cs),
(597,383,ls),
(608,383,o),
(617,374,o),
(617,363,cs),
(617,351,o),
(608,342,o),
(597,342,cs)
);
},
{
closed = 1;
nodes = (
(148,371,o),
(143,366,o),
(143,359,cs),
(143,137,ls),
(143,130,o),
(148,125,o),
(155,125,cs),
(161,125,o),
(167,130,o),
(167,137,cs),
(167,359,ls),
(167,366,o),
(161,371,o),
(155,371,cs)
);
}
);
width = 666;
}
);
unicode = 89;
},
{
glyphname = Z;
layers = (
{
layerId = "3D7C3D5E-7EBF-4B0D-83EE-E00796F45C97";
shapes = (
{
closed = 1;
nodes = (
(468,415,o),
(456,448,o),
(456,479,c),
(456,485,o),
(451,490,o),
(445,490,cs),
(439,490,o),
(434,485,o),
(434,479,cs),
(434,448,o),
(422,416,o),
(388,416,cs),
(382,416,o),
(377,411,o),
(377,404,c),
(377,398,o),
(382,393,o),
(388,393,cs),
(426,393,o),
(434,363,o),
(434,338,c),
(434,331,o),
(439,326,o),
(445,326,cs),
(451,326,o),
(456,331,o),
(456,338,cs),
(456,363,o),
(464,393,o),
(501,393,cs),
(508,393,o),
(513,398,o),
(513,404,c),
(513,410,o),
(508,415,o),
(501,415,cs)
);
},
{
closed = 1;
nodes = (
(440,394,o),
(434,400,o),
(426,405,c),
(430,409,o),
(433,412,o),
(441,421,cs),
(442,423,o),
(444,426,o),
(445,428,c),
(446,426,o),
(448,423,o),
(449,421,cs),
(453,414,o),
(458,409,o),
(464,405,c),
(456,400,o),
(450,394,o),
(445,385,c)
);
},
{
closed = 1;
nodes = (
(293,547,o),
(301,517,o),
(301,492,c),
(301,486,o),
(306,481,o),
(312,481,cs),
(318,481,o),
(323,486,o),
(323,492,cs),
(323,517,o),
(331,547,o),
(369,547,cs),
(375,547,o),
(380,552,o),
(380,558,c),
(380,559,l),
(380,565,o),
(375,570,o),
(369,570,cs),
(335,570,o),
(323,603,o),
(323,633,c),
(323,640,o),
(318,645,o),
(312,645,cs),
(306,645,o),
(301,640,o),
(301,633,cs),
(301,603,o),
(289,570,o),
(256,570,cs),
(249,570,o),
(244,565,o),
(244,559,c),
(244,552,o),
(249,547,o),
(256,547,cs)
);
},
{
closed = 1;
nodes = (
(309,578,o),
(311,580,o),
(312,582,c),
(313,580,o),
(315,577,o),
(317,575,cs),
(321,569,o),
(326,564,o),
(331,559,c),
(323,555,o),
(317,548,o),
(312,540,c),
(307,548,o),
(301,555,o),
(293,560,c),
(299,564,o),
(304,569,o),
(308,575,c)
);
},
{
closed = 1;
nodes = (
(151,331,o),
(156,326,o),
(162,326,cs),
(168,326,o),
(173,331,o),
(173,338,cs),
(173,363,o),
(181,393,o),
(218,393,cs),
(224,393,o),
(230,398,o),
(230,404,c),
(230,410,o),
(224,415,o),
(218,415,cs),
(185,415,o),
(173,448,o),
(173,479,c),
(173,485,o),
(168,490,o),
(162,490,cs),
(156,490,o),
(151,485,o),
(151,479,cs),
(151,448,o),
(139,416,o),
(105,416,cs),
(99,416,o),
(94,411,o),
(94,404,c),
(94,398,o),
(99,393,o),
(105,393,cs),
(143,393,o),
(151,363,o),
(151,338,c)
);
},
{
closed = 1;
nodes = (
(148,410,o),
(153,415,o),
(157,421,cs),
(159,423,o),
(160,426,o),
(162,428,c),
(163,426,o),
(164,423,o),
(166,421,cs),
(170,414,o),
(175,409,o),
(181,405,c),
(173,400,o),
(167,394,o),
(162,385,c),
(157,394,o),
(151,400,o),
(143,405,c)
);
},
{
closed = 1;
nodes = (
(467,264,o),
(447,284,o),
(422,284,cs),
(336,284,l),
(345,314,o),
(349,351,o),
(349,394,cs),
(349,417,o),
(330,436,o),
(307,436,cs),
(284,436,o),
(265,417,o),
(265,394,cs),
(265,370,o),
(260,252,o),
(159,252,cs),
(152,252,o),
(147,246,o),
(147,240,cs),
(147,14,ls),
(147,8,o),
(152,0,o),
(159,0,c),
(422,0,l),
(447,0,o),
(467,20,o),
(467,45,cs),
(467,57,o),
(461,69,o),
(453,77,c),
(461,85,o),
(467,97,o),
(467,110,cs),
(467,122,o),
(461,134,o),
(453,142,c),
(461,150,o),
(467,162,o),
(467,175,cs),
(467,187,o),
(461,199,o),
(453,207,c),
(461,215,o),
(467,227,o),
(467,240,cs)
);
},
{
closed = 1;
nodes = (
(443,163,o),
(434,154,o),
(422,154,cs),
(373,154,ls),
(366,154,o),
(361,149,o),
(361,142,cs),
(361,135,o),
(366,130,o),
(373,130,cs),
(422,130,ls),
(434,130,o),
(443,121,o),
(443,110,cs),
(443,98,o),
(434,89,o),
(422,89,cs),
(374,89,ls),
(367,89,o),
(362,84,o),
(362,77,cs),
(362,70,o),
(367,65,o),
(374,65,cs),
(422,65,ls),
(434,65,o),
(443,56,o),
(443,45,cs),
(443,33,o),
(434,24,o),
(422,24,c),
(171,24,l),
(171,228,l),
(257,236,o),
(289,318,o),
(289,394,cs),
(289,404,o),
(297,412,o),
(307,412,cs),
(317,412,o),
(325,404,o),
(325,394,cs),
(325,339,o),
(318,304,o),
(311,284,c),
(293,284,ls),
(287,284,o),
(281,279,o),
(281,272,cs),
(281,266,o),
(287,260,o),
(293,260,cs),
(422,260,ls),
(434,260,o),
(443,251,o),
(443,240,cs),
(443,228,o),
(434,219,o),
(422,219,cs),
(374,219,ls),
(368,219,o),
(362,214,o),
(362,207,cs),
(362,200,o),
(368,195,o),
(374,195,cs),
(422,195,l),
(434,195,o),
(443,186,o),
(443,175,cs)
);
},
{
closed = 1;
nodes = (
(106,248,o),
(100,243,o),
(100,236,cs),
(100,14,ls),
(100,7,o),
(106,2,o),
(112,2,cs),
(119,2,o),
(124,7,o),
(124,14,cs),
(124,236,ls),
(124,243,o),
(119,248,o),
(112,248,cs)
);
}
);
width = 672;
}
);
unicode = 90;
},
{
glyphname = a;
layers = (
{
layerId = "3D7C3D5E-7EBF-4B0D-83EE-E00796F45C97";
shapes = (
{
closed = 1;
nodes = (
(584,348,l),
(584,349,l),
(584,449,o),
(502,531,o),
(402,531,cs),
(301,531,o),
(220,449,o),
(220,349,c),
(220,348,l),
(62,348,ls),
(55,348,o),
(50,343,o),
(50,336,cs),
(50,330,o),
(55,324,o),
(62,324,cs),
(742,324,ls),
(749,324,o),
(754,330,o),
(754,336,cs),
(754,343,o),
(749,348,o),
(742,348,cs)
);
},
{
closed = 1;
nodes = (
(244,349,l),
(244,436,o),
(315,507,o),
(402,507,cs),
(489,507,o),
(560,436,o),
(560,349,c),
(560,348,l),
(244,348,l)
);
},
{
closed = 1;
nodes = (
(232,286,ls),
(225,286,o),
(220,281,o),
(220,274,cs),
(220,268,o),
(225,262,o),
(232,262,cs),
(572,262,ls),
(579,262,o),
(584,268,o),
(584,274,cs),
(584,281,o),
(579,286,o),
(572,286,cs)
);
},
{
closed = 1;
nodes = (
(281,217,ls),
(274,217,o),
(269,211,o),
(269,205,cs),
(269,198,o),
(274,193,o),
(281,193,cs),
(524,193,ls),
(530,193,o),
(536,198,o),
(536,205,cs),
(536,211,o),
(530,217,o),
(524,217,cs)
);
},
{
closed = 1;
nodes = (
(329,143,ls),
(323,143,o),
(317,137,o),
(317,131,cs),
(317,124,o),
(323,119,o),
(329,119,cs),
(475,119,ls),
(481,119,o),
(487,124,o),
(487,131,cs),
(487,137,o),
(481,143,o),
(475,143,cs)
);
},
{
closed = 1;
nodes = (
(378,69,ls),
(371,69,o),
(366,63,o),
(366,57,cs),
(366,50,o),
(371,45,o),
(378,45,cs),
(427,45,ls),
(433,45,o),
(438,50,o),
(438,57,cs),
(438,63,o),
(433,69,o),
(427,69,cs)
);
},
{
closed = 1;
nodes = (
(409,543,o),
(414,548,o),
(414,555,cs),
(414,607,ls),
(414,613,o),
(409,619,o),
(402,619,cs),
(395,619,o),
(390,613,o),
(390,607,cs),
(390,555,ls),
(390,548,o),
(395,543,o),
(402,543,cs)
);
},
{
closed = 1;
nodes = (
(487,525,o),
(489,524,o),
(491,524,c),
(495,524,o),
(500,527,o),
(502,531,cs),
(522,578,ls),
(525,585,o),
(522,592,o),
(516,594,cs),
(510,597,o),
(503,594,o),
(501,588,c),
(480,541,ls),
(477,535,o),
(480,528,o),
(486,525,c)
);
},
{
closed = 1;
nodes = (
(560,479,o),
(563,480,o),
(565,482,cs),
(602,519,ls),
(606,523,o),
(606,531,o),
(602,536,c),
(597,540,o),
(589,540,o),
(585,536,cs),
(548,499,ls),
(544,495,o),
(544,487,o),
(548,482,c),
(551,480,o),
(554,479,o),
(557,479,cs)
);
},
{
closed = 1;
nodes = (
(596,408,o),
(600,405,o),
(605,405,c),
(606,405,o),
(608,406,o),
(609,406,c),
(657,425,l),
(663,428,o),
(666,435,o),
(664,441,cs),
(661,447,o),
(654,450,o),
(648,448,cs),
(600,428,ls),
(594,426,o),
(591,419,o),
(594,413,cs)
);
},
{
closed = 1;
nodes = (
(306,531,ls),
(308,527,o),
(313,524,o),
(317,524,c),
(319,524,o),
(321,525,o),
(322,525,c),
(328,528,o),
(331,535,o),
(328,541,cs),
(307,588,l),
(305,594,o),
(298,597,o),
(292,594,cs),
(286,592,o),
(283,585,o),
(286,578,cs)
);
},
{
closed = 1;
nodes = (
(243,482,ls),
(245,480,o),
(248,479,o),
(251,479,cs),
(254,479,o),
(257,480,o),
(260,482,c),
(264,487,o),
(264,495,o),
(260,499,cs),
(223,536,ls),
(219,540,o),
(211,540,o),
(206,536,c),
(202,531,o),
(202,523,o),
(206,519,cs)
);
},
{
closed = 1;
nodes = (
(199,406,l),
(200,406,o),
(202,405,o),
(203,405,c),
(208,405,o),
(212,408,o),
(214,413,cs),
(217,419,o),
(214,426,o),
(207,428,c),
(160,448,ls),
(154,450,o),
(147,447,o),
(144,441,cs),
(142,435,o),
(145,428,o),
(151,425,c)
);
}
);
width = 804;
}
);
unicode = 97;
},
{
glyphname = b;
layers = (
{
layerId = "3D7C3D5E-7EBF-4B0D-83EE-E00796F45C97";
shapes = (
{
closed = 1;
nodes = (
(266,675,o),
(161,612,o),
(97,510,c),
(96,509,o),
(95,507,o),
(95,505,c),
(66,455,o),
(50,397,o),
(50,338,cs),
(50,277,o),
(66,220,o),
(95,169,cs),
(96,167,o),
(97,166,o),
(98,164,cs),
(160,63,o),
(268,0,o),
(387,0,c),
(388,0,l),
(574,0,o),
(726,152,o),
(726,338,cs),
(726,524,o),
(574,675,o),
(388,675,c)
);
},
{
closed = 1;
nodes = (
(179,389,o),
(230,352,o),
(303,336,c),
(220,317,o),
(179,285,o),
(128,217,c),
(133,231,o),
(137,249,o),
(140,269,cs),
(147,312,o),
(150,375,o),
(134,449,c)
);
},
{
closed = 1;
nodes = (
(592,293,o),
(548,319,o),
(473,337,c),
(555,358,o),
(595,391,o),
(647,459,c),
(642,445,o),
(638,427,o),
(635,406,cs),
(628,364,o),
(625,303,o),
(640,231,c)
);
},
{
closed = 1;
nodes = (
(374,70,o),
(351,128,o),
(351,179,cs),
(351,229,o),
(374,283,o),
(388,312,c),
(402,284,o),
(425,229,o),
(425,179,cs),
(425,128,o),
(402,70,o),
(388,39,c)
);
},
{
closed = 1;
nodes = (
(402,609,o),
(425,555,o),
(425,504,cs),
(425,454,o),
(402,396,o),
(388,365,c),
(374,396,o),
(351,454,o),
(351,504,cs),
(351,555,o),
(374,609,o),
(388,637,c)
);
},
{
closed = 1;
nodes = (
(526,195,o),
(481,229,o),
(411,323,c),
(519,313,o),
(587,275,o),
(645,183,c)
);
},
{
closed = 1;
nodes = (
(470,446,o),
(531,481,o),
(642,494,c),
(579,401,o),
(524,362,o),
(410,351,c)
);
},
{
closed = 1;
nodes = (
(443,450,o),
(448,478,o),
(448,504,cs),
(448,539,o),
(439,575,o),
(428,604,c),
(477,562,o),
(531,531,o),
(592,510,c),
(528,496,o),
(480,474,o),
(436,425,c)
);
},
{
closed = 1;
nodes = (
(295,472,o),
(245,496,o),
(179,508,c),
(242,532,o),
(297,561,o),
(348,606,c),
(337,576,o),
(327,540,o),
(327,504,cs),
(327,477,o),
(333,449,o),
(341,423,c)
);
},
{
closed = 1;
nodes = (
(254,362,o),
(195,397,o),
(132,491,c),
(244,478,o),
(303,447,o),
(366,351,c)
);
},
{
closed = 1;
nodes = (
(303,232,o),
(244,191,o),
(133,180,c),
(189,274,o),
(258,310,o),
(365,323,c)
);
},
{
closed = 1;
nodes = (
(332,228,o),
(327,203,o),
(327,179,cs),
(327,141,o),
(338,100,o),
(350,68,c),
(343,75,o),
(335,81,o),
(326,89,cs),
(295,113,o),
(249,143,o),
(186,164,c),
(249,179,o),
(296,201,o),
(338,251,c)
);
},
{
closed = 1;
nodes = (
(482,202,o),
(527,179,o),
(594,166,c),
(536,152,o),
(469,107,o),
(426,68,c),
(437,101,o),
(448,141,o),
(448,179,cs),
(448,204,o),
(443,230,o),
(437,253,c)
);
},
{
closed = 1;
nodes = (
(648,286,o),
(651,356,o),
(658,401,cs),
(662,429,o),
(669,451,o),
(674,466,c),
(692,427,o),
(702,383,o),
(702,338,cs),
(702,290,o),
(691,245,o),
(672,204,c)
);
},
{
closed = 1;
nodes = (
(557,541,o),
(476,585,o),
(416,650,c),
(509,642,o),
(591,592,o),
(643,520,c)
);
},
{
closed = 1;
nodes = (
(299,588,o),
(219,538,o),
(134,521,c),
(185,593,o),
(267,642,o),
(359,650,c)
);
},
{
closed = 1;
nodes = (
(126,388,o),
(124,319,o),
(117,274,cs),
(112,247,o),
(106,226,o),
(101,210,c),
(84,249,o),
(74,292,o),
(74,338,cs),
(74,385,o),
(85,430,o),
(104,470,c)
);
},
{
closed = 1;
nodes = (
(219,134,o),
(299,90,o),
(359,25,c),
(266,34,o),
(185,83,o),
(133,155,c)
);
},
{
closed = 1;
nodes = (
(476,88,o),
(555,137,o),
(642,154,c),
(590,82,o),
(509,33,o),
(415,25,c)
);
}
);
width = 776;
}
);
unicode = 98;
},
{
glyphname = c;
layers = (
{
layerId = "3D7C3D5E-7EBF-4B0D-83EE-E00796F45C97";
shapes = (
{
closed = 1;
nodes = (
(197,456,o),
(210,460,o),
(222,467,cs),
(225,468,o),
(227,471,o),
(227,474,c),
(228,477,o),
(228,481,o),
(226,483,cs),
(225,485,o),
(223,486,o),
(222,487,c),
(206,497,o),
(195,514,o),
(195,533,cs),
(195,552,o),
(206,569,o),
(222,578,cs),
(225,580,o),
(228,584,o),
(228,589,cs),
(228,593,o),
(225,597,o),
(222,599,cs),
(219,601,l),
(208,606,o),
(196,609,o),
(183,609,cs),
(141,609,o),
(107,575,o),
(107,533,cs),
(107,491,o),
(141,456,o),
(183,456,cs)
);
},
{
closed = 1;
nodes = (
(192,585,l),
(179,571,o),
(172,552,o),
(172,533,cs),
(172,513,o),
(179,495,o),
(192,481,c),
(160,481,o),
(131,495,o),
(131,533,cs),
(131,562,o),
(155,585,o),
(183,585,cs)
);
},
{
closed = 1;
nodes = (
(623,83,l),
(623,444,l),
(693,370,ls),
(695,367,o),
(698,366,o),
(701,366,cs),
(704,366,o),
(707,367,o),
(710,369,c),
(714,374,o),
(715,381,o),
(710,386,cs),
(623,479,l),
(623,531,l),
(693,457,ls),
(695,455,o),
(698,454,o),
(701,454,cs),
(704,454,o),
(707,455,o),
(710,457,cs),
(714,461,o),
(715,469,o),
(710,474,cs),
(623,566,l),
(623,626,l),
(693,552,ls),
(695,549,o),
(698,548,o),
(701,548,cs),
(704,548,o),
(707,549,o),
(710,551,c),
(714,556,o),
(715,563,o),
(710,568,cs),
(621,663,ls),
(617,668,o),
(607,668,o),
(602,663,cs),
(513,568,ls),
(509,563,o),
(509,556,o),
(514,551,cs),
(516,549,o),
(519,548,o),
(522,548,cs),
(525,548,o),
(529,549,o),
(531,552,cs),
(599,624,l),
(599,565,l),
(513,474,ls),
(509,469,o),
(509,461,o),
(514,457,cs),
(516,455,o),
(519,454,o),
(522,454,cs),
(525,454,o),
(529,455,o),
(531,457,cs),
(599,530,l),
(599,477,l),
(513,386,ls),
(509,381,o),
(509,374,o),
(514,369,cs),
(516,367,o),
(519,366,o),
(522,366,cs),
(525,366,o),
(529,367,o),
(531,370,cs),
(599,442,l),
(599,83,l),
(596,83,l),
(366,395,l),
(409,453,ls),
(413,458,o),
(412,465,o),
(407,469,cs),
(402,473,o),
(394,472,o),
(390,467,cs),
(351,415,l),
(312,467,ls),
(308,472,o),
(301,473,o),
(296,470,cs),
(290,466,o),
(289,458,o),
(293,453,cs),
(336,395,l),
(99,83,l),
(62,83,ls),
(55,83,o),
(50,78,o),
(50,71,cs),
(50,64,o),
(55,59,o),
(62,59,cs),
(742,59,ls),
(749,59,o),
(754,64,o),
(754,71,cs),
(754,78,o),
(749,83,o),
(742,83,cs)
);
},
{
closed = 1;
nodes = (
(350,375,l),
(565,85,l),
(426,85,l),
(362,197,ls),
(360,200,o),
(356,203,o),
(352,203,cs),
(347,203,o),
(343,201,o),
(341,197,cs),
(272,89,l),
(133,88,l)
);
},
{
closed = 1;
nodes = (
(351,168,l),
(399,83,l),
(296,83,l)
);
}
);
width = 804;
}
);
unicode = 99;
},
{
glyphname = d;
layers = (
{
layerId = "3D7C3D5E-7EBF-4B0D-83EE-E00796F45C97";
shapes = (
{
closed = 1;
nodes = (
(458,134,o),
(362,202,o),
(321,302,cs),
(280,402,o),
(301,518,o),
(375,597,cs),
(378,600,o),
(379,605,o),
(377,609,cs),
(375,614,o),
(371,617,o),
(366,617,cs),
(237,617,o),
(127,555,o),
(75,432,cs),
(43,358,o),
(43,276,o),
(74,201,cs),
(119,88,o),
(231,13,o),
(353,13,cs),
(432,13,o),
(511,46,o),
(567,102,c),
(574,109,l),
(577,113,o),
(578,118,o),
(576,122,cs),
(574,126,o),
(570,129,o),
(566,129,c)
);
},
{
closed = 1;
nodes = (
(316,0,o),
(154,68,o),
(96,210,cs),
(38,352,o),
(106,513,o),
(248,572,cs),
(278,584,o),
(308,591,o),
(340,593,c),
(311,555,o),
(290,511,o),
(281,464,cs),
(269,406,o),
(276,347,o),
(299,293,c),
(312,259,o),
(332,229,o),
(356,203,c),
(351,195,o),
(334,176,o),
(294,181,cs),
(288,182,o),
(282,177,o),
(281,171,cs),
(280,164,o),
(285,158,o),
(291,157,c),
(297,157,o),
(302,156,o),
(307,156,cs),
(344,156,o),
(364,174,o),
(373,185,c),
(419,144,o),
(477,116,o),
(538,108,c),
(515,87,o),
(488,70,o),
(458,58,cs)
);
},
{
closed = 1;
nodes = (
(174,395,ls),
(167,394,o),
(163,388,o),
(163,381,c),
(164,375,o),
(169,371,o),
(175,371,c),
(177,371,l),
(244,379,ls),
(251,380,o),
(255,386,o),
(255,393,c),
(254,399,o),
(248,404,o),
(241,403,cs)
);
}
);
width = 628;
}
);
unicode = 100;
},
{
glyphname = e;
layers = (
{
layerId = "3D7C3D5E-7EBF-4B0D-83EE-E00796F45C97";
shapes = (
{
closed = 1;
nodes = (
(383,383,o),
(421,421,o),
(421,467,cs),
(421,493,o),
(409,517,o),
(388,533,c),
(390,540,o),
(391,547,o),
(391,555,cs),
(391,601,o),
(354,638,o),
(308,638,cs),
(292,638,o),
(277,634,o),
(264,625,c),
(258,635,o),
(250,643,o),
(241,650,c),
(227,659,o),
(210,665,o),
(193,665,cs),
(147,665,o),
(110,627,o),
(110,581,cs),
(110,572,o),
(111,563,o),
(114,555,c),
(77,545,o),
(50,513,o),
(50,474,cs),
(50,428,o),
(87,390,o),
(133,390,cs),
(144,390,o),
(154,392,o),
(164,396,c),
(171,358,o),
(205,328,o),
(246,328,cs),
(282,328,o),
(313,351,o),
(325,385,c),
(329,384,o),
(333,383,o),
(337,383,cs)
);
},
{
closed = 1;
nodes = (
(307,407,o),
(305,405,o),
(304,401,cs),
(299,373,o),
(275,352,o),
(246,352,cs),
(213,352,o),
(186,379,o),
(186,412,c),
(187,417,o),
(185,424,o),
(181,426,cs),
(177,428,o),
(172,428,o),
(168,425,cs),
(158,418,o),
(146,414,o),
(133,414,cs),
(101,414,o),
(74,441,o),
(74,474,cs),
(74,506,o),
(99,532,o),
(132,533,c),
(136,533,o),
(140,535,o),
(142,539,cs),
(144,543,o),
(144,547,o),
(142,551,cs),
(136,561,o),
(134,571,o),
(134,581,cs),
(134,614,o),
(160,641,o),
(193,641,cs),
(218,641,o),
(239,626,o),
(248,602,c),
(250,599,o),
(253,596,o),
(257,595,cs),
(261,594,o),
(265,595,o),
(268,598,cs),
(279,608,o),
(293,614,o),
(308,614,cs),
(341,614,o),
(367,587,o),
(367,555,cs),
(367,547,o),
(366,540,o),
(363,532,cs),
(361,527,o),
(363,521,o),
(368,518,cs),
(386,507,o),
(397,488,o),
(397,467,cs),
(397,434,o),
(370,407,o),
(337,407,cs),
(332,407,o),
(326,408,o),
(320,410,cs),
(316,411,o),
(313,411,o),
(310,409,cs)
);
},
{
closed = 1;
nodes = (
(151,331,o),
(148,333,o),
(143,333,cs),
(139,333,o),
(136,331,o),
(133,327,c),
(132,325,o),
(120,304,o),
(109,277,cs),
(94,239,o),
(92,210,o),
(102,192,cs),
(107,182,o),
(119,171,o),
(144,171,cs),
(173,171,o),
(186,184,o),
(191,194,cs),
(201,213,o),
(198,242,o),
(181,279,cs),
(169,306,o),
(154,327,o),
(154,328,c)
);
},
{
closed = 1;
nodes = (
(169,203,o),
(164,195,o),
(144,195,cs),
(128,195,o),
(124,202,o),
(123,204,cs),
(117,215,o),
(120,238,o),
(131,268,c),
(136,279,o),
(140,289,o),
(144,297,c),
(149,289,o),
(154,280,o),
(159,269,cs),
(172,240,o),
(176,217,o),
(170,205,cs)
);
},
{
closed = 1;
nodes = (
(362,364,o),
(358,366,o),
(354,365,c),
(350,365,o),
(346,363,o),
(344,360,c),
(344,359,o),
(331,336,o),
(320,309,cs),
(305,271,o),
(302,242,o),
(313,224,c),
(318,214,o),
(330,203,o),
(354,203,cs),
(383,203,o),
(396,216,o),
(402,226,cs),
(412,245,o),
(408,274,o),
(391,311,cs),
(379,338,o),
(365,359,o),
(364,360,c)
);
},
{
closed = 1;
nodes = (
(375,228,o),
(365,227,o),
(354,227,cs),
(338,227,o),
(335,234,o),
(333,236,c),
(327,247,o),
(330,270,o),
(342,300,cs),
(346,311,o),
(351,321,o),
(355,329,c),
(360,321,o),
(365,312,o),
(369,301,c),
(383,272,o),
(387,249,o),
(381,238,cs)
);
},
{
closed = 1;
nodes = (
(259,173,o),
(255,175,o),
(251,175,cs),
(247,175,o),
(243,172,o),
(241,169,c),
(240,168,o),
(227,146,o),
(217,119,c),
(201,80,o),
(199,51,o),
(209,33,cs),
(215,24,o),
(226,12,o),
(251,12,cs),
(280,12,o),
(293,25,o),
(298,36,c),
(308,54,o),
(305,83,o),
(288,121,cs),
(276,147,o),
(262,169,o),
(261,169,c)
);
},
{
closed = 1;
nodes = (
(276,44,o),
(272,36,o),
(251,36,cs),
(235,36,o),
(231,43,o),
(230,45,cs),
(224,56,o),
(227,80,o),
(239,110,cs),
(243,120,o),
(248,131,o),
(252,139,c),
(266,111,ls),
(279,81,o),
(283,58,o),
(277,47,cs)
);
}
);
width = 471;
}
);
unicode = 101;
},
{
glyphname = f;
layers = (
{
layerId = "3D7C3D5E-7EBF-4B0D-83EE-E00796F45C97";
shapes = (
{
closed = 1;
nodes = (
(483,625,o),
(426,554,o),
(398,464,c),
(394,477,o),
(389,490,o),
(384,503,c),
(348,582,o),
(288,625,o),
(211,625,cs),
(107,625,o),
(51,514,o),
(51,421,c),
(50,416,o),
(54,411,o),
(60,409,cs),
(65,408,o),
(71,411,o),
(73,416,c),
(74,416,o),
(84,439,o),
(107,461,cs),
(137,491,o),
(172,506,o),
(213,506,cs),
(265,506,o),
(310,487,o),
(345,450,c),
(325,459,o),
(304,464,o),
(282,464,cs),
(181,464,o),
(123,386,o),
(123,290,cs),
(123,235,o),
(146,186,o),
(189,147,cs),
(222,118,o),
(254,106,o),
(255,105,c),
(257,104,o),
(258,104,o),
(259,104,c),
(263,104,o),
(267,106,o),
(269,109,cs),
(272,113,o),
(272,119,o),
(269,123,c),
(269,124,o),
(237,170,o),
(237,251,cs),
(237,306,o),
(258,378,o),
(323,383,c),
(317,375,o),
(314,366,o),
(314,355,cs),
(314,328,o),
(336,306,o),
(363,306,cs),
(370,306,o),
(376,307,o),
(382,310,c),
(331,14,ls),
(330,11,o),
(331,7,o),
(333,4,c),
(336,2,o),
(339,0,o),
(342,0,cs),
(454,0,ls),
(458,0,o),
(461,2,o),
(463,4,cs),
(466,7,o),
(467,11,o),
(466,14,cs),
(411,324,l),
(418,320,o),
(425,318,o),
(433,318,cs),
(458,318,o),
(477,338,o),
(477,362,cs),
(477,375,o),
(472,387,o),
(462,395,c),
(486,400,o),
(507,393,o),
(524,375,cs),
(541,358,o),
(553,333,o),
(559,303,cs),
(573,238,o),
(557,198,o),
(555,194,c),
(553,189,o),
(554,183,o),
(558,180,cs),
(560,178,o),
(563,177,o),
(566,177,c),
(568,177,o),
(570,178,o),
(573,179,c),
(574,180,o),
(598,196,o),
(620,226,cs),
(649,265,o),
(660,311,o),
(650,356,cs),
(641,398,o),
(621,432,o),
(591,453,c),
(562,475,o),
(525,482,o),
(487,474,cs),
(482,473,o),
(477,471,o),
(473,470,c),
(504,494,o),
(541,506,o),
(583,506,cs),
(641,506,o),
(697,468,o),
(722,416,c),
(724,411,o),
(730,408,o),
(736,409,c),
(741,411,o),
(745,416,o),
(745,421,cs),
(745,513,o),
(689,625,o),
(585,625,cs)
);
},
{
closed = 1;
nodes = (
(166,530,o),
(124,512,o),
(90,478,cs),
(82,470,l),
(97,536,o),
(134,601,o),
(211,601,cs),
(305,601,o),
(354,532,o),
(377,450,c),
(375,452,o),
(373,455,o),
(370,458,cs),
(342,491,o),
(292,530,o),
(213,530,cs)
);
},
{
closed = 1;
nodes = (
(213,205,o),
(223,169,o),
(232,145,c),
(181,177,o),
(147,228,o),
(147,290,cs),
(147,380,o),
(201,440,o),
(282,440,cs),
(313,440,o),
(340,430,o),
(364,409,cs),
(368,405,l),
(358,407,o),
(346,408,o),
(332,408,cs),
(247,408,o),
(213,324,o),
(213,251,cs)
);
},
{
closed = 1;
nodes = (
(349,330,o),
(338,341,o),
(338,355,cs),
(338,369,o),
(349,381,o),
(363,381,cs),
(377,381,o),
(388,369,o),
(388,355,cs),
(388,341,o),
(377,330,o),
(363,330,cs)
);
},
{
closed = 1;
nodes = (
(357,24,l),
(398,261,l),
(440,24,l)
);
},
{
closed = 1;
nodes = (
(422,342,o),
(413,351,o),
(413,362,cs),
(413,373,o),
(422,382,o),
(433,382,cs),
(444,382,o),
(453,373,o),
(453,362,cs),
(453,351,o),
(444,342,o),
(433,342,cs)
);
},
{
closed = 1;
nodes = (
(524,457,o),
(553,451,o),
(577,434,cs),
(602,416,o),
(619,388,o),
(627,351,cs),
(635,312,o),
(626,275,o),
(601,240,cs),
(596,234,o),
(591,228,o),
(586,223,c),
(589,244,o),
(590,273,o),
(583,308,cs),
(572,361,o),
(537,421,o),
(476,421,cs),
(469,421,o),
(462,420,o),
(455,418,c),
(446,417,o),
(438,414,o),
(431,412,c),
(447,432,o),
(467,445,o),
(492,450,cs)
);
},
{
closed = 1;
nodes = (
(672,512,o),
(629,530,o),
(583,530,cs),
(504,530,o),
(454,491,o),
(425,458,cs),
(423,455,o),
(421,452,o),
(418,450,c),
(443,531,o),
(491,601,o),
(585,601,cs),
(661,601,o),
(699,536,o),
(714,470,c),
(711,472,o),
(709,475,o),
(706,478,cs)
);
}
);
width = 795;
}
);
unicode = 102;
},
{
glyphname = u;
layers = (
{
layerId = "3D7C3D5E-7EBF-4B0D-83EE-E00796F45C97";
shapes = (
{
closed = 1;
nodes = (
(615,585,ls),
(619,599,o),
(611,607,o),
(597,604,cs),
(362,553,ls),
(348,550,o),
(338,539,o),
(338,524,c),
(338,337,ls),
(338,257,o),
(328,228,o),
(246,211,c),
(231,207,o),
(213,203,o),
(195,196,c),
(200,280,l),
(200,284,o),
(198,288,o),
(195,290,c),
(191,293,o),
(187,293,o),
(183,291,cs),
(76,238,l),
(72,235,o),
(69,231,o),
(69,227,cs),
(69,222,o),
(72,218,o),
(76,216,cs),
(156,177,l),
(117,155,o),
(89,130,o),
(71,102,c),
(55,75,o),
(48,44,o),
(51,11,c),
(51,5,o),
(57,0,o),
(63,0,c),
(64,0,l),
(71,1,o),
(75,6,o),
(75,13,c),
(70,72,o),
(100,119,o),
(169,157,c),
(164,74,l),
(164,70,o),
(166,66,o),
(170,63,c),
(172,62,o),
(174,62,o),
(176,62,c),
(178,62,o),
(181,62,o),
(183,63,c),
(279,123,l),
(283,125,o),
(285,129,o),
(285,134,cs),
(285,138,o),
(282,142,o),
(278,144,cs),
(212,177,l),
(225,181,o),
(239,184,o),
(252,187,cs),
(338,207,o),
(362,238,o),
(362,326,c),
(418,331,o),
(473,331,o),
(529,335,cs),
(543,336,o),
(555,347,o),
(559,361,cs)
);
},
{
closed = 1;
nodes = (
(175,260,l),
(171,196,l),
(108,227,l)
);
},
{
closed = 1;
nodes = (
(190,96,l),
(193,159,l),
(248,132,l)
);
},
{
closed = 1;
nodes = (
(536,371,l),
(467,439,l),
(581,555,l)
);
},
{
closed = 1;
nodes = (
(565,573,l),
(449,456,l),
(374,529,l)
);
},
{
closed = 1;
nodes = (
(433,439,l),
(362,367,l),
(362,508,l)
);
},
{
closed = 1;
nodes = (
(380,351,l),
(450,422,l),
(515,358,l)
);
}
);
width = 664;
}
);
unicode = 117;
},
{
glyphname = v;
layers = (
{
layerId = "3D7C3D5E-7EBF-4B0D-83EE-E00796F45C97";
shapes = (
{
closed = 1;
nodes = (
(176,560,o),
(50,434,o),
(50,280,cs),
(50,126,o),
(175,0,o),
(330,0,cs),
(485,0,o),
(610,125,o),
(610,280,cs),
(610,435,o),
(484,560,o),
(330,560,cs)
);
},
{
closed = 1;
nodes = (
(189,24,o),
(74,139,o),
(74,280,cs),
(74,421,o),
(189,536,o),
(330,536,cs),
(471,536,o),
(586,421,o),
(586,280,cs),
(586,139,o),
(471,24,o),
(330,24,cs)
);
},
{
closed = 1;
nodes = (
(180,245,ls),
(173,245,o),
(168,240,o),
(168,233,cs),
(168,144,o),
(241,71,o),
(330,71,cs),
(420,71,o),
(493,144,o),
(493,233,cs),
(493,240,o),
(488,245,o),
(481,245,cs)
);
},
{
closed = 1;
nodes = (
(258,95,o),
(198,150,o),
(192,221,c),
(468,221,l),
(462,150,o),
(403,95,o),
(330,95,cs)
);
},
{
closed = 1;
nodes = (
(235,286,l),
(239,287,o),
(323,315,o),
(323,384,cs),
(323,413,o),
(300,436,o),
(271,436,cs),
(255,436,o),
(240,429,o),
(230,417,c),
(221,429,o),
(206,436,o),
(190,436,cs),
(161,436,o),
(138,413,o),
(138,384,cs),
(138,315,o),
(224,287,o),
(228,286,c)
);
},
{
closed = 1;
nodes = (
(162,399,o),
(175,412,o),
(190,412,cs),
(206,412,o),
(218,399,o),
(218,384,cs),
(218,377,o),
(224,372,o),
(230,372,c),
(231,372,l),
(237,372,o),
(242,377,o),
(242,384,cs),
(242,399,o),
(255,412,o),
(271,412,cs),
(286,412,o),
(299,399,o),
(299,384,cs),
(299,339,o),
(246,316,o),
(231,310,c),
(216,316,o),
(162,339,o),
(162,384,cs)
);
},
{
closed = 1;
nodes = (
(454,436,o),
(440,429,o),
(430,417,c),
(421,429,o),
(406,436,o),
(390,436,cs),
(361,436,o),
(338,413,o),
(338,384,cs),
(338,315,o),
(424,287,o),
(428,286,c),
(435,286,l),
(438,287,o),
(523,315,o),
(523,384,cs),
(523,413,o),
(499,436,o),
(471,436,cs)
);
},
{
closed = 1;
nodes = (
(416,316,o),
(362,339,o),
(362,384,cs),
(362,399,o),
(374,412,o),
(390,412,cs),
(405,412,o),
(418,399,o),
(418,384,cs),
(418,377,o),
(424,372,o),
(430,372,c),
(437,372,o),
(442,377,o),
(442,384,cs),
(442,399,o),
(455,412,o),
(471,412,cs),
(486,412,o),
(499,399,o),
(499,384,cs),
(499,339,o),
(446,316,o),
(431,310,c)
);
}
);
width = 660;
}
);
unicode = 118;
},
{
glyphname = w;
layers = (
{
layerId = "3D7C3D5E-7EBF-4B0D-83EE-E00796F45C97";
shapes = (
{
closed = 1;
nodes = (
(587,584,o),
(561,541,o),
(550,518,c),
(507,545,o),
(456,560,o),
(404,560,cs),
(350,560,o),
(300,545,o),
(256,517,c),
(245,541,o),
(219,584,o),
(179,584,cs),
(115,584,o),
(50,489,o),
(50,430,cs),
(50,417,o),
(53,408,o),
(59,400,cs),
(63,394,o),
(72,387,o),
(88,387,cs),
(105,387,o),
(115,399,o),
(125,412,cs),
(141,434,o),
(154,445,o),
(181,449,c),
(144,401,o),
(124,342,o),
(124,280,cs),
(124,125,o),
(249,0,o),
(404,0,cs),
(558,0,o),
(683,126,o),
(683,280,cs),
(683,342,o),
(663,401,o),
(626,449,c),
(658,443,o),
(670,427,o),
(681,412,cs),
(691,399,o),
(701,387,o),
(718,387,cs),
(743,387,o),
(756,406,o),
(756,430,cs),
(756,489,o),
(690,584,o),
(626,584,cs)
);
},
{
closed = 1;
nodes = (
(98,415,o),
(94,411,o),
(88,411,cs),
(77,411,o),
(74,420,o),
(74,430,cs),
(74,475,o),
(130,560,o),
(179,560,cs),
(205,560,o),
(226,525,o),
(236,504,c),
(225,496,o),
(215,487,o),
(206,478,c),
(203,475,l),
(141,474,o),
(120,446,o),
(106,427,cs)
);
},
{
closed = 1;
nodes = (
(331,24,o),
(266,54,o),
(219,102,c),
(220,185,o),
(276,256,o),
(355,278,c),
(379,256,ls),
(383,252,o),
(388,249,o),
(393,248,c),
(389,218,o),
(364,194,o),
(333,194,cs),
(326,194,o),
(321,189,o),
(321,183,cs),
(321,176,o),
(326,171,o),
(333,171,cs),
(338,171,o),
(342,171,o),
(347,172,c),
(352,144,o),
(376,123,o),
(405,123,cs),
(434,123,o),
(458,144,o),
(463,172,c),
(468,171,o),
(472,171,o),
(477,171,cs),
(484,171,o),
(489,176,o),
(489,183,cs),
(489,189,o),
(484,194,o),
(477,194,cs),
(446,194,o),
(421,218,o),
(417,248,c),
(422,250,o),
(427,253,o),
(431,257,cs),
(453,278,l),
(532,255,o),
(586,183,o),
(587,101,c),
(540,53,o),
(475,24,o),
(404,24,cs)
);
},
{
closed = 1;
nodes = (
(414,274,l),
(409,268,o),
(401,268,o),
(395,274,cs),
(364,303,ls),
(358,309,o),
(360,316,o),
(361,318,cs),
(364,324,o),
(368,327,o),
(374,327,cs),
(435,327,ls),
(443,327,o),
(447,320,o),
(448,318,c),
(448,312,o),
(448,305,o),
(439,297,cs)
);
},
{
closed = 1;
nodes = (
(413,197,o),
(426,186,o),
(440,179,c),
(438,161,o),
(423,147,o),
(405,147,cs),
(387,147,o),
(372,161,o),
(370,179,c),
(384,186,o),
(397,197,o),
(405,211,c)
);
},
{
closed = 1;
nodes = (
(599,205,o),
(543,273,o),
(469,298,c),
(473,307,o),
(474,317,o),
(470,327,cs),
(464,342,o),
(450,351,o),
(435,351,cs),
(374,351,ls),
(358,351,o),
(345,341,o),
(339,327,cs),
(335,318,o),
(335,307,o),
(339,299,c),
(264,274,o),
(208,207,o),
(197,128,c),
(166,171,o),
(148,223,o),
(148,280,cs),
(148,421,o),
(262,536,o),
(404,536,cs),
(542,536,o),
(660,419,o),
(660,280,cs),
(660,222,o),
(641,169,o),
(609,127,c)
);
},
{
closed = 1;
nodes = (
(712,411,o),
(708,415,o),
(700,427,cs),
(686,446,o),
(665,474,o),
(604,475,c),
(601,478,l),
(592,487,o),
(581,496,o),
(570,504,c),
(580,526,o),
(601,560,o),
(626,560,cs),
(676,560,o),
(732,476,o),
(732,430,cs),
(732,420,o),
(729,411,o),
(718,411,cs)
);
},
{
closed = 1;
nodes = (
(291,456,o),
(263,439,o),
(259,413,cs),
(258,407,o),
(261,400,o),
(267,399,cs),
(274,397,o),
(280,401,o),
(282,407,c),
(283,410,o),
(295,432,o),
(319,432,cs),
(343,432,o),
(355,410,o),
(356,407,c),
(358,401,o),
(364,397,o),
(371,399,cs),
(377,400,o),
(380,407,o),
(379,413,cs),
(375,439,o),
(347,456,o),
(319,456,cs)
);
},
{
closed = 1;
nodes = (
(463,456,o),
(435,439,o),
(431,413,cs),
(430,407,o),
(433,400,o),
(439,399,cs),
(446,397,o),
(452,401,o),
(454,407,c),
(455,410,o),
(467,432,o),
(491,432,cs),
(515,432,o),
(527,410,o),
(528,407,c),
(530,401,o),
(536,397,o),
(543,399,cs),
(549,400,o),
(552,407,o),
(551,413,cs),
(547,439,o),
(519,456,o),
(491,456,cs)
);
}
);
width = 806;
}
);
unicode = 119;
},
{
glyphname = x;
layers = (
{
layerId = "3D7C3D5E-7EBF-4B0D-83EE-E00796F45C97";
shapes = (
{
closed = 1;
nodes = (
(175,560,o),
(50,435,o),
(50,280,cs),
(50,125,o),
(175,0,o),
(330,0,cs),
(485,0,o),
(610,125,o),
(610,280,cs),
(610,435,o),
(485,560,o),
(330,560,cs)
);
},
{
closed = 1;
nodes = (
(189,24,o),
(74,139,o),
(74,280,cs),
(74,421,o),
(189,536,o),
(330,536,cs),
(471,536,o),
(586,421,o),
(586,280,cs),
(586,139,o),
(471,24,o),
(330,24,cs)
);
},
{
closed = 1;
nodes = (
(425,222,o),
(451,196,o),
(483,196,cs),
(489,196,o),
(495,201,o),
(495,208,cs),
(495,214,o),
(489,219,o),
(483,219,cs),
(464,219,o),
(448,235,o),
(448,254,cs),
(448,274,o),
(470,289,o),
(488,289,cs),
(533,289,o),
(538,250,o),
(538,234,cs),
(538,203,o),
(514,179,o),
(483,179,cs),
(442,179,o),
(430,208,o),
(417,239,cs),
(412,252,o),
(407,264,o),
(400,274,cs),
(390,286,o),
(379,293,o),
(365,293,cs),
(351,293,o),
(338,286,o),
(330,277,c),
(321,286,o),
(309,293,o),
(295,293,cs),
(281,293,o),
(270,286,o),
(260,274,cs),
(253,264,o),
(248,252,o),
(243,239,cs),
(230,208,o),
(218,179,o),
(177,179,cs),
(146,179,o),
(122,203,o),
(122,234,cs),
(122,250,o),
(127,289,o),
(172,289,cs),
(190,289,o),
(212,274,o),
(212,254,cs),
(212,235,o),
(196,219,o),
(177,219,cs),
(171,219,o),
(165,214,o),
(165,208,cs),
(165,201,o),
(171,196,o),
(177,196,cs),
(209,196,o),
(235,222,o),
(235,254,cs),
(235,285,o),
(205,312,o),
(172,312,cs),
(125,312,o),
(99,279,o),
(99,234,cs),
(99,191,o),
(134,155,o),
(177,155,cs),
(233,155,o),
(251,199,o),
(264,230,cs),
(274,255,o),
(281,270,o),
(295,270,cs),
(305,270,o),
(313,264,o),
(317,255,c),
(298,250,o),
(284,232,o),
(284,211,cs),
(284,186,o),
(304,165,o),
(330,165,cs),
(355,165,o),
(376,186,o),
(376,211,cs),
(376,232,o),
(362,250,o),
(343,255,c),
(347,264,o),
(355,270,o),
(365,270,cs),
(379,270,o),
(386,255,o),
(396,230,cs),
(409,199,o),
(427,155,o),
(483,155,cs),
(526,155,o),
(561,191,o),
(561,234,cs),
(561,279,o),
(535,312,o),
(488,312,cs),
(455,312,o),
(425,285,o),
(425,254,cs)
);
},
{
closed = 1;
nodes = (
(352,199,o),
(342,189,o),
(330,189,cs),
(318,189,o),
(308,199,o),
(308,211,cs),
(308,223,o),
(318,233,o),
(330,233,cs),
(342,233,o),
(352,223,o),
(352,211,cs)
);
},
{
closed = 1;
nodes = (
(217,419,o),
(189,402,o),
(185,376,cs),
(184,370,o),
(187,363,o),
(193,362,cs),
(200,360,o),
(206,364,o),
(208,370,c),
(209,373,o),
(221,395,o),
(245,395,cs),
(269,395,o),
(281,373,o),
(282,370,c),
(284,364,o),
(290,360,o),
(297,362,cs),
(303,363,o),
(306,370,o),
(305,376,cs),
(301,402,o),
(273,419,o),
(245,419,cs)
);
},
{
closed = 1;
nodes = (
(389,419,o),
(361,402,o),
(357,376,cs),
(356,370,o),
(359,363,o),
(365,362,cs),
(372,360,o),
(378,364,o),
(380,370,c),
(381,373,o),
(393,395,o),
(417,395,cs),
(441,395,o),
(453,373,o),
(454,370,c),
(456,364,o),
(462,360,o),
(469,362,cs),
(475,363,o),
(478,370,o),
(477,376,cs),
(473,402,o),
(445,419,o),
(417,419,cs)
);
}
);
width = 660;
}
);
unicode = 120;
},
{
glyphname = y;
layers = (
{
layerId = "3D7C3D5E-7EBF-4B0D-83EE-E00796F45C97";
shapes = (
{
closed = 1;
nodes = (
(384,331,o),
(376,329,o),
(370,325,c),
(364,343,o),
(347,357,o),
(327,357,cs),
(319,357,o),
(311,355,o),
(304,351,c),
(299,368,o),
(282,381,o),
(262,381,cs),
(255,381,o),
(248,379,o),
(242,376,c),
(242,454,ls),
(242,479,o),
(222,499,o),
(197,499,cs),
(173,499,o),
(153,479,o),
(153,454,cs),
(153,280,l),
(140,272,o),
(128,256,o),
(122,248,cs),
(115,237,o),
(98,209,o),
(98,183,cs),
(98,133,o),
(147,86,o),
(189,51,c),
(192,50,o),
(194,49,o),
(197,49,cs),
(423,49,ls),
(429,49,o),
(435,54,o),
(435,61,cs),
(437,198,l),
(437,286,ls),
(437,311,o),
(417,331,o),
(392,331,cs)
);
},
{
closed = 1;
nodes = (
(413,198,l),
(411,73,l),
(201,73,l),
(177,93,o),
(122,140,o),
(122,183,cs),
(122,195,o),
(129,213,o),
(140,231,cs),
(145,238,o),
(149,243,o),
(153,247,c),
(153,214,ls),
(153,207,o),
(158,202,o),
(165,202,cs),
(171,202,o),
(177,207,o),
(177,214,cs),
(177,454,ls),
(177,465,o),
(186,475,o),
(197,475,cs),
(208,475,o),
(218,465,o),
(218,454,cs),
(218,268,ls),
(218,262,o),
(223,256,o),
(230,256,cs),
(236,256,o),
(242,262,o),
(242,268,cs),
(242,337,ls),
(242,348,o),
(251,357,o),
(262,357,cs),
(273,357,o),
(283,348,o),
(283,337,cs),
(283,272,ls),
(283,265,o),
(288,260,o),
(295,260,cs),
(301,260,o),
(307,265,o),
(307,272,cs),
(307,312,ls),
(307,324,o),
(316,333,o),
(327,333,cs),
(338,333,o),
(348,324,o),
(348,312,cs),
(348,276,ls),
(348,269,o),
(353,264,o),
(360,264,cs),
(366,264,o),
(372,269,o),
(372,276,cs),
(372,286,ls),
(372,298,o),
(381,307,o),
(392,307,cs),
(403,307,o),
(413,298,o),
(413,286,cs)
);
},
{
closed = 1;
nodes = (
(200,24,ls),
(194,24,o),
(189,19,o),
(189,12,cs),
(189,5,o),
(194,0,o),
(200,0,cs),
(423,0,ls),
(429,0,o),
(435,5,o),
(435,12,cs),
(435,19,o),
(429,24,o),
(423,24,cs)
);
},
{
closed = 1;
nodes = (
(345,479,ls),
(351,479,o),
(357,484,o),
(357,491,cs),
(357,498,o),
(351,503,o),
(345,503,cs),
(281,503,ls),
(275,503,o),
(269,498,o),
(269,491,cs),
(269,484,o),
(275,479,o),
(281,479,cs)
);
},
{
closed = 1;
nodes = (
(207,520,o),
(212,526,o),
(212,532,cs),
(212,596,ls),
(212,602,o),
(207,608,o),
(200,608,cs),
(194,608,o),
(188,602,o),
(188,596,cs),
(188,532,ls),
(188,526,o),
(194,520,o),
(200,520,cs)
);
},
{
closed = 1;
nodes = (
(137,493,o),
(132,499,o),
(125,499,cs),
(62,499,ls),
(55,499,o),
(50,493,o),
(50,487,cs),
(50,480,o),
(55,475,o),
(62,475,cs),
(125,475,ls),
(132,475,o),
(137,480,o),
(137,487,cs)
);
}
);
width = 487;
}
);
unicode = 121;
},
{
glyphname = z;
layers = (
{
layerId = "3D7C3D5E-7EBF-4B0D-83EE-E00796F45C97";
shapes = (
{
closed = 1;
nodes = (
(221,522,l),
(95,522,ls),
(70,522,o),
(50,502,o),
(50,477,cs),
(50,464,o),
(56,453,o),
(65,445,c),
(56,437,o),
(50,425,o),
(50,412,cs),
(50,399,o),
(56,388,o),
(65,380,c),
(56,372,o),
(50,360,o),
(50,347,cs),
(50,334,o),
(56,323,o),
(65,315,c),
(56,306,o),
(50,295,o),
(50,282,cs),
(50,258,o),
(70,238,o),
(95,238,cs),
(181,238,l),
(173,208,o),
(168,171,o),
(168,128,cs),
(168,105,o),
(187,86,o),
(210,86,cs),
(233,86,o),
(252,105,o),
(252,128,cs),
(252,152,o),
(257,270,o),
(358,270,cs),
(365,270,o),
(370,275,o),
(370,282,cs),
(370,508,ls),
(370,514,o),
(365,520,o),
(358,520,cs)
);
},
{
closed = 1;
nodes = (
(346,294,l),
(260,286,o),
(228,204,o),
(228,128,cs),
(228,118,o),
(220,110,o),
(210,110,cs),
(200,110,o),
(192,118,o),
(192,128,cs),
(192,183,o),
(200,218,o),
(206,238,c),
(224,238,ls),
(231,238,o),
(236,243,o),
(236,250,cs),
(236,256,o),
(231,262,o),
(224,262,cs),
(95,262,ls),
(84,262,o),
(74,271,o),
(74,282,cs),
(74,293,o),
(84,303,o),
(95,303,cs),
(143,303,ls),
(149,303,o),
(155,308,o),
(155,315,cs),
(155,321,o),
(149,327,o),
(143,327,cs),
(95,327,ls),
(84,327,o),
(74,336,o),
(74,347,cs),
(74,358,o),
(84,368,o),
(95,368,cs),
(144,368,ls),
(151,368,o),
(156,373,o),
(156,380,cs),
(156,386,o),
(151,392,o),
(144,392,cs),
(95,392,ls),
(84,392,o),
(74,401,o),
(74,412,cs),
(74,423,o),
(84,433,o),
(95,433,cs),
(143,433,ls),
(150,433,o),
(155,438,o),
(155,445,cs),
(155,451,o),
(150,457,o),
(143,457,cs),
(95,457,ls),
(84,457,o),
(74,466,o),
(74,477,cs),
(74,489,o),
(84,498,o),
(95,498,cs),
(221,498,l),
(346,496,l)
);
},
{
closed = 1;
nodes = (
(398,520,o),
(393,514,o),
(393,508,cs),
(393,286,ls),
(393,279,o),
(398,274,o),
(405,274,cs),
(412,274,o),
(417,279,o),
(417,286,cs),
(417,508,ls),
(417,514,o),
(412,520,o),
(405,520,cs)
);
}
);
width = 467;
}
);
unicode = 122;
},
{
glyphname = g;
layers = (
{
layerId = "3D7C3D5E-7EBF-4B0D-83EE-E00796F45C97";
shapes = (
{
closed = 1;
nodes = (
(682,364,l),
(679,430,o),
(653,493,o),
(608,542,c),
(651,584,ls),
(656,589,o),
(656,597,o),
(651,601,c),
(647,606,o),
(639,606,o),
(634,601,cs),
(592,558,l),
(543,603,o),
(480,629,o),
(414,632,c),
(414,692,ls),
(414,699,o),
(409,704,o),
(402,704,cs),
(396,704,o),
(390,699,o),
(390,692,cs),
(390,632,l),
(324,629,o),
(262,603,o),
(213,558,c),
(170,601,ls),
(165,606,o),
(158,606,o),
(153,601,cs),
(148,597,o),
(148,589,o),
(153,584,cs),
(196,542,l),
(151,493,o),
(125,430,o),
(122,364,c),
(62,364,ls),
(55,364,o),
(50,359,o),
(50,352,cs),
(50,346,o),
(55,340,o),
(62,340,cs),
(122,340,l),
(125,274,o),
(151,212,o),
(196,163,c),
(153,120,ls),
(148,115,o),
(148,108,o),
(153,103,cs),
(155,101,o),
(159,100,o),
(162,100,cs),
(165,100,o),
(168,101,o),
(170,103,cs),
(213,146,l),
(262,101,o),
(324,75,o),
(390,72,c),
(390,12,ls),
(390,5,o),
(396,0,o),
(402,0,cs),
(409,0,o),
(414,5,o),
(414,12,cs),
(414,72,l),
(480,75,o),
(543,101,o),
(592,146,c),
(634,103,l),
(637,101,o),
(640,100,o),
(643,100,cs),
(646,100,o),
(649,101,o),
(651,103,cs),
(656,108,o),
(656,115,o),
(651,120,cs),
(608,163,l),
(653,212,o),
(679,274,o),
(682,340,c),
(742,340,ls),
(749,340,o),
(754,346,o),
(754,352,cs),
(754,359,o),
(749,364,o),
(742,364,cs)
);
},
{
closed = 1;
nodes = (
(499,364,l),
(496,382,o),
(489,398,o),
(479,412,c),
(591,524,l),
(630,482,o),
(655,426,o),
(658,364,c)
);
},
{
closed = 1;
nodes = (
(414,424,l),
(425,422,o),
(436,418,o),
(445,412,c),
(414,381,l)
);
},
{
closed = 1;
nodes = (
(390,381,l),
(360,412,l),
(369,418,o),
(379,422,o),
(390,424,c)
);
},
{
closed = 1;
nodes = (
(373,364,l),
(330,364,l),
(332,375,o),
(336,386,o),
(343,395,c)
);
},
{
closed = 1;
nodes = (
(373,340,l),
(343,310,l),
(336,319,o),
(332,329,o),
(330,340,c)
);
},
{
closed = 1;
nodes = (
(390,323,l),
(390,280,l),
(379,282,o),
(369,286,o),
(360,293,c)
);
},
{
closed = 1;
nodes = (
(414,323,l),
(445,293,l),
(436,286,o),
(425,282,o),
(414,280,c)
);
},
{
closed = 1;
nodes = (
(431,340,l),
(474,340,l),
(472,329,o),
(468,319,o),
(462,310,c)
);
},
{
closed = 1;
nodes = (
(431,364,l),
(462,395,l),
(468,386,o),
(472,375,o),
(474,364,c)
);
},
{
closed = 1;
nodes = (
(462,429,l),
(448,439,o),
(432,446,o),
(414,449,c),
(414,608,l),
(476,605,o),
(532,580,o),
(574,541,c)
);
},
{
closed = 1;
nodes = (
(390,449,l),
(372,446,o),
(356,439,o),
(343,429,c),
(230,541,l),
(273,580,o),
(329,605,o),
(390,608,c)
);
},
{
closed = 1;
nodes = (
(326,412,l),
(315,398,o),
(308,382,o),
(306,364,c),
(146,364,l),
(149,426,o),
(174,482,o),
(213,524,c)
);
},
{
closed = 1;
nodes = (
(306,340,l),
(308,322,o),
(315,306,o),
(326,293,c),
(213,180,l),
(174,223,o),
(149,279,o),
(146,340,c)
);
},
{
closed = 1;
nodes = (
(343,276,l),
(356,265,o),
(372,258,o),
(390,256,c),
(390,96,l),
(329,99,o),
(273,124,o),
(230,163,c)
);
},
{
closed = 1;
nodes = (
(414,256,l),
(432,258,o),
(448,265,o),
(462,276,c),
(574,163,l),
(532,124,o),
(476,99,o),
(414,96,c)
);
},
{
closed = 1;
nodes = (
(479,293,l),
(489,306,o),
(496,322,o),
(499,340,c),
(658,340,l),
(655,279,o),
(630,223,o),
(591,180,c)
);
}
);
width = 804;
}
);
unicode = (103,163);
},
{
glyphname = h;
layers = (
{
layerId = "3D7C3D5E-7EBF-4B0D-83EE-E00796F45C97";
shapes = (
{
closed = 1;
nodes = (
(263,403,o),
(267,419,o),
(275,441,cs),
(281,457,o),
(287,473,o),
(287,497,cs),
(287,554,o),
(241,598,o),
(180,598,cs),
(82,598,o),
(54,485,o),
(54,406,cs),
(54,325,o),
(89,162,o),
(195,162,cs),
(248,162,o),
(291,205,o),
(291,259,cs),
(291,272,o),
(288,283,o),
(279,306,cs),
(269,332,o),
(263,352,o),
(263,380,cs)
);
},
{
closed = 1;
nodes = (
(107,186,o),
(78,341,o),
(78,406,cs),
(78,470,o),
(98,574,o),
(180,574,cs),
(228,574,o),
(263,541,o),
(263,497,cs),
(263,477,o),
(259,465,o),
(253,450,cs),
(246,432,o),
(239,413,o),
(239,380,cs),
(239,340,o),
(249,316,o),
(257,297,cs),
(263,283,o),
(267,272,o),
(267,259,cs),
(267,219,o),
(235,186,o),
(195,186,cs)
);
},
{
closed = 1;
nodes = (
(436,441,o),
(452,457,o),
(452,477,cs),
(452,497,o),
(436,513,o),
(416,513,cs),
(396,513,o),
(380,497,o),
(380,477,cs),
(380,457,o),
(396,441,o),
(416,441,cs)
);
},
{
closed = 1;
nodes = (
(422,489,o),
(428,484,o),
(428,477,cs),
(428,471,o),
(422,465,o),
(416,465,cs),
(410,465,o),
(404,471,o),
(404,477,cs),
(404,484,o),
(410,489,o),
(416,489,cs)
);
},
{
closed = 1;
nodes = (
(414,436,o),
(368,393,o),
(368,336,cs),
(368,312,o),
(374,295,o),
(380,280,cs),
(388,258,o),
(392,242,o),
(392,219,cs),
(392,183,o),
(384,163,o),
(376,145,cs),
(367,122,o),
(364,111,o),
(364,98,cs),
(364,44,o),
(407,1,o),
(460,1,cs),
(566,1,o),
(601,164,o),
(601,245,cs),
(601,324,o),
(574,436,o),
(475,436,cs)
);
},
{
closed = 1;
nodes = (
(420,25,o),
(388,57,o),
(388,98,cs),
(388,111,o),
(392,122,o),
(398,135,cs),
(410,165,o),
(416,187,o),
(416,219,cs),
(416,251,o),
(409,271,o),
(402,288,cs),
(396,303,o),
(392,316,o),
(392,336,cs),
(392,379,o),
(427,413,o),
(475,413,cs),
(558,413,o),
(577,309,o),
(577,245,cs),
(577,180,o),
(549,25,o),
(460,25,cs)
);
},
{
closed = 1;
nodes = (
(550,480,o),
(534,464,o),
(534,445,cs),
(534,425,o),
(550,409,o),
(569,409,cs),
(589,409,o),
(605,425,o),
(605,445,cs),
(605,464,o),
(589,480,o),
(569,480,cs)
);
},
{
closed = 1;
nodes = (
(563,433,o),
(558,438,o),
(558,445,cs),
(558,451,o),
(563,456,o),
(569,456,cs),
(576,456,o),
(581,451,o),
(581,445,cs),
(581,438,o),
(576,433,o),
(569,433,cs)
);
},
{
closed = 1;
nodes = (
(105,570,o),
(121,586,o),
(121,606,cs),
(121,626,o),
(105,642,o),
(86,642,cs),
(66,642,o),
(50,626,o),
(50,606,cs),
(50,586,o),
(66,570,o),
(86,570,cs)
);
},
{
closed = 1;
nodes = (
(92,618,o),
(97,612,o),
(97,606,cs),
(97,599,o),
(92,594,o),
(86,594,cs),
(79,594,o),
(74,599,o),
(74,606,cs),
(74,612,o),
(79,618,o),
(86,618,cs)
);
},
{
closed = 1;
nodes = (
(336,604,o),
(331,612,o),
(323,618,cs),
(315,623,o),
(306,625,o),
(296,624,c),
(287,622,o),
(279,617,o),
(274,609,cs),
(268,601,o),
(266,592,o),
(268,582,cs),
(270,573,o),
(275,565,o),
(283,559,cs),
(289,555,o),
(296,553,o),
(303,553,c),
(305,553,o),
(307,553,o),
(309,554,c),
(329,557,o),
(341,576,o),
(338,595,cs)
);
},
{
closed = 1;
nodes = (
(302,577,o),
(299,577,o),
(296,579,cs),
(294,581,o),
(292,583,o),
(291,587,c),
(291,590,o),
(292,593,o),
(293,595,cs),
(295,598,o),
(298,600,o),
(301,600,c),
(303,600,l),
(308,600,o),
(314,597,o),
(314,591,c),
(315,584,o),
(311,578,o),
(305,577,c)
);
},
{
closed = 1;
nodes = (
(516,446,o),
(532,462,o),
(532,481,cs),
(532,501,o),
(516,517,o),
(497,517,cs),
(477,517,o),
(461,501,o),
(461,481,cs),
(461,462,o),
(477,446,o),
(497,446,cs)
);
},
{
closed = 1;
nodes = (
(503,493,o),
(508,488,o),
(508,481,cs),
(508,475,o),
(503,470,o),
(497,470,cs),
(490,470,o),
(485,475,o),
(485,481,cs),
(485,488,o),
(490,493,o),
(497,493,cs)
);
},
{
closed = 1;
nodes = (
(178,607,o),
(194,623,o),
(194,643,cs),
(194,662,o),
(178,678,o),
(158,678,cs),
(139,678,o),
(123,662,o),
(123,643,cs),
(123,623,o),
(139,607,o),
(158,607,cs)
);
},
{
closed = 1;
nodes = (
(165,654,o),
(170,649,o),
(170,643,cs),
(170,636,o),
(165,631,o),
(158,631,cs),
(152,631,o),
(147,636,o),
(147,643,cs),
(147,649,o),
(152,654,o),
(158,654,cs)
);
},
{
closed = 1;
nodes = (
(391,440,o),
(378,459,o),
(359,462,cs),
(339,466,o),
(321,453,o),
(317,434,cs),
(315,424,o),
(317,415,o),
(323,407,cs),
(328,399,o),
(336,394,o),
(346,392,c),
(352,392,l),
(369,392,o),
(384,404,o),
(387,421,cs)
);
},
{
closed = 1;
nodes = (
(363,422,o),
(361,419,o),
(359,418,cs),
(356,416,o),
(353,415,o),
(350,416,c),
(347,416,o),
(344,418,o),
(343,421,c),
(341,423,o),
(340,426,o),
(341,429,cs),
(342,436,o),
(348,440,o),
(354,439,cs),
(361,438,o),
(365,432,o),
(364,425,cs)
);
},
{
closed = 1;
nodes = (
(259,603,o),
(275,619,o),
(275,638,cs),
(275,658,o),
(259,674,o),
(239,674,cs),
(219,674,o),
(203,658,o),
(203,638,cs),
(203,619,o),
(219,603,o),
(239,603,cs)
);
},
{
closed = 1;
nodes = (
(245,650,o),
(251,645,o),
(251,638,cs),
(251,632,o),
(245,627,o),
(239,627,cs),
(233,627,o),
(227,632,o),
(227,638,cs),
(227,645,o),
(233,650,o),
(239,650,cs)
);
}
);
width = 655;
}
);
unicode = (104,165);
},
{
glyphname = i;
layers = (
{
layerId = "3D7C3D5E-7EBF-4B0D-83EE-E00796F45C97";
shapes = (
{
closed = 1;
nodes = (
(442,501,l),
(439,506,o),
(436,511,o),
(431,515,cs),
(425,521,o),
(418,526,o),
(411,529,c),
(419,554,ls),
(421,560,o),
(418,567,o),
(411,569,cs),
(405,571,o),
(398,568,o),
(396,561,cs),
(388,536,l),
(380,536,ls),
(369,536,o),
(358,534,o),
(348,528,c),
(330,548,ls),
(326,553,o),
(318,553,o),
(313,548,cs),
(308,544,o),
(308,536,o),
(312,532,cs),
(328,514,l),
(294,479,l),
(294,580,l),
(321,599,ls),
(326,602,o),
(328,610,o),
(324,615,cs),
(320,621,o),
(313,622,o),
(307,618,cs),
(286,604,l),
(278,621,o),
(266,636,o),
(250,646,c),
(266,664,ls),
(270,669,o),
(269,677,o),
(264,681,cs),
(259,685,o),
(252,685,o),
(247,680,cs),
(227,656,l),
(219,658,o),
(210,660,o),
(201,660,cs),
(193,660,o),
(186,659,o),
(179,657,c),
(171,684,ls),
(169,691,o),
(162,694,o),
(156,692,cs),
(149,690,o),
(146,684,o),
(148,677,cs),
(156,648,l),
(145,642,o),
(135,634,o),
(127,623,c),
(111,642,l),
(106,646,o),
(99,647,o),
(94,642,cs),
(89,638,o),
(89,630,o),
(93,625,cs),
(115,602,l),
(110,591,o),
(108,579,o),
(108,567,cs),
(108,516,l),
(88,527,ls),
(82,530,o),
(74,527,o),
(71,522,cs),
(68,516,o),
(70,509,o),
(76,505,c),
(108,489,l),
(108,389,l),
(88,399,l),
(82,403,o),
(74,400,o),
(71,395,cs),
(68,389,o),
(70,381,o),
(76,378,cs),
(108,361,l),
(108,247,l),
(62,247,ls),
(59,247,o),
(55,245,o),
(53,242,cs),
(51,239,o),
(50,236,o),
(51,232,cs),
(99,9,ls),
(100,4,o),
(105,0,o),
(111,0,cs),
(305,0,ls),
(311,0,o),
(316,4,o),
(317,9,cs),
(366,232,l),
(366,239,o),
(362,247,o),
(354,247,cs),
(294,247,l),
(294,276,l),
(431,414,ls),
(449,432,o),
(455,456,o),
(451,479,c),
(478,489,ls),
(485,492,o),
(488,499,o),
(485,505,cs),
(483,511,o),
(476,514,o),
(470,512,cs)
);
},
{
closed = 1;
nodes = (
(296,24,l),
(120,24,l),
(77,223,l),
(339,223,l)
);
},
{
closed = 1;
nodes = (
(239,636,o),
(270,605,o),
(270,567,cs),
(270,454,l),
(269,451,o),
(269,448,o),
(270,445,c),
(270,249,l),
(132,249,l),
(132,567,ls),
(132,605,o),
(163,636,o),
(201,636,cs)
);
},
{
closed = 1;
nodes = (
(294,310,l),
(294,445,l),
(355,505,ls),
(370,520,o),
(398,514,o),
(414,498,cs),
(423,489,o),
(428,477,o),
(428,465,cs),
(428,452,o),
(423,440,o),
(414,431,cs)
);
},
{
closed = 1;
nodes = (
(186,574,o),
(192,580,o),
(192,588,cs),
(192,595,o),
(186,601,o),
(178,601,cs),
(171,601,o),
(165,595,o),
(165,588,cs),
(165,580,o),
(171,574,o),
(178,574,cs)
);
},
{
closed = 1;
nodes = (
(236,572,o),
(242,578,o),
(242,586,cs),
(242,593,o),
(236,600,o),
(229,600,cs),
(221,600,o),
(215,593,o),
(215,586,cs),
(215,578,o),
(221,572,o),
(229,572,cs)
);
},
{
closed = 1;
nodes = (
(170,519,o),
(176,512,o),
(184,512,cs),
(191,512,o),
(197,519,o),
(197,526,cs),
(197,534,o),
(191,540,o),
(184,540,cs),
(176,540,o),
(170,534,o),
(170,526,cs)
);
},
{
closed = 1;
nodes = (
(229,468,o),
(235,462,o),
(242,462,cs),
(250,462,o),
(256,468,o),
(256,476,cs),
(256,483,o),
(250,489,o),
(242,489,cs),
(235,489,o),
(229,483,o),
(229,476,cs)
);
},
{
closed = 1;
nodes = (
(174,417,o),
(180,423,o),
(180,431,cs),
(180,438,o),
(174,444,o),
(166,444,cs),
(159,444,o),
(153,438,o),
(153,431,cs),
(153,423,o),
(159,417,o),
(166,417,cs)
);
},
{
closed = 1;
nodes = (
(223,394,o),
(217,388,o),
(217,380,cs),
(217,373,o),
(223,367,o),
(230,367,cs),
(238,367,o),
(244,373,o),
(244,380,cs),
(244,388,o),
(238,394,o),
(230,394,cs)
);
},
{
closed = 1;
nodes = (
(172,319,o),
(166,313,o),
(166,306,cs),
(166,298,o),
(172,292,o),
(180,292,cs),
(188,292,o),
(194,298,o),
(194,306,cs),
(194,313,o),
(188,319,o),
(180,319,cs)
);
},
{
closed = 1;
nodes = (
(322,418,o),
(316,412,o),
(316,405,cs),
(316,397,o),
(322,391,o),
(330,391,cs),
(337,391,o),
(343,397,o),
(343,405,cs),
(343,412,o),
(337,418,o),
(330,418,cs)
);
},
{
closed = 1;
nodes = (
(372,489,o),
(366,483,o),
(366,476,cs),
(366,468,o),
(372,462,o),
(380,462,cs),
(388,462,o),
(394,468,o),
(394,476,cs),
(394,483,o),
(388,489,o),
(380,489,cs)
);
}
);
width = 537;
}
);
unicode = (105,402);
},
{
glyphname = j;
layers = (
{
layerId = "3D7C3D5E-7EBF-4B0D-83EE-E00796F45C97";
shapes = (
{
closed = 1;
nodes = (
(730,246,o),
(711,289,o),
(669,341,cs),
(618,407,o),
(545,461,o),
(465,488,cs),
(367,523,o),
(287,521,o),
(238,512,cs),
(184,503,o),
(154,485,o),
(153,485,cs),
(142,478,o),
(134,403,o),
(133,388,c),
(55,334,l),
(52,331,o),
(50,327,o),
(50,322,c),
(51,318,o),
(54,314,o),
(59,313,c),
(146,285,l),
(161,190,l),
(161,185,o),
(165,181,o),
(170,180,c),
(173,180,l),
(177,180,o),
(181,182,o),
(183,185,cs),
(235,271,l),
(323,266,l),
(327,266,o),
(330,268,o),
(333,270,c),
(346,274,o),
(416,295,o),
(493,302,cs),
(542,306,o),
(585,304,o),
(620,295,cs),
(661,284,o),
(693,264,o),
(708,234,cs),
(712,226,o),
(731,223,o),
(730,244,cs)
);
},
{
closed = 1;
nodes = (
(328,438,l),
(412,438,o),
(504,404,o),
(574,358,c),
(572,359,o),
(570,360,o),
(568,360,c),
(524,375,o),
(477,382,o),
(427,383,cs),
(369,384,o),
(322,375,o),
(297,369,c)
);
},
{
closed = 1;
nodes = (
(290,496,o),
(364,499,o),
(457,466,cs),
(540,436,o),
(599,385,o),
(637,342,c),
(583,387,o),
(518,421,o),
(451,442,cs),
(375,465,o),
(319,463,o),
(317,462,cs),
(286,454,o),
(256,443,o),
(225,434,c),
(181,471,l),
(194,477,o),
(215,484,o),
(244,489,cs)
);
},
{
closed = 1;
nodes = (
(229,295,l),
(225,295,o),
(220,293,o),
(218,289,cs),
(180,226,l),
(169,296,ls),
(168,300,o),
(165,304,o),
(161,306,c),
(89,328,l),
(151,372,l),
(155,374,o),
(157,378,o),
(156,382,c),
(157,387,o),
(161,418,o),
(167,452,c),
(215,412,ls),
(218,409,o),
(222,408,o),
(226,409,cs),
(299,431,l),
(266,358,ls),
(264,354,o),
(264,350,o),
(266,347,cs),
(301,292,l)
);
},
{
closed = 1;
nodes = (
(415,319,o),
(347,300,o),
(328,294,c),
(296,344,l),
(318,350,o),
(367,360,o),
(426,359,cs),
(474,358,o),
(534,351,o),
(595,324,c),
(564,329,o),
(529,329,o),
(491,326,cs)
);
}
);
width = 781;
}
);
unicode = (106,8722);
},
{
glyphname = K;
layers = (
{
layerId = "3D7C3D5E-7EBF-4B0D-83EE-E00796F45C97";
shapes = (
{
closed = 1;
nodes = (
(544,539,o),
(520,515,o),
(520,486,cs),
(520,471,o),
(527,457,o),
(537,447,c),
(404,339,l),
(380,555,l),
(408,557,o),
(429,580,o),
(429,608,cs),
(429,637,o),
(406,661,o),
(376,661,cs),
(347,661,o),
(323,637,o),
(323,608,cs),
(323,588,o),
(334,571,o),
(350,562,c),
(236,388,l),
(132,488,l),
(147,498,o),
(156,514,o),
(156,533,cs),
(156,562,o),
(132,586,o),
(103,586,cs),
(74,586,o),
(50,562,o),
(50,533,cs),
(50,498,o),
(75,480,o),
(107,480,c),
(131,171,l),
(132,166,o),
(135,162,o),
(140,161,cs),
(478,70,l),
(481,70,l),
(483,70,o),
(486,70,o),
(488,71,cs),
(490,73,o),
(492,76,o),
(493,79,cs),
(566,433,l),
(574,433,ls),
(603,433,o),
(627,457,o),
(627,486,cs),
(627,515,o),
(603,539,o),
(574,539,cs)
);
},
{
closed = 1;
nodes = (
(74,549,o),
(87,562,o),
(103,562,cs),
(119,562,o),
(132,549,o),
(132,533,cs),
(132,516,o),
(119,503,o),
(103,503,cs),
(87,503,o),
(74,516,o),
(74,533,cs)
);
},
{
closed = 1;
nodes = (
(392,637,o),
(405,624,o),
(405,608,cs),
(405,592,o),
(392,579,o),
(376,579,cs),
(360,579,o),
(347,592,o),
(347,608,cs),
(347,624,o),
(360,637,o),
(376,637,cs)
);
},
{
closed = 1;
nodes = (
(472,96,l),
(155,182,l),
(133,454,l),
(229,360,l),
(232,358,o),
(235,357,o),
(239,357,cs),
(242,357,o),
(246,359,o),
(248,362,cs),
(359,532,l),
(383,314,l),
(383,310,o),
(386,306,o),
(390,304,cs),
(394,303,o),
(399,303,o),
(403,306,cs),
(538,418,l)
);
},
{
closed = 1;
nodes = (
(558,457,o),
(544,469,o),
(544,486,cs),
(544,502,o),
(557,515,o),
(574,515,cs),
(590,515,o),
(603,502,o),
(603,486,cs),
(603,470,o),
(590,457,o),
(574,457,cs)
);
}
);
width = 677;
}
);
unicode = 75;
},
{
glyphname = L;
layers = (
{
layerId = "3D7C3D5E-7EBF-4B0D-83EE-E00796F45C97";
shapes = (
{
closed = 1;
nodes = (
(58,454,ls),
(54,452,o),
(51,449,o),
(51,444,c),
(50,440,o),
(52,436,o),
(55,433,c),
(199,328,l),
(277,161,ls),
(281,153,o),
(289,152,o),
(295,156,cs),
(391,222,l),
(489,162,ls),
(491,161,o),
(493,160,o),
(495,160,c),
(497,160,o),
(498,160,o),
(499,161,c),
(503,162,o),
(506,165,o),
(507,169,cs),
(653,651,ls),
(656,661,o),
(649,670,o),
(639,666,cs)
);
},
{
closed = 1;
nodes = (
(567,614,l),
(209,350,l),
(88,439,l)
);
},
{
closed = 1;
nodes = (
(521,550,l),
(280,309,ls),
(277,306,o),
(276,304,o),
(276,301,c),
(276,220,l),
(224,332,l)
);
},
{
closed = 1;
nodes = (
(300,189,l),
(300,279,l),
(369,236,l)
);
},
{
closed = 1;
nodes = (
(488,190,l),
(398,247,l),
(397,247,l),
(307,303,l),
(616,612,l)
);
},
{
closed = 1;
nodes = (
(97,36,o),
(96,34,o),
(98,36,c)
);
},
{
closed = 1;
nodes = (
(212,9,o),
(228,-3,o),
(235,9,cs),
(251,35,o),
(281,41,o),
(298,50,cs),
(329,66,o),
(347,92,o),
(354,116,cs),
(357,129,o),
(338,135,o),
(334,122,cs),
(330,106,o),
(319,84,o),
(286,66,cs),
(267,55,o),
(236,49,o),
(219,21,cs)
);
},
{
closed = 1;
nodes = (
(67,29,o),
(83,17,o),
(90,29,cs),
(106,55,o),
(136,61,o),
(153,70,cs),
(184,86,o),
(202,112,o),
(209,136,cs),
(212,149,o),
(193,155,o),
(189,142,cs),
(185,126,o),
(174,104,o),
(141,86,cs),
(122,75,o),
(91,69,o),
(74,41,cs)
);
},
{
closed = 1;
nodes = (
(55,148,o),
(71,136,o),
(78,148,cs),
(94,174,o),
(124,180,o),
(141,189,cs),
(172,205,o),
(190,231,o),
(197,255,cs),
(200,268,o),
(181,274,o),
(177,261,cs),
(173,245,o),
(162,223,o),
(129,205,cs),
(110,194,o),
(79,188,o),
(62,160,cs)
);
}
);
width = 704;
}
);
unicode = 76;
},
{
glyphname = M;
layers = (
{
layerId = "3D7C3D5E-7EBF-4B0D-83EE-E00796F45C97";
shapes = (
{
closed = 1;
nodes = (
(347,280,l),
(528,461,ls),
(533,466,o),
(533,473,o),
(528,478,cs),
(475,531,o),
(405,560,o),
(330,560,cs),
(175,560,o),
(50,435,o),
(50,280,cs),
(50,125,o),
(175,0,o),
(330,0,cs),
(408,0,o),
(482,28,o),
(533,87,cs),
(538,92,o),
(537,99,o),
(532,104,cs)
);
},
{
closed = 1;
nodes = (
(189,24,o),
(74,139,o),
(74,280,cs),
(74,421,o),
(189,536,o),
(330,536,cs),
(394,536,o),
(455,512,o),
(502,469,c),
(322,288,l),
(319,286,o),
(318,283,o),
(318,280,cs),
(318,276,o),
(319,273,o),
(322,271,cs),
(507,95,l),
(459,49,o),
(397,24,o),
(330,24,cs)
);
},
{
closed = 1;
nodes = (
(385,417,ls),
(387,415,o),
(390,414,o),
(393,414,cs),
(396,414,o),
(399,415,o),
(402,417,c),
(406,422,o),
(406,429,o),
(402,434,c),
(353,483,ls),
(351,485,o),
(348,486,o),
(344,486,cs),
(341,486,o),
(338,485,o),
(336,483,cs),
(287,434,l),
(283,429,o),
(283,422,o),
(287,417,c),
(292,413,o),
(300,413,o),
(304,417,cs),
(344,457,l)
);
}
);
width = 587;
}
);
unicode = 77;
},
{
glyphname = N;
layers = (
{
layerId = "3D7C3D5E-7EBF-4B0D-83EE-E00796F45C97";
shapes = (
{
closed = 1;
nodes = (
(138,582,ls),
(133,586,o),
(127,587,o),
(123,584,cs),
(118,581,o),
(116,575,o),
(118,569,cs),
(198,368,l),
(57,299,ls),
(53,297,o),
(51,294,o),
(50,290,c),
(50,286,o),
(51,282,o),
(54,279,cs),
(344,3,ls),
(346,1,o),
(349,0,o),
(352,0,c),
(354,0,o),
(356,1,o),
(358,2,cs),
(363,5,o),
(365,11,o),
(363,16,cs),
(287,219,l),
(424,287,ls),
(428,289,o),
(430,292,o),
(431,296,cs),
(432,300,o),
(430,304,o),
(427,307,cs)
);
},
{
closed = 1;
nodes = (
(266,235,ls),
(261,233,o),
(258,226,o),
(260,220,cs),
(322,57,l),
(83,285,l),
(218,352,l),
(224,354,o),
(226,361,o),
(224,367,cs),
(160,528,l),
(398,301,l)
);
}
);
width = 482;
}
);
unicode = 78;
},
{
glyphname = O;
layers = (
{
layerId = "3D7C3D5E-7EBF-4B0D-83EE-E00796F45C97";
shapes = (
{
closed = 1;
nodes = (
(541,459,o),
(533,477,o),
(520,490,cs),
(502,508,o),
(478,514,o),
(455,510,c),
(460,532,o),
(453,557,o),
(436,574,cs),
(408,602,o),
(363,602,o),
(335,574,cs),
(315,555,o),
(303,528,o),
(295,499,c),
(288,528,o),
(276,555,o),
(256,574,cs),
(228,602,o),
(183,602,o),
(155,574,cs),
(142,561,o),
(134,543,o),
(134,524,cs),
(134,519,o),
(135,514,o),
(135,510,c),
(131,511,o),
(126,511,o),
(121,511,cs),
(102,511,o),
(84,504,o),
(71,490,c),
(57,477,o),
(50,459,o),
(50,440,cs),
(50,389,o),
(101,361,o),
(145,350,c),
(117,342,o),
(91,330,o),
(71,311,cs),
(43,283,o),
(43,237,o),
(71,210,c),
(84,196,o),
(102,189,o),
(121,189,cs),
(126,189,o),
(131,189,o),
(135,190,c),
(135,185,o),
(134,181,o),
(134,176,cs),
(134,157,o),
(142,139,o),
(155,125,c),
(169,112,o),
(187,105,o),
(205,105,cs),
(257,105,o),
(284,154,o),
(295,199,c),
(307,156,o),
(334,105,o),
(385,105,cs),
(404,105,o),
(422,112,o),
(436,125,c),
(453,143,o),
(460,167,o),
(455,190,c),
(478,186,o),
(502,192,o),
(520,210,cs),
(548,237,o),
(548,283,o),
(520,311,cs),
(500,330,o),
(473,342,o),
(445,350,c),
(473,357,o),
(500,370,o),
(520,389,c),
(533,403,o),
(541,421,o),
(541,440,cs)
);
},
{
closed = 1;
nodes = (
(74,465,o),
(96,487,o),
(121,487,cs),
(134,487,o),
(146,482,o),
(155,473,cs),
(160,469,o),
(167,469,o),
(172,473,c),
(174,476,o),
(175,479,o),
(175,482,cs),
(175,485,o),
(174,488,o),
(172,490,cs),
(163,499,o),
(158,511,o),
(158,524,cs),
(158,537,o),
(163,549,o),
(172,558,cs),
(190,576,o),
(221,576,o),
(239,558,cs),
(289,508,o),
(282,397,o),
(279,364,c),
(247,362,o),
(138,356,o),
(88,406,cs),
(79,415,o),
(74,427,o),
(74,440,cs)
);
},
{
closed = 1;
nodes = (
(221,124,o),
(190,124,o),
(172,142,cs),
(163,151,o),
(158,163,o),
(158,176,cs),
(158,189,o),
(163,201,o),
(172,209,cs),
(177,214,o),
(177,222,o),
(172,226,c),
(172,227,l),
(169,229,o),
(166,230,o),
(163,230,cs),
(160,230,o),
(157,229,o),
(155,227,cs),
(146,218,o),
(134,213,o),
(121,213,cs),
(109,213,o),
(97,218,o),
(88,227,cs),
(69,245,o),
(69,275,o),
(88,294,cs),
(138,344,o),
(248,337,o),
(281,334,c),
(284,301,o),
(289,192,o),
(239,142,cs)
);
},
{
closed = 1;
nodes = (
(484,208,o),
(454,208,o),
(436,227,cs),
(434,229,o),
(431,230,o),
(427,230,c),
(424,230,o),
(421,229,o),
(419,227,c),
(419,226,l),
(414,222,o),
(414,214,o),
(419,209,cs),
(437,191,o),
(437,161,o),
(419,142,c),
(400,124,o),
(370,124,o),
(352,142,cs),
(302,192,o),
(307,301,o),
(310,334,c),
(343,337,o),
(453,344,o),
(503,294,cs),
(521,275,o),
(521,245,o),
(503,227,cs)
);
},
{
closed = 1;
nodes = (
(453,356,o),
(344,362,o),
(312,364,c),
(308,397,o),
(302,508,o),
(352,558,cs),
(370,576,o),
(400,576,o),
(419,558,c),
(437,539,o),
(437,509,o),
(419,490,c),
(414,486,o),
(414,478,o),
(419,474,c),
(419,473,l),
(421,471,o),
(424,470,o),
(427,470,c),
(431,470,o),
(434,471,o),
(436,473,cs),
(454,492,o),
(484,492,o),
(503,473,cs),
(512,464,o),
(517,453,o),
(517,440,cs),
(517,427,o),
(512,415,o),
(503,406,cs)
);
}
);
width = 591;
}
);
unicode = 79;
},
{
glyphname = P;
layers = (
{
layerId = "3D7C3D5E-7EBF-4B0D-83EE-E00796F45C97";
shapes = (
{
closed = 1;
nodes = (
(237,645,o),
(104,514,o),
(104,350,cs),
(104,186,o),
(237,55,o),
(400,55,cs),
(564,55,o),
(695,186,o),
(695,350,cs),
(695,514,o),
(564,645,o),
(400,645,cs)
);
},
{
closed = 1;
nodes = (
(248,74,o),
(124,198,o),
(124,350,cs),
(124,502,o),
(248,626,o),
(400,626,cs),
(552,626,o),
(676,502,o),
(676,350,cs),
(676,198,o),
(552,74,o),
(400,74,cs)
);
},
{
closed = 1;
nodes = (
(208,700,o),
(50,545,o),
(50,350,cs),
(50,158,o),
(205,0,o),
(400,0,cs),
(591,0,o),
(750,157,o),
(750,350,cs),
(750,541,o),
(594,700,o),
(400,700,cs)
);
},
{
closed = 1;
nodes = (
(217,19,o),
(69,168,o),
(69,350,cs),
(69,532,o),
(217,680,o),
(400,680,cs),
(582,680,o),
(730,532,o),
(730,350,cs),
(730,168,o),
(582,19,o),
(400,19,cs)
);
},
{
closed = 1;
nodes = (
(380,339,o),
(389,330,o),
(400,330,cs),
(411,330,o),
(420,339,o),
(420,350,cs),
(420,361,o),
(411,370,o),
(400,370,cs),
(389,370,o),
(380,361,o),
(380,350,cs)
);
},
{
closed = 1;
nodes = (
(409,499,ls),
(408,503,o),
(404,506,o),
(400,506,cs),
(396,506,o),
(392,503,o),
(390,499,c),
(342,353,ls),
(341,351,o),
(341,349,o),
(342,347,cs),
(389,201,ls),
(390,197,o),
(394,194,o),
(398,194,c),
(402,194,o),
(406,197,o),
(407,201,cs),
(458,347,l),
(458,353,l)
);
},
{
closed = 1;
nodes = (
(398,235,l),
(361,350,l),
(400,465,l),
(438,350,l)
);
},
{
closed = 1;
nodes = (
(379,535,o),
(383,539,o),
(383,544,cs),
(383,567,l),
(420,537,l),
(421,535,o),
(424,535,o),
(426,535,c),
(427,535,o),
(429,535,o),
(430,536,c),
(433,537,o),
(436,541,o),
(436,544,cs),
(436,588,ls),
(436,593,o),
(431,598,o),
(426,598,cs),
(421,598,o),
(416,593,o),
(416,588,cs),
(416,565,l),
(380,595,ls),
(377,598,o),
(373,598,o),
(369,597,c),
(366,595,o),
(364,592,o),
(364,588,cs),
(364,544,ls),
(364,539,o),
(368,535,o),
(374,535,cs)
);
},
{
closed = 1;
nodes = (
(240,371,ls),
(242,376,o),
(239,382,o),
(234,383,cs),
(229,385,o),
(224,383,o),
(222,377,cs),
(215,358,l),
(206,378,ls),
(204,382,o),
(201,384,o),
(197,384,c),
(193,384,o),
(190,382,o),
(188,379,cs),
(178,358,l),
(172,377,l),
(171,382,o),
(165,385,o),
(160,384,cs),
(155,382,o),
(152,376,o),
(154,371,cs),
(167,329,ls),
(168,326,o),
(172,323,o),
(175,323,c),
(176,323,l),
(180,323,o),
(183,325,o),
(185,328,cs),
(197,352,l),
(208,328,ls),
(209,325,o),
(213,322,o),
(217,323,c),
(221,323,o),
(224,325,o),
(226,329,c)
);
},
{
closed = 1;
nodes = (
(393,149,o),
(395,151,o),
(397,151,cs),
(400,151,o),
(402,150,o),
(404,149,c),
(413,146,o),
(420,169,o),
(397,169,cs),
(384,169,o),
(374,159,o),
(374,146,cs),
(374,130,o),
(400,127,o),
(400,120,cs),
(400,118,o),
(399,116,o),
(397,116,cs),
(392,116,o),
(386,117,o),
(385,117,c),
(379,118,o),
(375,114,o),
(374,109,cs),
(373,103,o),
(376,99,o),
(382,98,cs),
(383,98,o),
(391,97,o),
(397,97,cs),
(409,97,o),
(419,107,o),
(419,120,cs),
(419,137,o),
(392,141,o),
(393,147,cs)
);
},
{
closed = 1;
nodes = (
(238,527,ls),
(234,531,o),
(228,531,o),
(224,527,cs),
(220,523,o),
(220,517,o),
(224,513,cs),
(272,465,ls),
(274,463,o),
(276,462,o),
(279,462,c),
(281,462,o),
(284,463,o),
(286,465,cs),
(290,469,o),
(290,475,o),
(286,479,cs)
);
},
{
closed = 1;
nodes = (
(529,236,ls),
(525,240,o),
(519,240,o),
(515,236,cs),
(512,232,o),
(512,226,o),
(515,222,c),
(563,174,ls),
(565,172,o),
(568,171,o),
(570,171,c),
(573,171,o),
(575,172,o),
(577,174,cs),
(581,178,o),
(581,184,o),
(577,188,cs)
);
},
{
closed = 1;
nodes = (
(515,479,l),
(512,475,o),
(512,469,o),
(515,465,cs),
(517,463,o),
(520,462,o),
(522,462,c),
(525,462,o),
(527,463,o),
(529,465,cs),
(577,513,ls),
(581,517,o),
(581,523,o),
(577,527,cs),
(573,531,o),
(567,531,o),
(563,527,cs)
);
},
{
closed = 1;
nodes = (
(224,188,ls),
(220,184,o),
(220,178,o),
(224,174,cs),
(226,172,o),
(229,171,o),
(231,171,c),
(234,171,o),
(236,172,o),
(238,174,cs),
(286,222,ls),
(290,226,o),
(290,232,o),
(286,236,cs),
(282,240,o),
(276,240,o),
(272,236,cs)
);
},
{
closed = 1;
nodes = (
(638,311,o),
(642,316,o),
(642,321,cs),
(642,326,o),
(638,331,o),
(632,331,cs),
(624,331,o),
(616,336,o),
(613,343,c),
(614,343,o),
(615,342,o),
(616,342,c),
(632,342,ls),
(638,342,o),
(642,347,o),
(642,352,cs),
(642,358,o),
(638,362,o),
(632,362,cs),
(616,362,l),
(615,362,o),
(614,362,o),
(613,361,c),
(616,369,o),
(624,374,o),
(632,374,cs),
(638,374,o),
(642,378,o),
(642,383,cs),
(642,389,o),
(638,393,o),
(632,393,cs),
(610,393,o),
(591,375,o),
(591,352,cs),
(591,330,o),
(610,311,o),
(632,311,cs)
);
}
);
width = 800;
}
);
unicode = 80;
},
{
glyphname = Q;
layers = (
{
layerId = "3D7C3D5E-7EBF-4B0D-83EE-E00796F45C97";
shapes = (
{
closed = 1;
nodes = (
(470,514,l),
(470,572,ls),
(470,579,o),
(463,586,o),
(456,586,cs),
(259,586,ls),
(252,586,o),
(245,579,o),
(245,572,cs),
(245,514,l),
(198,514,l),
(198,546,ls),
(198,553,o),
(193,558,o),
(186,558,cs),
(136,558,ls),
(129,558,o),
(124,553,o),
(124,546,cs),
(124,514,l),
(83,514,o),
(50,481,o),
(50,440,cs),
(50,132,ls),
(50,91,o),
(83,58,o),
(124,58,cs),
(584,58,ls),
(625,58,o),
(658,91,o),
(658,132,cs),
(658,440,ls),
(658,481,o),
(625,514,o),
(584,514,cs)
);
},
{
closed = 1;
nodes = (
(269,562,l),
(446,562,l),
(446,516,l),
(269,516,l)
);
},
{
closed = 1;
nodes = (
(148,534,l),
(174,534,l),
(174,517,l),
(148,517,l)
);
},
{
closed = 1;
nodes = (
(634,132,ls),
(634,104,o),
(612,82,o),
(584,82,cs),
(124,82,ls),
(96,82,o),
(74,104,o),
(74,132,cs),
(74,440,ls),
(74,468,o),
(96,490,o),
(124,490,cs),
(584,490,ls),
(612,490,o),
(634,468,o),
(634,440,cs)
);
},
{
closed = 1;
nodes = (
(267,444,o),
(196,373,o),
(196,286,cs),
(196,199,o),
(267,128,o),
(354,128,cs),
(441,128,o),
(512,199,o),
(512,286,cs),
(512,373,o),
(441,444,o),
(354,444,cs)
);
},
{
closed = 1;
nodes = (
(280,152,o),
(220,212,o),
(220,286,cs),
(220,360,o),
(280,420,o),
(354,420,cs),
(428,420,o),
(488,360,o),
(488,286,cs),
(488,212,o),
(428,152,o),
(354,152,cs)
);
},
{
closed = 1;
nodes = (
(166,569,o),
(171,574,o),
(171,581,cs),
(171,622,ls),
(171,629,o),
(166,634,o),
(159,634,cs),
(153,634,o),
(147,629,o),
(147,622,cs),
(147,581,ls),
(147,574,o),
(153,569,o),
(159,569,cs)
);
},
{
closed = 1;
nodes = (
(212,561,o),
(215,563,o),
(217,565,cs),
(247,594,l),
(251,599,o),
(251,607,o),
(247,611,cs),
(242,616,o),
(234,616,o),
(230,611,c),
(200,582,l),
(196,577,o),
(196,570,o),
(200,565,c),
(203,563,o),
(206,561,o),
(209,561,cs)
);
},
{
closed = 1;
nodes = (
(108,565,ls),
(110,563,o),
(113,561,o),
(116,561,cs),
(120,561,o),
(123,563,o),
(125,565,cs),
(130,570,o),
(130,577,o),
(125,582,cs),
(95,611,l),
(91,616,o),
(83,616,o),
(79,611,c),
(74,607,o),
(74,599,o),
(79,594,cs)
);
},
{
closed = 1;
nodes = (
(301,390,o),
(257,346,o),
(257,293,cs),
(257,239,o),
(301,195,o),
(355,195,cs),
(408,195,o),
(452,239,o),
(452,293,cs),
(452,346,o),
(408,390,o),
(355,390,cs)
);
},
{
closed = 1;
nodes = (
(314,219,o),
(281,252,o),
(281,293,cs),
(281,333,o),
(314,366,o),
(355,366,cs),
(395,366,o),
(428,333,o),
(428,293,cs),
(428,252,o),
(395,219,o),
(355,219,cs)
);
},
{
closed = 1;
nodes = (
(347,335,o),
(341,330,o),
(341,323,cs),
(341,317,o),
(347,311,o),
(353,311,cs),
(364,311,o),
(373,303,o),
(373,292,cs),
(373,285,o),
(378,280,o),
(385,280,cs),
(392,280,o),
(397,285,o),
(397,292,cs),
(397,316,o),
(377,335,o),
(353,335,cs)
);
}
);
width = 708;
}
);
unicode = 81;
},
{
glyphname = R;
layers = (
{
layerId = "3D7C3D5E-7EBF-4B0D-83EE-E00796F45C97";
shapes = (
{
closed = 1;
nodes = (
(649,339,o),
(611,373,o),
(577,403,cs),
(551,425,o),
(528,446,o),
(496,446,cs),
(462,446,o),
(445,435,o),
(430,425,c),
(417,418,o),
(408,412,o),
(390,412,cs),
(373,412,o),
(363,418,o),
(351,425,cs),
(335,435,o),
(318,446,o),
(284,446,cs),
(253,446,o),
(229,425,o),
(203,403,c),
(170,373,o),
(131,339,o),
(62,339,c),
(47,339,o),
(47,315,o),
(61,315,c),
(92,314,o),
(121,283,o),
(152,248,cs),
(178,220,o),
(207,188,o),
(244,163,cs),
(288,134,o),
(335,120,o),
(389,120,c),
(391,120,l),
(445,120,o),
(492,134,o),
(536,163,cs),
(574,188,o),
(603,220,o),
(628,248,cs),
(660,283,o),
(687,314,o),
(719,315,c),
(737,315,o),
(737,339,o),
(718,339,c)
);
},
{
closed = 1;
nodes = (
(243,406,o),
(262,422,o),
(284,422,cs),
(311,422,o),
(324,414,o),
(338,405,cs),
(352,397,o),
(366,388,o),
(390,388,cs),
(415,388,o),
(429,397,o),
(442,405,cs),
(456,414,o),
(469,422,o),
(496,422,cs),
(518,422,o),
(537,406,o),
(561,385,cs),
(583,365,o),
(608,343,o),
(642,329,c),
(626,325,o),
(614,319,o),
(602,314,cs),
(583,305,o),
(567,297,o),
(536,297,cs),
(498,297,o),
(481,303,o),
(464,310,c),
(446,316,o),
(428,323,o),
(391,323,c),
(389,323,l),
(352,323,o),
(334,316,o),
(316,310,c),
(299,303,o),
(282,297,o),
(244,297,cs),
(221,297,o),
(206,304,o),
(186,312,cs),
(173,318,o),
(159,325,o),
(139,330,c),
(173,344,o),
(198,366,o),
(219,385,cs)
);
},
{
closed = 1;
nodes = (
(423,285,o),
(408,277,o),
(390,277,cs),
(372,277,o),
(357,285,o),
(354,296,c),
(363,298,o),
(375,299,o),
(389,299,c),
(391,299,l),
(406,299,o),
(417,298,o),
(426,296,c)
);
},
{
closed = 1;
nodes = (
(559,208,o),
(502,144,o),
(391,144,c),
(389,144,l),
(279,144,o),
(221,208,o),
(170,264,cs),
(156,280,o),
(142,295,o),
(128,308,c),
(148,303,o),
(163,297,o),
(177,290,c),
(197,282,o),
(216,273,o),
(244,273,cs),
(287,273,o),
(306,280,o),
(325,287,cs),
(327,288,o),
(329,289,o),
(331,290,c),
(337,269,o),
(361,253,o),
(390,253,cs),
(419,253,o),
(444,269,o),
(450,290,c),
(452,289,o),
(454,288,o),
(456,287,cs),
(474,280,o),
(494,273,o),
(536,273,cs),
(572,273,o),
(591,282,o),
(612,292,cs),
(624,297,o),
(636,303,o),
(652,307,c),
(638,295,o),
(624,280,o),
(610,264,cs)
);
}
);
width = 780;
}
);
unicode = 82;
},
{
glyphname = S;
layers = (
{
layerId = "3D7C3D5E-7EBF-4B0D-83EE-E00796F45C97";
shapes = (
{
closed = 1;
nodes = (
(428,521,o),
(371,478,o),
(349,419,c),
(328,478,o),
(271,521,o),
(205,521,cs),
(119,521,o),
(50,451,o),
(50,366,cs),
(50,202,o),
(210,93,o),
(350,46,c),
(351,45,o),
(352,45,o),
(353,45,c),
(354,45,o),
(355,45,o),
(356,46,c),
(495,92,o),
(649,206,o),
(649,366,cs),
(649,451,o),
(580,521,o),
(494,521,cs)
);
},
{
closed = 1;
nodes = (
(340,302,o),
(344,298,o),
(349,298,c),
(350,298,l),
(355,298,o),
(359,302,o),
(359,308,cs),
(359,326,o),
(374,341,o),
(393,341,cs),
(411,341,o),
(426,326,o),
(426,308,cs),
(426,257,o),
(365,231,o),
(350,225,c),
(316,240,o),
(273,265,o),
(273,308,cs),
(273,326,o),
(288,341,o),
(306,341,cs),
(325,341,o),
(340,326,o),
(340,308,cs)
);
},
{
closed = 1;
nodes = (
(277,360,o),
(254,337,o),
(254,308,cs),
(254,278,o),
(270,250,o),
(301,229,cs),
(324,213,o),
(347,206,o),
(348,206,c),
(350,205,o),
(352,205,o),
(353,206,c),
(354,206,o),
(376,213,o),
(399,229,cs),
(429,250,o),
(445,278,o),
(445,308,cs),
(445,337,o),
(422,360,o),
(393,360,cs),
(382,360,o),
(373,357,o),
(365,352,c),
(375,376,o),
(398,392,o),
(425,392,cs),
(461,392,o),
(491,362,o),
(491,326,cs),
(491,251,o),
(416,197,o),
(351,175,c),
(286,197,o),
(208,251,o),
(208,326,cs),
(208,362,o),
(238,392,o),
(274,392,cs),
(301,392,o),
(324,376,o),
(334,352,c),
(326,357,o),
(317,360,o),
(306,360,cs)
);
},
{
closed = 1;
nodes = (
(227,411,o),
(189,373,o),
(189,326,cs),
(189,276,o),
(217,231,o),
(269,194,c),
(308,168,o),
(347,155,o),
(348,155,c),
(370,155,o),
(412,181,o),
(431,194,cs),
(483,231,o),
(510,276,o),
(510,326,cs),
(510,373,o),
(472,411,o),
(425,411,cs),
(404,411,o),
(385,404,o),
(370,391,c),
(387,424,o),
(421,446,o),
(460,446,cs),
(515,446,o),
(560,401,o),
(560,346,cs),
(560,234,o),
(449,152,o),
(352,120,c),
(254,153,o),
(139,232,o),
(139,346,cs),
(139,401,o),
(184,446,o),
(239,446,cs),
(278,446,o),
(312,424,o),
(329,391,c),
(314,404,o),
(295,411,o),
(274,411,cs)
);
},
{
closed = 1;
nodes = (
(223,108,o),
(69,215,o),
(69,366,cs),
(69,440,o),
(130,501,o),
(205,501,cs),
(255,501,o),
(299,473,o),
(322,433,c),
(300,453,o),
(271,466,o),
(239,466,cs),
(173,466,o),
(120,412,o),
(120,346,cs),
(120,263,o),
(170,202,o),
(235,157,cs),
(291,119,o),
(347,101,o),
(349,100,c),
(355,100,l),
(357,101,o),
(411,119,o),
(466,157,cs),
(531,202,o),
(579,264,o),
(579,346,cs),
(579,412,o),
(526,466,o),
(460,466,cs),
(428,466,o),
(399,453,o),
(377,433,c),
(400,473,o),
(444,501,o),
(494,501,cs),
(569,501,o),
(630,440,o),
(630,366,cs),
(630,215,o),
(482,111,o),
(353,65,c)
);
}
);
width = 699;
}
);
unicode = 83;
},
{
glyphname = T;
layers = (
{
layerId = "3D7C3D5E-7EBF-4B0D-83EE-E00796F45C97";
shapes = (
{
closed = 1;
nodes = (
(496,333,o),
(486,329,o),
(479,322,c),
(472,329,o),
(463,333,o),
(452,333,cs),
(431,333,o),
(414,315,o),
(414,294,cs),
(414,266,o),
(451,224,o),
(480,224,c),
(509,224,o),
(545,267,o),
(545,294,cs),
(545,315,o),
(528,333,o),
(506,333,cs)
);
},
{
closed = 1;
nodes = (
(469,253,o),
(438,268,o),
(438,294,cs),
(438,302,o),
(444,309,o),
(452,309,cs),
(461,309,o),
(467,302,o),
(467,294,cs),
(467,287,o),
(473,282,o),
(479,282,cs),
(486,282,o),
(491,287,o),
(491,294,cs),
(491,302,o),
(498,309,o),
(506,309,cs),
(515,309,o),
(521,302,o),
(521,294,cs),
(521,268,o),
(491,253,o),
(480,249,c)
);
},
{
closed = 1;
nodes = (
(566,467,o),
(561,471,o),
(556,471,cs),
(404,471,ls),
(398,471,o),
(392,466,o),
(392,459,cs),
(392,356,o),
(266,273,o),
(173,273,cs),
(95,273,o),
(51,240,o),
(51,163,cs),
(51,118,o),
(60,75,o),
(115,75,cs),
(152,75,l),
(152,68,l),
(152,30,o),
(182,0,o),
(220,0,cs),
(257,0,o),
(287,30,o),
(287,68,c),
(287,75,l),
(377,75,l),
(377,34,o),
(399,0,o),
(444,0,cs),
(482,0,o),
(512,30,o),
(512,68,c),
(512,75,l),
(538,75,ls),
(571,75,o),
(598,102,o),
(598,135,cs),
(598,160,ls),
(598,330,o),
(568,461,o),
(567,462,c)
);
},
{
closed = 1;
nodes = (
(161,226,ls),
(161,219,o),
(166,214,o),
(173,214,cs),
(179,214,o),
(185,219,o),
(185,226,cs),
(185,249,l),
(194,249,o),
(203,250,o),
(212,252,c),
(219,230,ls),
(221,225,o),
(225,222,o),
(230,222,c),
(232,222,o),
(233,222,o),
(234,223,c),
(240,225,o),
(244,232,o),
(242,238,cs),
(235,257,l),
(256,263,l),
(264,243,ls),
(266,238,o),
(271,235,o),
(275,235,c),
(277,235,o),
(279,236,o),
(280,236,c),
(286,239,o),
(289,246,o),
(286,252,c),
(278,273,l),
(285,276,o),
(291,279,o),
(297,283,c),
(308,262,ls),
(310,258,o),
(315,256,o),
(319,256,c),
(321,256,o),
(323,256,o),
(324,257,c),
(330,260,o),
(333,267,o),
(330,273,cs),
(318,297,l),
(322,300,o),
(326,303,o),
(330,307,c),
(345,287,ls),
(347,284,o),
(351,282,o),
(354,282,cs),
(357,282,o),
(359,283,o),
(361,285,cs),
(367,289,o),
(368,296,o),
(364,301,cs),
(348,323,l),
(353,328,o),
(358,334,o),
(363,339,c),
(376,324,ls),
(378,321,o),
(382,319,o),
(385,319,cs),
(388,319,o),
(391,320,o),
(393,322,cs),
(398,326,o),
(399,334,o),
(394,339,c),
(378,359,l),
(380,362,o),
(383,365,o),
(385,368,c),
(410,355,ls),
(412,354,o),
(414,354,o),
(416,354,c),
(420,354,o),
(424,356,o),
(426,360,cs),
(429,366,o),
(427,374,o),
(421,377,cs),
(397,389,l),
(407,410,o),
(414,430,o),
(416,447,c),
(546,447,l),
(552,416,o),
(573,308,o),
(574,172,c),
(74,172,l),
(74,225,o),
(113,245,o),
(161,248,c)
);
},
{
closed = 1;
nodes = (
(195,24,o),
(176,44,o),
(176,68,cs),
(176,92,o),
(195,112,o),
(220,112,cs),
(244,112,o),
(263,92,o),
(263,68,cs),
(263,44,o),
(244,24,o),
(220,24,cs)
);
},
{
closed = 1;
nodes = (
(420,24,o),
(400,44,o),
(400,68,cs),
(400,92,o),
(420,112,o),
(444,112,cs),
(468,112,o),
(488,92,o),
(488,68,cs),
(488,44,o),
(468,24,o),
(444,24,cs)
);
},
{
closed = 1;
nodes = (
(504,99,l),
(493,121,o),
(470,136,o),
(444,136,cs),
(418,136,o),
(396,121,o),
(384,99,c),
(280,99,l),
(268,121,o),
(246,136,o),
(220,136,cs),
(194,136,o),
(171,121,o),
(160,99,c),
(115,99,ls),
(94,99,o),
(76,117,o),
(76,139,cs),
(76,148,l),
(574,148,l),
(574,135,ls),
(574,116,o),
(558,99,o),
(538,99,cs)
);
},
{
closed = 1;
nodes = (
(213,80,o),
(208,74,o),
(208,68,cs),
(208,61,o),
(213,56,o),
(220,56,cs),
(226,56,o),
(232,61,o),
(232,68,cs),
(232,74,o),
(226,80,o),
(220,80,c)
);
},
{
closed = 1;
nodes = (
(438,80,o),
(432,74,o),
(432,68,cs),
(432,61,o),
(438,56,o),
(444,56,cs),
(451,56,o),
(456,61,o),
(456,68,cs),
(456,74,o),
(451,80,o),
(444,80,c)
);
}
);
width = 648;
}
);
unicode = 84;
},
{
glyphname = k;
layers = (
{
layerId = "3D7C3D5E-7EBF-4B0D-83EE-E00796F45C97";
shapes = (
{
closed = 1;
nodes = (
(367,493,l),
(379,485,o),
(389,473,o),
(396,461,cs),
(403,447,o),
(425,458,o),
(417,473,cs),
(405,493,o),
(400,513,o),
(402,532,cs),
(405,552,o),
(417,568,o),
(438,581,cs),
(443,584,o),
(445,591,o),
(442,597,c),
(440,600,o),
(437,602,o),
(434,603,cs),
(431,604,o),
(428,603,o),
(425,601,cs),
(373,571,o),
(342,598,o),
(326,626,cs),
(322,632,o),
(315,633,o),
(309,630,cs),
(304,627,o),
(302,619,o),
(305,614,cs),
(316,594,o),
(320,576,o),
(317,560,cs),
(313,543,o),
(300,527,o),
(279,515,cs),
(273,511,o),
(271,504,o),
(275,498,cs),
(278,494,o),
(286,491,o),
(291,494,cs),
(305,504,o),
(320,506,o),
(333,505,c),
(53,101,l),
(50,96,o),
(50,90,o),
(54,86,c),
(122,18,o),
(271,0,o),
(363,0,cs),
(392,0,o),
(423,1,o),
(454,4,c),
(461,4,o),
(465,12,o),
(465,18,c)
);
},
{
closed = 1;
nodes = (
(335,537,o),
(338,546,o),
(340,555,cs),
(342,561,o),
(342,568,o),
(342,575,c),
(348,571,o),
(354,569,o),
(361,567,cs),
(370,564,o),
(379,563,o),
(388,564,c),
(379,549,o),
(378,531,o),
(378,514,c),
(362,525,o),
(348,529,o),
(329,529,c)
);
},
{
closed = 1;
nodes = (
(112,144,l),
(122,138,o),
(133,134,o),
(144,132,cs),
(148,131,o),
(152,131,o),
(155,131,cs),
(176,131,o),
(194,141,o),
(212,151,cs),
(235,163,o),
(256,174,o),
(282,169,cs),
(306,165,o),
(319,160,o),
(330,156,cs),
(344,151,o),
(356,147,o),
(383,145,cs),
(394,144,o),
(404,146,o),
(413,150,c),
(416,138,l),
(408,129,o),
(397,125,o),
(385,125,c),
(361,127,o),
(351,130,o),
(338,135,cs),
(327,139,o),
(312,144,o),
(286,149,cs),
(252,155,o),
(225,141,o),
(201,128,cs),
(182,118,o),
(165,109,o),
(148,112,cs),
(134,115,o),
(119,122,o),
(105,134,c)
);
},
{
closed = 1;
nodes = (
(188,254,l),
(197,249,o),
(206,245,o),
(215,243,c),
(223,243,ls),
(237,243,o),
(250,249,o),
(262,256,cs),
(276,263,o),
(289,270,o),
(304,267,cs),
(319,265,o),
(327,262,o),
(334,259,cs),
(344,256,o),
(352,253,o),
(370,252,cs),
(377,251,o),
(385,253,o),
(391,256,c),
(408,175,l),
(401,170,o),
(394,169,o),
(385,169,c),
(361,171,o),
(351,174,o),
(338,179,cs),
(327,183,o),
(312,188,o),
(286,193,cs),
(252,199,o),
(225,185,o),
(201,172,cs),
(182,162,o),
(165,153,o),
(148,156,cs),
(141,157,o),
(133,160,o),
(126,164,c)
);
},
{
closed = 1;
nodes = (
(213,290,l),
(215,290,l),
(218,289,o),
(220,289,o),
(223,289,cs),
(237,289,o),
(250,295,o),
(262,302,cs),
(276,309,o),
(289,316,o),
(304,313,cs),
(319,311,o),
(327,308,o),
(334,305,cs),
(344,302,o),
(352,299,o),
(370,298,c),
(374,298,o),
(378,298,o),
(382,299,c),
(386,281,l),
(382,277,o),
(377,275,o),
(371,276,cs),
(357,277,o),
(351,279,o),
(342,282,cs),
(335,284,o),
(325,288,o),
(308,291,cs),
(285,295,o),
(266,285,o),
(250,277,cs),
(239,271,o),
(229,265,o),
(219,267,cs),
(213,268,o),
(208,270,o),
(202,274,c)
);
},
{
closed = 1;
nodes = (
(345,481,l),
(378,322,l),
(371,322,l),
(357,323,o),
(351,325,o),
(342,328,cs),
(335,331,o),
(325,334,o),
(308,337,cs),
(285,341,o),
(266,331,o),
(250,323,cs),
(243,319,o),
(236,315,o),
(229,314,c)
);
},
{
closed = 1;
nodes = (
(113,71,o),
(90,87,o),
(79,96,c),
(91,114,l),
(108,100,o),
(126,92,o),
(144,88,c),
(173,88,o),
(186,93,o),
(212,107,cs),
(235,119,o),
(256,130,o),
(282,125,cs),
(306,121,o),
(319,116,o),
(330,113,cs),
(344,108,o),
(356,103,o),
(383,102,c),
(397,100,o),
(410,104,o),
(421,111,c),
(438,27,l),
(297,16,o),
(206,37,o),
(153,56,cs)
);
}
);
width = 515;
}
);
unicode = 107;
},
{
glyphname = l;
layers = (
{
layerId = "3D7C3D5E-7EBF-4B0D-83EE-E00796F45C97";
shapes = (
{
closed = 1;
nodes = (
(625,65,o),
(605,122,o),
(541,122,cs),
(477,122,o),
(457,65,o),
(415,65,cs),
(373,65,o),
(353,122,o),
(289,122,cs),
(225,122,o),
(205,65,o),
(163,65,cs),
(97,65,o),
(83,126,o),
(74,126,cs),
(68,126,o),
(61,121,o),
(62,115,cs),
(70,75,o),
(119,41,o),
(163,41,cs),
(220,41,o),
(236,98,o),
(289,98,cs),
(342,98,o),
(358,41,o),
(415,41,cs),
(472,41,o),
(488,98,o),
(541,98,cs),
(594,98,o),
(610,41,o),
(667,41,cs),
(711,41,o),
(760,75,o),
(768,115,cs),
(769,121,o),
(762,126,o),
(756,126,cs),
(747,126,o),
(733,65,o),
(667,65,cs)
);
},
{
closed = 1;
nodes = (
(121,299,o),
(187,235,o),
(254,171,cs),
(256,169,o),
(259,168,o),
(261,168,cs),
(555,168,l),
(558,168,o),
(560,169,o),
(563,171,c),
(752,360,l),
(762,370,o),
(758,386,o),
(745,386,cs),
(531,386,l),
(418,569,ls),
(413,577,o),
(403,577,o),
(398,569,cs),
(286,386,l),
(65,385,l),
(51,385,o),
(44,373,o),
(54,363,c)
);
},
{
closed = 1;
nodes = (
(553,196,l),
(436,286,l),
(710,351,l)
);
},
{
closed = 1;
nodes = (
(298,192,l),
(408,276,l),
(519,192,l)
);
},
{
closed = 1;
nodes = (
(381,285,l),
(263,196,l),
(101,351,l)
);
},
{
closed = 1;
nodes = (
(396,306,l),
(281,334,l),
(396,521,l)
);
},
{
closed = 1;
nodes = (
(420,521,l),
(535,334,l),
(420,307,l)
);
},
{
closed = 1;
nodes = (
(257,339,l),
(162,362,l),
(271,362,l)
);
},
{
closed = 1;
nodes = (
(650,362,l),
(560,340,l),
(546,362,l)
);
},
{
closed = 1;
nodes = (
(625,-16,o),
(605,41,o),
(541,41,cs),
(477,41,o),
(457,-16,o),
(415,-16,cs),
(373,-16,o),
(353,41,o),
(289,41,cs),
(225,41,o),
(205,-16,o),
(163,-16,cs),
(97,-16,o),
(83,45,o),
(74,45,cs),
(68,45,o),
(61,40,o),
(62,34,cs),
(70,-6,o),
(119,-40,o),
(163,-40,cs),
(220,-40,o),
(236,17,o),
(289,17,cs),
(342,17,o),
(358,-40,o),
(415,-40,cs),
(472,-40,o),
(488,17,o),
(541,17,cs),
(594,17,o),
(610,-40,o),
(667,-40,cs),
(711,-40,o),
(760,-6,o),
(768,34,cs),
(769,40,o),
(762,45,o),
(756,45,cs),
(747,45,o),
(733,-16,o),
(667,-16,cs)
);
}
);
width = 819;
}
);
unicode = 108;
},
{
glyphname = m;
layers = (
{
layerId = "3D7C3D5E-7EBF-4B0D-83EE-E00796F45C97";
shapes = (
{
closed = 1;
nodes = (
(176,592,o),
(50,466,o),
(50,312,cs),
(50,24,ls),
(50,19,o),
(53,15,o),
(57,13,cs),
(62,11,o),
(67,12,o),
(70,16,c),
(151,96,l),
(231,16,ls),
(234,13,o),
(237,12,o),
(240,12,c),
(241,12,l),
(244,12,o),
(248,13,o),
(250,16,c),
(330,96,l),
(410,17,l),
(412,14,o),
(415,12,o),
(419,12,c),
(420,12,l),
(424,12,o),
(427,14,o),
(429,17,c),
(508,96,l),
(589,16,l),
(591,13,o),
(595,12,o),
(598,12,c),
(599,12,o),
(601,12,o),
(602,13,c),
(607,15,o),
(610,19,o),
(610,24,cs),
(610,312,ls),
(610,467,o),
(485,592,o),
(330,592,cs)
);
},
{
closed = 1;
nodes = (
(586,53,l),
(517,122,l),
(512,126,o),
(505,126,o),
(500,122,c),
(419,41,l),
(339,122,l),
(334,126,o),
(327,126,o),
(322,122,c),
(241,40,l),
(159,122,ls),
(157,124,o),
(154,125,o),
(151,125,cs),
(148,125,o),
(145,124,o),
(142,122,c),
(74,53,l),
(74,312,ls),
(74,453,o),
(188,568,o),
(330,568,cs),
(471,568,o),
(586,453,o),
(586,312,cs)
);
},
{
closed = 1;
nodes = (
(371,371,o),
(405,405,o),
(405,446,cs),
(405,487,o),
(371,521,o),
(330,521,cs),
(288,521,o),
(255,487,o),
(255,446,cs),
(255,405,o),
(288,371,o),
(330,371,cs)
);
},
{
closed = 1;
nodes = (
(358,497,o),
(381,474,o),
(381,446,cs),
(381,418,o),
(358,395,o),
(330,395,cs),
(301,395,o),
(279,418,o),
(279,446,cs),
(279,474,o),
(301,497,o),
(330,497,cs)
);
},
{
closed = 1;
nodes = (
(342,423,o),
(353,434,o),
(353,446,cs),
(353,459,o),
(342,469,o),
(330,469,cs),
(317,469,o),
(307,459,o),
(307,446,cs),
(307,434,o),
(317,423,o),
(330,423,cs)
);
},
{
closed = 1;
nodes = (
(179,318,ls),
(172,318,o),
(167,313,o),
(167,306,cs),
(167,217,o),
(240,144,o),
(330,144,cs),
(419,144,o),
(492,217,o),
(492,306,cs),
(492,313,o),
(487,318,o),
(480,318,cs)
);
},
{
closed = 1;
nodes = (
(257,168,o),
(198,223,o),
(192,294,c),
(468,294,l),
(462,223,o),
(402,168,o),
(330,168,cs)
);
}
);
width = 660;
}
);
unicode = 109;
},
{
glyphname = n;
layers = (
{
layerId = "3D7C3D5E-7EBF-4B0D-83EE-E00796F45C97";
shapes = (
{
closed = 1;
nodes = (
(215,322,ls),
(213,326,o),
(207,329,o),
(202,328,cs),
(196,326,o),
(192,321,o),
(193,316,c),
(194,215,l),
(112,212,l),
(108,211,o),
(105,209,o),
(103,206,cs),
(101,202,o),
(100,198,o),
(102,194,cs),
(199,12,ls),
(202,6,o),
(206,6,o),
(212,6,c),
(218,7,o),
(221,12,o),
(221,18,cs),
(222,118,l),
(302,122,l),
(306,122,o),
(309,125,o),
(311,128,cs),
(313,132,o),
(313,136,o),
(312,140,c)
);
},
{
closed = 1;
nodes = (
(209,142,l),
(203,141,o),
(198,136,o),
(198,130,cs),
(198,66,l),
(132,188,l),
(207,192,l),
(213,192,o),
(218,198,o),
(218,204,cs),
(217,266,l),
(282,145,l)
);
},
{
closed = 1;
nodes = (
(339,547,o),
(340,553,o),
(340,559,cs),
(340,598,o),
(307,631,o),
(268,631,cs),
(255,631,o),
(242,627,o),
(231,621,c),
(218,641,o),
(196,653,o),
(171,653,cs),
(132,653,o),
(100,621,o),
(100,581,cs),
(100,574,o),
(101,567,o),
(103,560,c),
(71,552,o),
(50,523,o),
(50,491,cs),
(50,451,o),
(82,419,o),
(122,419,cs),
(130,419,o),
(138,421,o),
(146,423,c),
(153,391,o),
(182,367,o),
(216,367,cs),
(246,367,o),
(273,386,o),
(283,414,c),
(326,414,o),
(364,436,o),
(364,485,cs),
(364,507,o),
(354,528,o),
(337,541,c)
);
},
{
closed = 1;
nodes = (
(288,437,o),
(284,438,o),
(278,440,cs),
(275,441,o),
(271,440,o),
(268,439,cs),
(265,437,o),
(263,434,o),
(263,431,c),
(259,408,o),
(239,391,o),
(216,391,cs),
(189,391,o),
(168,413,o),
(168,439,c),
(168,442,l),
(168,446,o),
(166,451,o),
(162,453,cs),
(158,455,o),
(153,455,o),
(149,452,cs),
(141,446,o),
(131,443,o),
(122,443,cs),
(95,443,o),
(74,465,o),
(74,491,cs),
(74,517,o),
(94,538,o),
(120,539,c),
(125,539,o),
(128,541,o),
(131,545,cs),
(133,549,o),
(133,553,o),
(130,557,c),
(126,565,o),
(124,573,o),
(124,581,cs),
(124,607,o),
(145,629,o),
(171,629,cs),
(191,629,o),
(209,617,o),
(216,598,cs),
(217,595,o),
(221,592,o),
(224,591,cs),
(228,590,o),
(232,591,o),
(235,594,cs),
(244,602,o),
(256,607,o),
(268,607,cs),
(294,607,o),
(316,585,o),
(316,559,cs),
(316,553,o),
(314,547,o),
(312,541,cs),
(310,535,o),
(312,529,o),
(317,526,cs),
(332,517,o),
(340,502,o),
(340,485,cs),
(340,459,o),
(319,437,o),
(292,437,cs)
);
}
);
width = 414;
}
);
unicode = 110;
},
{
glyphname = o;
layers = (
{
layerId = "3D7C3D5E-7EBF-4B0D-83EE-E00796F45C97";
shapes = (
{
closed = 1;
nodes = (
(715,240,o),
(715,245,o),
(715,250,cs),
(715,276,o),
(700,299,o),
(678,309,c),
(649,442,o),
(529,535,o),
(394,535,cs),
(258,535,o),
(140,436,o),
(111,304,c),
(100,292,o),
(94,277,o),
(94,260,cs),
(94,254,o),
(95,248,o),
(96,243,c),
(68,235,o),
(50,209,o),
(50,180,cs),
(50,144,o),
(79,115,o),
(115,115,cs),
(122,115,o),
(129,116,o),
(135,118,c),
(142,90,o),
(168,68,o),
(199,68,cs),
(226,68,o),
(250,85,o),
(260,110,c),
(267,110,l),
(303,110,o),
(332,139,o),
(332,175,cs),
(332,195,o),
(324,213,o),
(308,225,c),
(310,230,o),
(310,235,o),
(310,240,cs),
(310,250,o),
(308,259,o),
(304,268,c),
(320,303,o),
(355,326,o),
(394,326,cs),
(441,326,o),
(481,293,o),
(490,248,c),
(468,237,o),
(454,214,o),
(454,190,cs),
(454,154,o),
(484,125,o),
(520,125,cs),
(527,125,o),
(534,126,o),
(540,128,c),
(547,100,o),
(573,78,o),
(604,78,cs),
(631,78,o),
(655,95,o),
(664,120,c),
(672,120,ls),
(708,120,o),
(737,149,o),
(737,185,cs),
(737,205,o),
(728,223,o),
(713,235,c)
);
},
{
closed = 1;
nodes = (
(515,511,o),
(620,430,o),
(651,316,c),
(650,316,l),
(642,316,o),
(635,314,o),
(628,312,c),
(598,416,o),
(502,487,o),
(394,487,cs),
(291,487,o),
(200,422,o),
(165,325,c),
(163,325,o),
(161,326,o),
(159,326,c),
(153,326,o),
(147,325,o),
(141,323,c),
(177,433,o),
(279,511,o),
(394,511,cs)
);
},
{
closed = 1;
nodes = (
(498,368,o),
(448,395,o),
(394,395,cs),
(333,395,o),
(278,360,o),
(251,305,c),
(249,306,o),
(247,306,o),
(245,306,c),
(240,306,o),
(236,305,o),
(231,304,c),
(256,371,o),
(321,418,o),
(394,418,cs),
(456,418,o),
(513,385,o),
(544,332,c),
(538,330,o),
(532,327,o),
(527,324,c)
);
},
{
closed = 1;
nodes = (
(535,401,o),
(468,442,o),
(394,442,cs),
(308,442,o),
(233,386,o),
(206,305,c),
(201,311,o),
(195,315,o),
(189,319,c),
(220,405,o),
(301,463,o),
(394,463,cs),
(485,463,o),
(564,408,o),
(597,326,c),
(589,331,o),
(580,334,o),
(569,336,c)
);
},
{
closed = 1;
nodes = (
(263,134,o),
(259,134,o),
(255,136,cs),
(251,137,o),
(248,136,o),
(245,135,cs),
(242,133,o),
(240,130,o),
(239,126,cs),
(236,107,o),
(219,92,o),
(199,92,cs),
(176,92,o),
(158,111,o),
(157,134,c),
(158,134,o),
(158,135,o),
(158,136,c),
(158,141,o),
(156,145,o),
(151,147,cs),
(147,149,o),
(142,149,o),
(139,146,cs),
(132,141,o),
(123,139,o),
(115,139,cs),
(92,139,o),
(74,157,o),
(74,180,cs),
(74,203,o),
(91,221,o),
(114,221,cs),
(118,221,o),
(122,224,o),
(124,227,cs),
(126,231,o),
(126,236,o),
(124,239,cs),
(120,246,o),
(118,253,o),
(118,260,cs),
(118,272,o),
(123,282,o),
(130,289,c),
(130,290,l),
(138,297,o),
(148,302,o),
(159,302,cs),
(176,302,o),
(191,291,o),
(198,275,c),
(199,271,o),
(202,269,o),
(206,268,cs),
(210,267,o),
(214,268,o),
(217,271,cs),
(225,278,o),
(235,282,o),
(245,282,cs),
(268,282,o),
(286,263,o),
(286,240,cs),
(286,235,o),
(285,230,o),
(283,225,cs),
(281,219,o),
(283,213,o),
(288,210,cs),
(301,203,o),
(308,189,o),
(308,175,cs),
(308,152,o),
(290,134,o),
(267,134,cs)
);
},
{
closed = 1;
nodes = (
(351,350,o),
(309,327,o),
(288,289,c),
(284,293,o),
(280,296,o),
(275,298,c),
(298,343,o),
(344,371,o),
(394,371,cs),
(442,371,o),
(485,346,o),
(510,306,c),
(506,300,o),
(503,294,o),
(501,288,c),
(480,325,o),
(440,350,o),
(394,350,cs)
);
},
{
closed = 1;
nodes = (
(668,144,o),
(664,144,o),
(660,146,cs),
(656,147,o),
(653,146,o),
(650,144,cs),
(647,143,o),
(645,140,o),
(644,136,cs),
(641,117,o),
(624,102,o),
(604,102,cs),
(581,102,o),
(563,124,o),
(563,146,c),
(563,151,o),
(560,155,o),
(556,157,cs),
(552,159,o),
(547,159,o),
(544,156,cs),
(537,151,o),
(528,149,o),
(520,149,cs),
(497,149,o),
(478,167,o),
(478,190,cs),
(478,208,o),
(490,223,o),
(506,229,c),
(507,229,o),
(508,229,o),
(508,230,c),
(512,231,o),
(515,231,o),
(519,231,cs),
(523,231,o),
(527,234,o),
(529,237,cs),
(531,241,o),
(531,246,o),
(529,249,cs),
(525,256,o),
(523,263,o),
(523,270,cs),
(523,280,o),
(526,290,o),
(533,297,c),
(533,298,l),
(541,306,o),
(552,311,o),
(564,311,cs),
(581,311,o),
(596,301,o),
(603,285,c),
(604,281,o),
(607,278,o),
(611,278,c),
(615,277,o),
(619,278,o),
(622,280,cs),
(630,288,o),
(640,292,o),
(650,292,cs),
(673,292,o),
(691,273,o),
(691,250,cs),
(691,245,o),
(690,240,o),
(688,235,cs),
(686,229,o),
(688,223,o),
(693,220,cs),
(706,212,o),
(713,199,o),
(713,185,cs),
(713,162,o),
(695,144,o),
(672,144,cs)
);
}
);
width = 787;
}
);
unicode = 111;
},
{
glyphname = p;
layers = (
{
layerId = "3D7C3D5E-7EBF-4B0D-83EE-E00796F45C97";
shapes = (
{
closed = 1;
nodes = (
(321,304,l),
(558,588,l),
(561,591,o),
(562,596,o),
(560,600,cs),
(558,605,o),
(554,607,o),
(549,607,cs),
(63,607,ls),
(58,607,o),
(54,605,o),
(52,600,cs),
(50,596,o),
(51,591,o),
(54,588,c),
(290,304,l),
(54,20,l),
(51,16,o),
(50,11,o),
(52,7,cs),
(54,3,o),
(58,0,o),
(63,0,cs),
(549,0,ls),
(554,0,o),
(558,3,o),
(560,7,cs),
(562,11,o),
(561,16,o),
(558,20,c)
);
},
{
closed = 1;
nodes = (
(266,450,o),
(246,507,o),
(182,507,cs),
(172,507,o),
(163,506,o),
(155,503,c),
(88,583,l),
(523,583,l),
(457,504,l),
(450,506,o),
(443,507,o),
(434,507,cs),
(370,507,o),
(350,450,o),
(308,450,cs)
);
},
{
closed = 1;
nodes = (
(306,285,l),
(455,105,l),
(443,96,o),
(430,88,o),
(415,88,cs),
(373,88,o),
(353,145,o),
(289,145,cs),
(225,145,o),
(205,88,o),
(163,88,cs),
(156,88,o),
(149,89,o),
(143,90,c)
);
},
{
closed = 1;
nodes = (
(523,24,l),
(88,24,l),
(127,71,l),
(139,66,o),
(151,64,o),
(163,64,cs),
(220,64,o),
(236,121,o),
(289,121,cs),
(342,121,o),
(358,64,o),
(415,64,cs),
(439,64,o),
(456,74,o),
(471,86,c)
);
},
{
closed = 1;
nodes = (
(172,482,l),
(175,483,o),
(179,483,o),
(182,483,cs),
(235,483,o),
(251,426,o),
(308,426,cs),
(365,426,o),
(381,483,o),
(434,483,c),
(436,483,o),
(438,483,o),
(440,483,c),
(306,322,l)
);
},
{
closed = 1;
nodes = (
(287,217,o),
(292,212,o),
(299,212,cs),
(305,212,o),
(311,217,o),
(311,224,cs),
(311,230,o),
(305,236,o),
(299,236,cs),
(292,236,o),
(287,230,o),
(287,224,cs)
);
},
{
closed = 1;
nodes = (
(345,165,o),
(351,170,o),
(351,177,cs),
(351,183,o),
(345,189,o),
(339,189,cs),
(332,189,o),
(327,183,o),
(327,177,cs),
(327,170,o),
(332,165,o),
(339,165,cs)
);
}
);
width = 612;
}
);
unicode = 112;
},
{
glyphname = q;
layers = (
{
layerId = "3D7C3D5E-7EBF-4B0D-83EE-E00796F45C97";
shapes = (
{
closed = 1;
nodes = (
(181,55,o),
(182,55,o),
(183,56,c),
(185,56,o),
(231,72,o),
(231,110,cs),
(231,128,o),
(217,142,o),
(199,142,cs),
(192,142,o),
(185,140,o),
(179,135,c),
(174,140,o),
(167,142,o),
(159,142,cs),
(141,142,o),
(127,128,o),
(127,110,cs),
(127,72,o),
(174,56,o),
(176,56,c),
(177,55,o),
(178,55,o),
(180,55,c)
);
},
{
closed = 1;
nodes = (
(164,118,o),
(167,115,o),
(167,110,cs),
(167,104,o),
(173,98,o),
(179,98,cs),
(186,98,o),
(191,104,o),
(191,110,cs),
(191,115,o),
(195,118,o),
(199,118,cs),
(204,118,o),
(208,115,o),
(208,110,cs),
(208,94,o),
(188,83,o),
(180,80,c),
(171,83,o),
(151,94,o),
(151,110,cs),
(151,115,o),
(155,118,o),
(159,118,cs)
);
},
{
closed = 1;
nodes = (
(62,613,ls),
(56,613,o),
(50,608,o),
(50,601,cs),
(50,12,ls),
(50,5,o),
(56,0,o),
(62,0,cs),
(548,0,ls),
(555,0,o),
(560,5,o),
(560,12,cs),
(560,601,ls),
(560,608,o),
(555,613,o),
(548,613,cs)
);
},
{
closed = 1;
nodes = (
(536,24,l),
(74,24,l),
(74,589,l),
(536,589,l)
);
},
{
closed = 1;
nodes = (
(475,155,ls),
(482,155,o),
(487,161,o),
(487,167,cs),
(487,547,ls),
(487,553,o),
(482,559,o),
(475,559,cs),
(136,559,ls),
(130,559,o),
(124,553,o),
(124,547,cs),
(124,167,ls),
(124,161,o),
(130,155,o),
(136,155,cs)
);
},
{
closed = 1;
nodes = (
(148,179,l),
(148,232,l),
(257,366,l),
(369,228,l),
(373,223,o),
(381,222,o),
(386,227,cs),
(391,231,o),
(392,238,o),
(387,243,c),
(334,309,l),
(403,410,l),
(463,329,l),
(463,179,l)
);
},
{
closed = 1;
nodes = (
(463,535,l),
(463,369,l),
(412,437,l),
(410,441,o),
(406,442,o),
(402,442,cs),
(398,442,o),
(395,440,o),
(393,437,cs),
(318,329,l),
(266,393,ls),
(264,395,o),
(260,397,o),
(257,397,c),
(253,397,o),
(250,395,o),
(247,393,c),
(148,270,l),
(148,535,l)
);
},
{
closed = 1;
nodes = (
(378,467,o),
(383,472,o),
(383,479,cs),
(383,485,o),
(378,491,o),
(371,491,c),
(364,491,o),
(359,485,o),
(359,479,cs),
(359,472,o),
(364,467,o),
(371,467,cs)
);
},
{
closed = 1;
nodes = (
(325,388,o),
(331,394,o),
(331,400,cs),
(331,407,o),
(325,412,o),
(319,412,c),
(312,412,o),
(307,407,o),
(307,400,cs),
(307,394,o),
(312,388,o),
(319,388,cs)
);
},
{
closed = 1;
nodes = (
(210,443,o),
(216,448,o),
(216,455,cs),
(216,462,o),
(210,467,o),
(204,467,c),
(197,467,o),
(192,462,o),
(192,455,cs),
(192,448,o),
(197,443,o),
(204,443,cs)
);
},
{
closed = 1;
nodes = (
(451,87,ls),
(458,87,o),
(463,92,o),
(463,99,cs),
(463,105,o),
(458,111,o),
(451,111,cs),
(257,111,ls),
(250,111,o),
(245,105,o),
(245,99,cs),
(245,92,o),
(250,87,o),
(257,87,cs)
);
}
);
width = 610;
}
);
unicode = 113;
},
{
glyphname = r;
layers = (
{
layerId = "3D7C3D5E-7EBF-4B0D-83EE-E00796F45C97";
shapes = (
{
closed = 1;
nodes = (
(381,412,o),
(382,412,o),
(383,412,c),
(384,412,o),
(386,412,o),
(387,413,c),
(391,414,o),
(478,443,o),
(478,514,cs),
(478,544,o),
(454,568,o),
(424,568,cs),
(407,568,o),
(392,560,o),
(382,548,c),
(372,560,o),
(357,568,o),
(340,568,cs),
(311,568,o),
(286,544,o),
(286,514,cs),
(286,443,o),
(376,414,o),
(380,413,c)
);
},
{
closed = 1;
nodes = (
(357,544,o),
(370,531,o),
(370,514,cs),
(370,508,o),
(376,502,o),
(382,502,cs),
(389,502,o),
(394,508,o),
(394,514,cs),
(394,531,o),
(408,544,o),
(424,544,cs),
(441,544,o),
(454,531,o),
(454,514,cs),
(454,467,o),
(398,443,o),
(383,437,c),
(368,443,o),
(310,467,o),
(310,514,cs),
(310,531,o),
(324,544,o),
(340,544,cs)
);
},
{
closed = 1;
nodes = (
(471,384,o),
(409,340,o),
(383,277,c),
(358,341,o),
(295,387,o),
(222,387,cs),
(127,387,o),
(50,309,o),
(50,214,cs),
(50,119,o),
(127,42,o),
(222,42,cs),
(294,42,o),
(356,86,o),
(382,149,c),
(407,85,o),
(470,39,o),
(543,39,cs),
(638,39,o),
(715,117,o),
(715,212,cs),
(715,307,o),
(638,384,o),
(543,384,cs)
);
},
{
closed = 1;
nodes = (
(141,66,o),
(74,132,o),
(74,214,cs),
(74,296,o),
(141,363,o),
(222,363,cs),
(301,363,o),
(366,301,o),
(371,223,c),
(370,220,o),
(370,216,o),
(370,213,c),
(361,214,o),
(354,217,o),
(349,222,c),
(343,226,o),
(335,224,o),
(332,218,cs),
(329,212,o),
(331,205,o),
(337,202,cs),
(346,196,o),
(358,192,o),
(369,190,c),
(358,120,o),
(296,66,o),
(222,66,cs)
);
},
{
closed = 1;
nodes = (
(468,63,o),
(406,118,o),
(395,190,c),
(407,192,o),
(419,196,o),
(429,203,cs),
(434,206,o),
(437,213,o),
(433,219,cs),
(430,224,o),
(423,228,o),
(417,223,cs),
(412,219,o),
(404,216,o),
(395,214,c),
(395,217,o),
(395,220,o),
(395,223,c),
(400,299,o),
(465,360,o),
(543,360,cs),
(625,360,o),
(691,294,o),
(691,212,cs),
(691,130,o),
(625,63,o),
(543,63,cs)
);
},
{
closed = 1;
nodes = (
(444,275,o),
(452,273,o),
(460,273,cs),
(469,273,o),
(477,277,o),
(484,282,cs),
(489,286,o),
(488,295,o),
(484,299,cs),
(479,304,o),
(472,304,o),
(467,299,c),
(463,297,o),
(454,296,o),
(450,300,cs),
(445,304,o),
(436,301,o),
(433,296,cs),
(430,290,o),
(432,283,o),
(438,279,cs)
);
},
{
closed = 1;
nodes = (
(289,269,o),
(297,267,o),
(305,267,cs),
(314,267,o),
(322,271,o),
(329,276,cs),
(334,280,o),
(333,289,o),
(329,293,cs),
(324,298,o),
(317,298,o),
(312,293,c),
(308,291,o),
(299,290,o),
(295,294,cs),
(290,298,o),
(281,295,o),
(278,290,cs),
(275,284,o),
(277,277,o),
(283,273,cs)
);
}
);
width = 765;
}
);
unicode = 114;
},
{
glyphname = s;
layers = (
{
layerId = "3D7C3D5E-7EBF-4B0D-83EE-E00796F45C97";
shapes = (
{
closed = 1;
nodes = (
(622,360,o),
(583,398,o),
(536,398,cs),
(504,398,o),
(476,381,o),
(461,356,c),
(446,381,o),
(419,398,o),
(387,398,cs),
(340,398,o),
(301,360,o),
(301,312,cs),
(301,224,o),
(385,168,o),
(460,142,cs),
(462,141,o),
(465,141,o),
(467,142,cs),
(540,163,o),
(622,231,o),
(622,312,cs)
);
},
{
closed = 1;
nodes = (
(402,184,o),
(325,243,o),
(325,312,cs),
(325,346,o),
(353,374,o),
(387,374,cs),
(422,374,o),
(449,346,o),
(449,312,cs),
(449,306,o),
(455,300,o),
(461,300,c),
(462,300,l),
(468,300,o),
(474,306,o),
(474,312,cs),
(474,346,o),
(501,374,o),
(536,374,cs),
(570,374,o),
(598,346,o),
(598,312,cs),
(598,243,o),
(525,185,o),
(463,166,c)
);
},
{
closed = 1;
nodes = (
(217,361,o),
(254,374,o),
(292,400,cs),
(343,436,o),
(370,482,o),
(370,531,cs),
(370,579,o),
(332,617,o),
(284,617,cs),
(253,617,o),
(225,600,o),
(210,575,c),
(195,600,o),
(168,617,o),
(136,617,cs),
(89,617,o),
(50,579,o),
(50,531,cs),
(50,481,o),
(78,436,o),
(130,400,cs),
(150,387,o),
(192,361,o),
(215,361,c)
);
},
{
closed = 1;
nodes = (
(74,566,o),
(102,593,o),
(136,593,cs),
(170,593,o),
(198,566,o),
(198,531,cs),
(198,525,o),
(203,519,o),
(210,519,c),
(217,519,o),
(222,525,o),
(222,531,cs),
(222,566,o),
(250,593,o),
(284,593,cs),
(318,593,o),
(346,566,o),
(346,531,cs),
(346,456,o),
(274,410,o),
(212,385,c),
(149,410,o),
(74,454,o),
(74,531,cs)
);
},
{
closed = 1;
nodes = (
(544,459,l),
(547,460,o),
(626,486,o),
(626,550,cs),
(626,577,o),
(604,599,o),
(577,599,cs),
(562,599,o),
(549,593,o),
(540,582,c),
(531,593,o),
(517,599,o),
(503,599,cs),
(476,599,o),
(454,577,o),
(454,550,cs),
(454,486,o),
(534,460,o),
(537,459,c)
);
},
{
closed = 1;
nodes = (
(516,575,o),
(528,564,o),
(528,550,cs),
(528,544,o),
(533,538,o),
(540,538,cs),
(546,538,o),
(552,544,o),
(552,550,cs),
(552,564,o),
(563,575,o),
(577,575,cs),
(591,575,o),
(602,564,o),
(602,550,cs),
(602,510,o),
(554,489,o),
(540,484,c),
(527,489,o),
(478,510,o),
(478,550,cs),
(478,564,o),
(489,575,o),
(503,575,cs)
);
},
{
closed = 1;
nodes = (
(234,141,o),
(221,134,o),
(212,124,c),
(203,134,o),
(190,141,o),
(175,141,cs),
(148,141,o),
(126,119,o),
(126,92,cs),
(126,45,o),
(169,14,o),
(209,1,cs),
(211,0,o),
(212,0,o),
(213,0,c),
(214,0,o),
(215,0,o),
(217,1,cs),
(257,14,o),
(298,46,o),
(298,92,cs),
(298,119,o),
(276,141,o),
(249,141,cs)
);
},
{
closed = 1;
nodes = (
(199,30,o),
(150,51,o),
(150,92,cs),
(150,105,o),
(161,117,o),
(175,117,cs),
(189,117,o),
(200,105,o),
(200,92,cs),
(200,85,o),
(206,80,o),
(212,80,cs),
(219,80,o),
(224,85,o),
(224,92,cs),
(224,105,o),
(235,117,o),
(249,117,cs),
(263,117,o),
(274,105,o),
(274,92,cs),
(274,51,o),
(227,30,o),
(213,25,c)
);
},
{
closed = 1;
nodes = (
(629,143,o),
(616,136,o),
(607,126,c),
(598,136,o),
(584,143,o),
(570,143,cs),
(543,143,o),
(521,121,o),
(521,94,cs),
(521,30,o),
(601,4,o),
(604,3,c),
(611,3,l),
(615,4,o),
(693,30,o),
(693,94,cs),
(693,121,o),
(671,143,o),
(644,143,cs)
);
},
{
closed = 1;
nodes = (
(594,32,o),
(545,54,o),
(545,94,cs),
(545,108,o),
(556,119,o),
(570,119,cs),
(584,119,o),
(595,108,o),
(595,94,cs),
(595,87,o),
(600,82,o),
(607,82,cs),
(613,82,o),
(619,87,o),
(619,94,cs),
(619,108,o),
(630,119,o),
(644,119,cs),
(658,119,o),
(669,108,o),
(669,94,cs),
(669,54,o),
(621,32,o),
(608,27,c)
);
}
);
width = 743;
}
);
unicode = 115;
},
{
glyphname = t;
layers = (
{
layerId = "3D7C3D5E-7EBF-4B0D-83EE-E00796F45C97";
shapes = (
{
closed = 1;
nodes = (
(378,198,ls),
(393,198,o),
(407,206,o),
(415,218,cs),
(514,368,l),
(551,308,l),
(521,286,o),
(502,250,o),
(502,210,cs),
(502,143,o),
(557,88,o),
(624,88,cs),
(691,88,o),
(746,143,o),
(746,210,cs),
(746,277,o),
(691,332,o),
(624,332,cs),
(605,332,o),
(588,328,o),
(572,320,c),
(456,505,l),
(532,505,ls),
(539,505,o),
(544,510,o),
(544,517,cs),
(544,524,o),
(539,529,o),
(532,529,cs),
(358,529,ls),
(352,529,o),
(346,524,o),
(346,517,cs),
(346,510,o),
(352,505,o),
(358,505,cs),
(428,505,l),
(492,402,l),
(311,402,l),
(296,432,l),
(339,432,ls),
(346,432,o),
(351,437,o),
(351,444,cs),
(351,450,o),
(346,456,o),
(339,456,cs),
(224,456,ls),
(217,456,o),
(212,450,o),
(212,444,cs),
(212,437,o),
(217,432,o),
(224,432,cs),
(269,432,l),
(289,394,l),
(233,316,l),
(215,326,o),
(194,332,o),
(172,332,cs),
(105,332,o),
(50,277,o),
(50,210,cs),
(50,143,o),
(105,88,o),
(172,88,cs),
(235,88,o),
(287,137,o),
(293,198,c)
);
},
{
closed = 1;
nodes = (
(301,370,l),
(378,222,l),
(293,222,l),
(290,254,o),
(275,282,o),
(252,302,c)
);
},
{
closed = 1;
nodes = (
(195,222,l),
(238,282,l),
(255,267,o),
(266,246,o),
(269,222,c)
);
},
{
closed = 1;
nodes = (
(118,112,o),
(74,156,o),
(74,210,cs),
(74,264,o),
(118,308,o),
(172,308,cs),
(189,308,o),
(205,304,o),
(219,296,c),
(162,217,ls),
(159,213,o),
(159,209,o),
(161,205,cs),
(163,201,o),
(167,198,o),
(172,198,cs),
(269,198,l),
(263,150,o),
(222,112,o),
(172,112,cs)
);
},
{
closed = 1;
nodes = (
(399,234,l),
(324,378,l),
(492,378,l)
);
},
{
closed = 1;
nodes = (
(570,112,o),
(526,156,o),
(526,210,cs),
(526,242,o),
(541,270,o),
(564,288,c),
(619,199,l),
(622,196,o),
(626,194,o),
(630,194,c),
(632,194,o),
(634,194,o),
(636,196,cs),
(641,199,o),
(643,207,o),
(640,212,cs),
(585,300,l),
(597,305,o),
(610,308,o),
(624,308,cs),
(678,308,o),
(722,264,o),
(722,210,cs),
(722,156,o),
(678,112,o),
(624,112,cs)
);
}
);
width = 796;
}
);
unicode = 116;
},
